G04 #@! TF.GenerationSoftware,KiCad,Pcbnew,5.0.2-bee76a0~70~ubuntu16.04.1*
G04 #@! TF.CreationDate,2024-02-25T21:22:06-04:00*
G04 #@! TF.ProjectId,leonrv,6c656f6e-7276-42e6-9b69-6361645f7063,rev?*
G04 #@! TF.SameCoordinates,Original*
G04 #@! TF.FileFunction,Copper,L1,Top*
G04 #@! TF.FilePolarity,Positive*
%FSLAX46Y46*%
G04 Gerber Fmt 4.6, Leading zero omitted, Abs format (unit mm)*
G04 Created by KiCad (PCBNEW 5.0.2-bee76a0~70~ubuntu16.04.1) date dom 25 feb 2024 21:22:06 -04*
%MOMM*%
%LPD*%
G01*
G04 APERTURE LIST*
G04 #@! TA.AperFunction,ComponentPad*
%ADD10R,1.600000X1.600000*%
G04 #@! TD*
G04 #@! TA.AperFunction,ComponentPad*
%ADD11C,1.600000*%
G04 #@! TD*
G04 #@! TA.AperFunction,ComponentPad*
%ADD12C,4.000000*%
G04 #@! TD*
G04 #@! TA.AperFunction,ComponentPad*
%ADD13O,2.400000X2.400000*%
G04 #@! TD*
G04 #@! TA.AperFunction,ComponentPad*
%ADD14C,2.400000*%
G04 #@! TD*
G04 #@! TA.AperFunction,ComponentPad*
%ADD15R,1.700000X1.700000*%
G04 #@! TD*
G04 #@! TA.AperFunction,ComponentPad*
%ADD16O,1.700000X1.700000*%
G04 #@! TD*
G04 #@! TA.AperFunction,ComponentPad*
%ADD17C,3.300000*%
G04 #@! TD*
G04 #@! TA.AperFunction,ComponentPad*
%ADD18C,1.900000*%
G04 #@! TD*
G04 #@! TA.AperFunction,ComponentPad*
%ADD19C,1.700000*%
G04 #@! TD*
G04 #@! TA.AperFunction,ComponentPad*
%ADD20R,1.800000X1.800000*%
G04 #@! TD*
G04 #@! TA.AperFunction,ComponentPad*
%ADD21C,1.800000*%
G04 #@! TD*
G04 #@! TA.AperFunction,ComponentPad*
%ADD22O,2.000000X2.000000*%
G04 #@! TD*
G04 #@! TA.AperFunction,ComponentPad*
%ADD23R,2.000000X2.000000*%
G04 #@! TD*
G04 #@! TA.AperFunction,ComponentPad*
%ADD24C,2.000000*%
G04 #@! TD*
G04 #@! TA.AperFunction,Conductor*
%ADD25C,1.000000*%
G04 #@! TD*
G04 #@! TA.AperFunction,Conductor*
%ADD26C,0.800000*%
G04 #@! TD*
G04 #@! TA.AperFunction,Conductor*
%ADD27C,0.200000*%
G04 #@! TD*
G04 APERTURE END LIST*
D10*
G04 #@! TO.P,J3,1*
G04 #@! TO.N,/red*
X153810545Y-54467749D03*
D11*
G04 #@! TO.P,J3,2*
G04 #@! TO.N,/green*
X153810545Y-56757749D03*
G04 #@! TO.P,J3,3*
G04 #@! TO.N,/blue*
X153810545Y-59047749D03*
G04 #@! TO.P,J3,4*
G04 #@! TO.N,Net-(J3-Pad4)*
X153810545Y-61337749D03*
G04 #@! TO.P,J3,5*
G04 #@! TO.N,GND*
X153810545Y-63627749D03*
G04 #@! TO.P,J3,6*
X151830545Y-53322749D03*
G04 #@! TO.P,J3,7*
X151830545Y-55612749D03*
G04 #@! TO.P,J3,8*
X151830545Y-57902749D03*
G04 #@! TO.P,J3,9*
G04 #@! TO.N,Net-(J3-Pad9)*
X151830545Y-60192749D03*
G04 #@! TO.P,J3,10*
G04 #@! TO.N,GND*
X151830545Y-62482749D03*
G04 #@! TO.P,J3,11*
G04 #@! TO.N,Net-(J3-Pad11)*
X149850545Y-54467749D03*
G04 #@! TO.P,J3,12*
G04 #@! TO.N,Net-(J3-Pad12)*
X149850545Y-56757749D03*
G04 #@! TO.P,J3,13*
G04 #@! TO.N,/hsync*
X149850545Y-59047749D03*
G04 #@! TO.P,J3,14*
G04 #@! TO.N,/vsync*
X149850545Y-61337749D03*
G04 #@! TO.P,J3,15*
G04 #@! TO.N,Net-(J3-Pad15)*
X149850545Y-63627749D03*
D12*
G04 #@! TO.P,J3,0*
G04 #@! TO.N,GND*
X151760545Y-71282749D03*
X151760545Y-46282749D03*
G04 #@! TD*
D13*
G04 #@! TO.P,R1,2*
G04 #@! TO.N,/red*
X166830545Y-46482749D03*
D14*
G04 #@! TO.P,R1,1*
G04 #@! TO.N,/vga_red2*
X179530545Y-46482749D03*
G04 #@! TD*
G04 #@! TO.P,R3,1*
G04 #@! TO.N,/vga_red0*
X179530545Y-54482749D03*
D13*
G04 #@! TO.P,R3,2*
G04 #@! TO.N,/red*
X166830545Y-54482749D03*
G04 #@! TD*
G04 #@! TO.P,R2,2*
G04 #@! TO.N,/red*
X166830545Y-50482749D03*
D14*
G04 #@! TO.P,R2,1*
G04 #@! TO.N,/vga_red1*
X179530545Y-50482749D03*
G04 #@! TD*
G04 #@! TO.P,R9,1*
G04 #@! TO.N,/vga_vsync*
X179530545Y-81982749D03*
D13*
G04 #@! TO.P,R9,2*
G04 #@! TO.N,/vsync*
X166830545Y-81982749D03*
G04 #@! TD*
G04 #@! TO.P,R10,2*
G04 #@! TO.N,/hsync*
X166830545Y-86082749D03*
D14*
G04 #@! TO.P,R10,1*
G04 #@! TO.N,/vga_hsync*
X179530545Y-86082749D03*
G04 #@! TD*
G04 #@! TO.P,R7,1*
G04 #@! TO.N,/vga_blue1*
X179530545Y-70482749D03*
D13*
G04 #@! TO.P,R7,2*
G04 #@! TO.N,/blue*
X166830545Y-70482749D03*
G04 #@! TD*
D14*
G04 #@! TO.P,R5,1*
G04 #@! TO.N,/vga_green1*
X179530545Y-62482749D03*
D13*
G04 #@! TO.P,R5,2*
G04 #@! TO.N,/green*
X166830545Y-62482749D03*
G04 #@! TD*
G04 #@! TO.P,R6,2*
G04 #@! TO.N,/green*
X166830545Y-66482749D03*
D14*
G04 #@! TO.P,R6,1*
G04 #@! TO.N,/vga_green0*
X179530545Y-66482749D03*
G04 #@! TD*
D13*
G04 #@! TO.P,R8,2*
G04 #@! TO.N,/blue*
X166830545Y-74482749D03*
D14*
G04 #@! TO.P,R8,1*
G04 #@! TO.N,/vga_blue0*
X179530545Y-74482749D03*
G04 #@! TD*
D13*
G04 #@! TO.P,R4,2*
G04 #@! TO.N,/green*
X166830545Y-58482749D03*
D14*
G04 #@! TO.P,R4,1*
G04 #@! TO.N,/vga_green2*
X179530545Y-58482749D03*
G04 #@! TD*
D15*
G04 #@! TO.P,J5,1*
G04 #@! TO.N,/serial_RX*
X229630545Y-99902749D03*
D16*
G04 #@! TO.P,J5,2*
G04 #@! TO.N,/serial_TX*
X229630545Y-102442749D03*
G04 #@! TO.P,J5,3*
G04 #@! TO.N,GND*
X229630545Y-104982749D03*
G04 #@! TD*
D13*
G04 #@! TO.P,R14,2*
G04 #@! TO.N,/teclado_hab*
X174330545Y-110082749D03*
D14*
G04 #@! TO.P,R14,1*
G04 #@! TO.N,Net-(D1-Pad2)*
X174330545Y-97382749D03*
G04 #@! TD*
D17*
G04 #@! TO.P,J2,5*
G04 #@! TO.N,GND*
X151320545Y-113252749D03*
X151320545Y-100112749D03*
D18*
G04 #@! TO.P,J2,1*
G04 #@! TO.N,+5V*
X154030545Y-110182749D03*
D19*
G04 #@! TO.P,J2,2*
G04 #@! TO.N,/usb_D-*
X154030545Y-107682749D03*
G04 #@! TO.P,J2,3*
G04 #@! TO.N,/usb_D+*
X154030545Y-105682749D03*
D18*
G04 #@! TO.P,J2,4*
G04 #@! TO.N,GND*
X154030545Y-103182749D03*
G04 #@! TD*
D10*
G04 #@! TO.P,C1,2*
G04 #@! TO.N,+5V*
X163030545Y-110182749D03*
D11*
G04 #@! TO.P,C1,1*
G04 #@! TO.N,GND*
X163030545Y-112682749D03*
G04 #@! TD*
D13*
G04 #@! TO.P,R12,2*
G04 #@! TO.N,/usb_D-*
X179030545Y-107482749D03*
D14*
G04 #@! TO.P,R12,1*
G04 #@! TO.N,GND*
X179030545Y-94782749D03*
G04 #@! TD*
G04 #@! TO.P,R11,1*
G04 #@! TO.N,GND*
X183230545Y-92282749D03*
D13*
G04 #@! TO.P,R11,2*
G04 #@! TO.N,/usb_D+*
X183230545Y-104982749D03*
G04 #@! TD*
D20*
G04 #@! TO.P,D1,1*
G04 #@! TO.N,GND*
X167330545Y-94782749D03*
D21*
G04 #@! TO.P,D1,2*
G04 #@! TO.N,Net-(D1-Pad2)*
X167330545Y-97322749D03*
G04 #@! TD*
D16*
G04 #@! TO.P,J4,6*
G04 #@! TO.N,GND*
X229630545Y-48082749D03*
G04 #@! TO.P,J4,5*
G04 #@! TO.N,/serialDBG_CTS*
X229630545Y-50622749D03*
G04 #@! TO.P,J4,4*
G04 #@! TO.N,Net-(J4-Pad4)*
X229630545Y-53162749D03*
G04 #@! TO.P,J4,3*
G04 #@! TO.N,/serialDBG_RX*
X229630545Y-55702749D03*
G04 #@! TO.P,J4,2*
G04 #@! TO.N,/serialDBG_TX*
X229630545Y-58242749D03*
D15*
G04 #@! TO.P,J4,1*
G04 #@! TO.N,/serialDBG_DTR*
X229630545Y-60782749D03*
G04 #@! TD*
D22*
G04 #@! TO.P,U1,13*
G04 #@! TO.N,Net-(U1-Pad13)*
X211190545Y-79612749D03*
G04 #@! TO.P,U1,15*
G04 #@! TO.N,Net-(U1-Pad15)*
X211190545Y-84692749D03*
D23*
G04 #@! TO.P,U1,1*
G04 #@! TO.N,/serialDBG_CTS*
X211190545Y-49132749D03*
D24*
G04 #@! TO.P,U1,3*
G04 #@! TO.N,/serialDBG_TX*
X211190545Y-54212749D03*
D22*
G04 #@! TO.P,U1,19*
G04 #@! TO.N,Net-(U1-Pad19)*
X211190545Y-94852749D03*
G04 #@! TO.P,U1,10*
G04 #@! TO.N,Net-(U1-Pad10)*
X211190545Y-71992749D03*
G04 #@! TO.P,U1,23*
G04 #@! TO.N,Net-(U1-Pad23)*
X211190545Y-105012749D03*
G04 #@! TO.P,U1,16*
G04 #@! TO.N,Net-(U1-Pad16)*
X211190545Y-87232749D03*
G04 #@! TO.P,U1,6*
G04 #@! TO.N,Net-(U1-Pad6)*
X211190545Y-61832749D03*
G04 #@! TO.P,U1,25*
G04 #@! TO.N,Net-(U1-Pad25)*
X211190545Y-110092749D03*
D24*
G04 #@! TO.P,U1,2*
G04 #@! TO.N,/serialDBG_RX*
X211190545Y-51672749D03*
D22*
G04 #@! TO.P,U1,4*
G04 #@! TO.N,/serialDBG_DTR*
X211190545Y-56752749D03*
G04 #@! TO.P,U1,21*
G04 #@! TO.N,/serial_RX*
X211190545Y-99932749D03*
G04 #@! TO.P,U1,29*
G04 #@! TO.N,Net-(U1-Pad29)*
X211190545Y-120252749D03*
G04 #@! TO.P,U1,7*
G04 #@! TO.N,Net-(U1-Pad7)*
X211190545Y-64372749D03*
G04 #@! TO.P,U1,28*
G04 #@! TO.N,+3V3*
X211190545Y-117712749D03*
G04 #@! TO.P,U1,5*
G04 #@! TO.N,/serialDBG_halted*
X211190545Y-59292749D03*
G04 #@! TO.P,U1,11*
G04 #@! TO.N,Net-(U1-Pad11)*
X211190545Y-74532749D03*
G04 #@! TO.P,U1,26*
G04 #@! TO.N,Net-(U1-Pad26)*
X211190545Y-112632749D03*
G04 #@! TO.P,U1,14*
G04 #@! TO.N,Net-(U1-Pad14)*
X211190545Y-82152749D03*
G04 #@! TO.P,U1,9*
G04 #@! TO.N,Net-(U1-Pad9)*
X211190545Y-69452749D03*
G04 #@! TO.P,U1,18*
G04 #@! TO.N,Net-(U1-Pad18)*
X211190545Y-92312749D03*
G04 #@! TO.P,U1,17*
G04 #@! TO.N,Net-(U1-Pad17)*
X211190545Y-89772749D03*
G04 #@! TO.P,U1,12*
G04 #@! TO.N,Net-(U1-Pad12)*
X211190545Y-77072749D03*
G04 #@! TO.P,U1,22*
G04 #@! TO.N,/serial_TX*
X211190545Y-102472749D03*
G04 #@! TO.P,U1,20*
G04 #@! TO.N,Net-(U1-Pad20)*
X211190545Y-97392749D03*
G04 #@! TO.P,U1,8*
G04 #@! TO.N,Net-(U1-Pad8)*
X211190545Y-66912749D03*
G04 #@! TO.P,U1,27*
G04 #@! TO.N,GND*
X211190545Y-115172749D03*
G04 #@! TO.P,U1,24*
G04 #@! TO.N,Net-(U1-Pad24)*
X211190545Y-107552749D03*
G04 #@! TO.P,U1,46*
G04 #@! TO.N,Net-(U1-Pad46)*
X190870545Y-79612749D03*
G04 #@! TO.P,U1,44*
G04 #@! TO.N,Net-(U1-Pad44)*
X190870545Y-84692749D03*
D24*
G04 #@! TO.P,U1,58*
G04 #@! TO.N,/vga_red2*
X190870545Y-49132749D03*
D22*
G04 #@! TO.P,U1,56*
G04 #@! TO.N,/vga_red0*
X190870545Y-54212749D03*
G04 #@! TO.P,U1,40*
G04 #@! TO.N,Net-(U1-Pad40)*
X190870545Y-94852749D03*
G04 #@! TO.P,U1,49*
G04 #@! TO.N,/vga_hsync*
X190870545Y-71992749D03*
G04 #@! TO.P,U1,36*
G04 #@! TO.N,/usb_D+*
X190870545Y-105012749D03*
G04 #@! TO.P,U1,43*
G04 #@! TO.N,Net-(U1-Pad43)*
X190870545Y-87232749D03*
G04 #@! TO.P,U1,53*
G04 #@! TO.N,/vga_green0*
X190870545Y-61832749D03*
G04 #@! TO.P,U1,34*
G04 #@! TO.N,/teclado_hab*
X190870545Y-110092749D03*
G04 #@! TO.P,U1,57*
G04 #@! TO.N,/vga_red1*
X190870545Y-51672749D03*
G04 #@! TO.P,U1,55*
G04 #@! TO.N,/vga_green2*
X190870545Y-56752749D03*
G04 #@! TO.P,U1,38*
G04 #@! TO.N,Net-(U1-Pad38)*
X190870545Y-99932749D03*
G04 #@! TO.P,U1,30*
G04 #@! TO.N,+5V*
X190870545Y-120252749D03*
G04 #@! TO.P,U1,52*
G04 #@! TO.N,/vga_blue1*
X190870545Y-64372749D03*
G04 #@! TO.P,U1,31*
G04 #@! TO.N,GND*
X190870545Y-117712749D03*
G04 #@! TO.P,U1,54*
G04 #@! TO.N,/vga_green1*
X190870545Y-59292749D03*
G04 #@! TO.P,U1,48*
G04 #@! TO.N,Net-(U1-Pad48)*
X190870545Y-74532749D03*
G04 #@! TO.P,U1,33*
G04 #@! TO.N,Net-(U1-Pad33)*
X190870545Y-112632749D03*
G04 #@! TO.P,U1,45*
G04 #@! TO.N,Net-(U1-Pad45)*
X190870545Y-82152749D03*
G04 #@! TO.P,U1,50*
G04 #@! TO.N,/vga_vsync*
X190870545Y-69452749D03*
G04 #@! TO.P,U1,41*
G04 #@! TO.N,Net-(U1-Pad41)*
X190870545Y-92312749D03*
G04 #@! TO.P,U1,42*
G04 #@! TO.N,Net-(U1-Pad42)*
X190870545Y-89772749D03*
G04 #@! TO.P,U1,47*
G04 #@! TO.N,Net-(U1-Pad47)*
X190870545Y-77072749D03*
G04 #@! TO.P,U1,37*
G04 #@! TO.N,/fpga_P10*
X190870545Y-102472749D03*
G04 #@! TO.P,U1,39*
G04 #@! TO.N,GND*
X190870545Y-97392749D03*
G04 #@! TO.P,U1,51*
G04 #@! TO.N,/vga_blue0*
X190870545Y-66912749D03*
G04 #@! TO.P,U1,32*
G04 #@! TO.N,Net-(U1-Pad32)*
X190870545Y-115172749D03*
G04 #@! TO.P,U1,35*
G04 #@! TO.N,/usb_D-*
X190870545Y-107552749D03*
G04 #@! TD*
D20*
G04 #@! TO.P,D2,1*
G04 #@! TO.N,GND*
X229630545Y-68882749D03*
D21*
G04 #@! TO.P,D2,2*
G04 #@! TO.N,Net-(D2-Pad2)*
X227090545Y-68882749D03*
G04 #@! TD*
D14*
G04 #@! TO.P,R15,1*
G04 #@! TO.N,Net-(D2-Pad2)*
X217330545Y-75582749D03*
D13*
G04 #@! TO.P,R15,2*
G04 #@! TO.N,/serialDBG_halted*
X217330545Y-62882749D03*
G04 #@! TD*
D25*
G04 #@! TO.N,GND*
X194830545Y-119082749D02*
X193460545Y-117712749D01*
X194830545Y-122882749D02*
X194830545Y-119082749D01*
X163030545Y-114482749D02*
X172430545Y-123882749D01*
X172430545Y-123882749D02*
X193830545Y-123882749D01*
X193460545Y-117712749D02*
X190870545Y-117712749D01*
X193830545Y-123882749D02*
X194830545Y-122882749D01*
X192284758Y-97392749D02*
X195230545Y-100338536D01*
X190870545Y-97392749D02*
X192284758Y-97392749D01*
X195230545Y-115942749D02*
X193460545Y-117712749D01*
X195230545Y-100338536D02*
X195230545Y-115942749D01*
X193460545Y-117712749D02*
X203800545Y-117712749D01*
X206340545Y-115172749D02*
X211190545Y-115172749D01*
X203800545Y-117712749D02*
X206340545Y-115172749D01*
X181640545Y-97392749D02*
X179030545Y-94782749D01*
X190870545Y-97392749D02*
X181640545Y-97392749D01*
X181530545Y-92282749D02*
X179030545Y-94782749D01*
X183230545Y-92282749D02*
X181530545Y-92282749D01*
X179030545Y-94782749D02*
X168430545Y-94782749D01*
X151830545Y-46352749D02*
X151760545Y-46282749D01*
X153810545Y-69232749D02*
X151760545Y-71282749D01*
X153810545Y-63627749D02*
X153810545Y-69232749D01*
X151320545Y-113252749D02*
X151320545Y-100112749D01*
X151320545Y-100472749D02*
X154030545Y-103182749D01*
X151320545Y-100112749D02*
X151320545Y-100472749D01*
X166530545Y-94782749D02*
X168430545Y-94782749D01*
X154317093Y-94782749D02*
X166530545Y-94782749D01*
X151320545Y-97779297D02*
X154317093Y-94782749D01*
X151320545Y-100112749D02*
X151320545Y-97779297D01*
X173130545Y-45182749D02*
X170430545Y-42482749D01*
X155560545Y-42482749D02*
X151760545Y-46282749D01*
X170430545Y-42482749D02*
X155560545Y-42482749D01*
D26*
X151760545Y-62552749D02*
X151830545Y-62482749D01*
D25*
X151760545Y-71282749D02*
X151760545Y-62552749D01*
X168130545Y-77682749D02*
X173130545Y-82682749D01*
X173130545Y-82682749D02*
X173130545Y-45182749D01*
X151760545Y-71282749D02*
X158160545Y-77682749D01*
X158160545Y-77682749D02*
X168130545Y-77682749D01*
X173130545Y-87082749D02*
X173130545Y-83682749D01*
X167330545Y-92882749D02*
X173130545Y-87082749D01*
X167330545Y-94782749D02*
X167330545Y-92882749D01*
X173130545Y-83682749D02*
X173130545Y-82682749D01*
D26*
X231330545Y-68882749D02*
X233830545Y-66382749D01*
X233830545Y-66382749D02*
X233830545Y-64082749D01*
X233830545Y-64082749D02*
X233830545Y-52282749D01*
X229630545Y-68882749D02*
X231330545Y-68882749D01*
D25*
X233830545Y-97682749D02*
X233830545Y-52282749D01*
X233830545Y-52282749D02*
X233830545Y-49982749D01*
X231930545Y-48082749D02*
X229630545Y-48082749D01*
X233830545Y-49982749D02*
X231930545Y-48082749D01*
X233630545Y-66782749D02*
X233830545Y-66782749D01*
X229630545Y-68882749D02*
X231530545Y-68882749D01*
D26*
X233830545Y-97682749D02*
X233830545Y-66782749D01*
D25*
X231530545Y-68882749D02*
X233630545Y-66782749D01*
D26*
X233830545Y-66782749D02*
X233830545Y-64082749D01*
D25*
X229630545Y-104982749D02*
X229630545Y-112082749D01*
X226540545Y-115172749D02*
X211190545Y-115172749D01*
X229630545Y-112082749D02*
X226540545Y-115172749D01*
X151890545Y-112682749D02*
X151320545Y-113252749D01*
X151830545Y-57902749D02*
X151830545Y-46352749D01*
X233830545Y-100782749D02*
X233830545Y-97682749D01*
X153810545Y-63627749D02*
X151830545Y-62482749D01*
G04 #@! TO.N,+5V*
X190870545Y-120252749D02*
X189300545Y-120252749D01*
X189300545Y-120252749D02*
X183330545Y-114282749D01*
X183330545Y-114282749D02*
X169430545Y-114282749D01*
X165330545Y-110182749D02*
X154030545Y-110182749D01*
X169430545Y-114282749D02*
X165330545Y-110182749D01*
D26*
G04 #@! TO.N,Net-(D1-Pad2)*
X174270545Y-97322749D02*
X174330545Y-97382749D01*
X167330545Y-97322749D02*
X174270545Y-97322749D01*
G04 #@! TO.N,Net-(D2-Pad2)*
X217330545Y-73482749D02*
X217330545Y-75582749D01*
X221930545Y-68882749D02*
X217330545Y-73482749D01*
X227090545Y-68882749D02*
X221930545Y-68882749D01*
G04 #@! TO.N,/usb_D-*
X154170545Y-107542749D02*
X154030545Y-107682749D01*
X190870545Y-107552749D02*
X178180545Y-107552749D01*
X178180545Y-107552749D02*
X178170545Y-107542749D01*
X178170545Y-107542749D02*
X156030545Y-107542749D01*
X155890545Y-107682749D02*
X154030545Y-107682749D01*
X156030545Y-107542749D02*
X155890545Y-107682749D01*
G04 #@! TO.N,/usb_D+*
X183260545Y-105012749D02*
X183250545Y-105002749D01*
X190870545Y-105012749D02*
X183260545Y-105012749D01*
X157170545Y-105682749D02*
X154030545Y-105682749D01*
X157850545Y-105002749D02*
X157170545Y-105682749D01*
X183250545Y-105002749D02*
X157850545Y-105002749D01*
G04 #@! TO.N,/red*
X166815545Y-54467749D02*
X166830545Y-54482749D01*
X166830545Y-54482749D02*
X166830545Y-50482749D01*
X166830545Y-46482749D02*
X166830545Y-50482749D01*
X153825545Y-54482749D02*
X153810545Y-54467749D01*
X166830545Y-54482749D02*
X153825545Y-54482749D01*
G04 #@! TO.N,/green*
X166830545Y-66482749D02*
X166830545Y-58482749D01*
X159530545Y-56757749D02*
X153810545Y-56757749D01*
X162205545Y-56757749D02*
X159530545Y-56757749D01*
X163930545Y-58482749D02*
X162205545Y-56757749D01*
X166830545Y-58482749D02*
X163930545Y-58482749D01*
G04 #@! TO.N,/blue*
X166830545Y-74482749D02*
X166830545Y-70482749D01*
X166830545Y-70482749D02*
X165133489Y-70482749D01*
X165133489Y-70482749D02*
X163730545Y-69079805D01*
X159395545Y-59047749D02*
X157530545Y-59047749D01*
X163730545Y-69079805D02*
X163730545Y-63382749D01*
X157530545Y-59047749D02*
X153810545Y-59047749D01*
X163730545Y-63382749D02*
X159395545Y-59047749D01*
G04 #@! TO.N,/vsync*
X148530545Y-61337749D02*
X149850545Y-61337749D01*
X166830545Y-81982749D02*
X156330545Y-81982749D01*
X156330545Y-81982749D02*
X147830545Y-73482749D01*
X147830545Y-62037749D02*
X148530545Y-61337749D01*
X147830545Y-73482749D02*
X147830545Y-62037749D01*
G04 #@! TO.N,/hsync*
X166830545Y-86082749D02*
X157430545Y-86082749D01*
X146330545Y-60847749D02*
X148130545Y-59047749D01*
X146330545Y-74982749D02*
X146330545Y-60847749D01*
X157430545Y-86082749D02*
X146330545Y-74982749D01*
X148130545Y-59047749D02*
X149850545Y-59047749D01*
G04 #@! TO.N,/serialDBG_DTR*
X229630545Y-60782749D02*
X225430545Y-60782749D01*
X221400545Y-56752749D02*
X211190545Y-56752749D01*
X225430545Y-60782749D02*
X221400545Y-56752749D01*
G04 #@! TO.N,/serialDBG_RX*
X229630545Y-55702749D02*
X227750545Y-55702749D01*
X223720545Y-51672749D02*
X211190545Y-51672749D01*
X227750545Y-55702749D02*
X223720545Y-51672749D01*
G04 #@! TO.N,/serialDBG_TX*
X229630545Y-58242749D02*
X226690545Y-58242749D01*
X222660545Y-54212749D02*
X211190545Y-54212749D01*
X226690545Y-58242749D02*
X222660545Y-54212749D01*
G04 #@! TO.N,/serialDBG_CTS*
X229630545Y-50622749D02*
X228070545Y-50622749D01*
X226580545Y-49132749D02*
X211190545Y-49132749D01*
X228070545Y-50622749D02*
X226580545Y-49132749D01*
G04 #@! TO.N,/serial_RX*
X211220545Y-99902749D02*
X211190545Y-99932749D01*
X229630545Y-99902749D02*
X211220545Y-99902749D01*
G04 #@! TO.N,/serial_TX*
X229600545Y-102472749D02*
X229630545Y-102442749D01*
X211190545Y-102472749D02*
X229600545Y-102472749D01*
G04 #@! TO.N,/vga_red2*
X188220545Y-46482749D02*
X179530545Y-46482749D01*
X190870545Y-49132749D02*
X188220545Y-46482749D01*
G04 #@! TO.N,/vga_red1*
X189456332Y-51672749D02*
X188266332Y-50482749D01*
X188266332Y-50482749D02*
X179530545Y-50482749D01*
X190870545Y-51672749D02*
X189456332Y-51672749D01*
G04 #@! TO.N,/vga_red0*
X179800545Y-54212749D02*
X179530545Y-54482749D01*
X190870545Y-54212749D02*
X179800545Y-54212749D01*
G04 #@! TO.N,/vga_green2*
X181260545Y-56752749D02*
X179530545Y-58482749D01*
X190870545Y-56752749D02*
X181260545Y-56752749D01*
G04 #@! TO.N,/vga_green1*
X182720545Y-59292749D02*
X179530545Y-62482749D01*
X190870545Y-59292749D02*
X182720545Y-59292749D01*
G04 #@! TO.N,/vga_green0*
X184180545Y-61832749D02*
X179530545Y-66482749D01*
X190870545Y-61832749D02*
X184180545Y-61832749D01*
G04 #@! TO.N,/vga_blue1*
X185640545Y-64372749D02*
X179530545Y-70482749D01*
X190870545Y-64372749D02*
X185640545Y-64372749D01*
G04 #@! TO.N,/vga_blue0*
X187100545Y-66912749D02*
X179530545Y-74482749D01*
X190870545Y-66912749D02*
X187100545Y-66912749D01*
G04 #@! TO.N,/vga_hsync*
X190020545Y-71992749D02*
X190870545Y-71992749D01*
X179530545Y-86082749D02*
X182630545Y-86082749D01*
X187030545Y-81682749D02*
X187030545Y-74982749D01*
X182630545Y-86082749D02*
X187030545Y-81682749D01*
X187030545Y-74982749D02*
X190020545Y-71992749D01*
G04 #@! TO.N,/vga_vsync*
X190870545Y-69452749D02*
X188560545Y-69452749D01*
X179530545Y-81982749D02*
X181730545Y-81982749D01*
X185030545Y-78682749D02*
X185030545Y-72982749D01*
X181730545Y-81982749D02*
X185030545Y-78682749D01*
X188560545Y-69452749D02*
X185030545Y-72982749D01*
G04 #@! TO.N,/teclado_hab*
X190870545Y-110092749D02*
X174330545Y-110082749D01*
G04 #@! TO.N,/serialDBG_halted*
X213740545Y-59292749D02*
X217330545Y-62882749D01*
X211190545Y-59292749D02*
X213740545Y-59292749D01*
G04 #@! TD*
D27*
G04 #@! TO.N,GND*
G36*
X241330545Y-125982749D02*
X142730545Y-125982749D01*
X142730545Y-114873821D01*
X149917262Y-114873821D01*
X150099749Y-115195031D01*
X150935956Y-115514363D01*
X151830713Y-115489384D01*
X152541341Y-115195031D01*
X152723828Y-114873821D01*
X151320545Y-113470538D01*
X149917262Y-114873821D01*
X142730545Y-114873821D01*
X142730545Y-112868160D01*
X149058931Y-112868160D01*
X149083910Y-113762917D01*
X149378263Y-114473545D01*
X149699473Y-114656032D01*
X151102756Y-113252749D01*
X151538334Y-113252749D01*
X152941617Y-114656032D01*
X153262827Y-114473545D01*
X153562684Y-113688333D01*
X162242750Y-113688333D01*
X162321010Y-113921341D01*
X162849009Y-114098587D01*
X163404645Y-114060284D01*
X163740080Y-113921341D01*
X163818340Y-113688333D01*
X163030545Y-112900538D01*
X162242750Y-113688333D01*
X153562684Y-113688333D01*
X153582159Y-113637338D01*
X153557180Y-112742581D01*
X153457202Y-112501213D01*
X161614707Y-112501213D01*
X161653010Y-113056849D01*
X161791953Y-113392284D01*
X162024961Y-113470544D01*
X162812756Y-112682749D01*
X163248334Y-112682749D01*
X164036129Y-113470544D01*
X164269137Y-113392284D01*
X164446383Y-112864285D01*
X164408080Y-112308649D01*
X164269137Y-111973214D01*
X164036129Y-111894954D01*
X163248334Y-112682749D01*
X162812756Y-112682749D01*
X162024961Y-111894954D01*
X161791953Y-111973214D01*
X161614707Y-112501213D01*
X153457202Y-112501213D01*
X153262827Y-112031953D01*
X152941617Y-111849466D01*
X151538334Y-113252749D01*
X151102756Y-113252749D01*
X149699473Y-111849466D01*
X149378263Y-112031953D01*
X149058931Y-112868160D01*
X142730545Y-112868160D01*
X142730545Y-111631677D01*
X149917262Y-111631677D01*
X151320545Y-113034960D01*
X152723828Y-111631677D01*
X152541341Y-111310467D01*
X151705134Y-110991135D01*
X150810377Y-111016114D01*
X150099749Y-111310467D01*
X149917262Y-111631677D01*
X142730545Y-111631677D01*
X142730545Y-109874435D01*
X152480545Y-109874435D01*
X152480545Y-110491063D01*
X152716519Y-111060753D01*
X153152541Y-111496775D01*
X153722231Y-111732749D01*
X154338859Y-111732749D01*
X154908549Y-111496775D01*
X155122575Y-111282749D01*
X161709386Y-111282749D01*
X161797970Y-111415324D01*
X161996437Y-111547936D01*
X162230545Y-111594503D01*
X162270514Y-111594503D01*
X162242750Y-111677165D01*
X163030545Y-112464960D01*
X163818340Y-111677165D01*
X163790576Y-111594503D01*
X163830545Y-111594503D01*
X164064653Y-111547936D01*
X164263120Y-111415324D01*
X164351704Y-111282749D01*
X164874911Y-111282749D01*
X168576117Y-114983955D01*
X168637489Y-115075805D01*
X169001346Y-115318926D01*
X169322206Y-115382749D01*
X169430545Y-115404299D01*
X169538884Y-115382749D01*
X182874911Y-115382749D01*
X188446119Y-120953958D01*
X188507489Y-121045805D01*
X188871346Y-121288926D01*
X189300545Y-121374299D01*
X189408884Y-121352749D01*
X189681239Y-121352749D01*
X189717010Y-121406284D01*
X190246256Y-121759915D01*
X190712963Y-121852749D01*
X191028127Y-121852749D01*
X191494834Y-121759915D01*
X192024080Y-121406284D01*
X192377711Y-120877038D01*
X192501890Y-120252749D01*
X192377711Y-119628460D01*
X192024080Y-119099214D01*
X191844030Y-118978908D01*
X192249491Y-118524257D01*
X192419419Y-118113986D01*
X192312344Y-117866749D01*
X191024545Y-117866749D01*
X191024545Y-117886749D01*
X190716545Y-117886749D01*
X190716545Y-117866749D01*
X189428746Y-117866749D01*
X189321671Y-118113986D01*
X189491599Y-118524257D01*
X189897060Y-118978908D01*
X189717010Y-119099214D01*
X189711256Y-119107825D01*
X188316180Y-117712749D01*
X209559200Y-117712749D01*
X209683379Y-118337038D01*
X210037010Y-118866284D01*
X210211312Y-118982749D01*
X210037010Y-119099214D01*
X209683379Y-119628460D01*
X209559200Y-120252749D01*
X209683379Y-120877038D01*
X210037010Y-121406284D01*
X210566256Y-121759915D01*
X211032963Y-121852749D01*
X211348127Y-121852749D01*
X211814834Y-121759915D01*
X212344080Y-121406284D01*
X212697711Y-120877038D01*
X212821890Y-120252749D01*
X212697711Y-119628460D01*
X212344080Y-119099214D01*
X212169778Y-118982749D01*
X212344080Y-118866284D01*
X212697711Y-118337038D01*
X212821890Y-117712749D01*
X212697711Y-117088460D01*
X212344080Y-116559214D01*
X212164030Y-116438908D01*
X212569491Y-115984257D01*
X212739419Y-115573986D01*
X212632344Y-115326749D01*
X211344545Y-115326749D01*
X211344545Y-115346749D01*
X211036545Y-115346749D01*
X211036545Y-115326749D01*
X209748746Y-115326749D01*
X209641671Y-115573986D01*
X209811599Y-115984257D01*
X210217060Y-116438908D01*
X210037010Y-116559214D01*
X209683379Y-117088460D01*
X209559200Y-117712749D01*
X188316180Y-117712749D01*
X184184973Y-113581543D01*
X184123601Y-113489693D01*
X183759744Y-113246572D01*
X183438884Y-113182749D01*
X183330545Y-113161199D01*
X183222206Y-113182749D01*
X169886179Y-113182749D01*
X166184973Y-109481543D01*
X166123601Y-109389693D01*
X165759744Y-109146572D01*
X165438884Y-109082749D01*
X165330545Y-109061199D01*
X165222206Y-109082749D01*
X164351704Y-109082749D01*
X164263120Y-108950174D01*
X164064653Y-108817562D01*
X163830545Y-108770995D01*
X162230545Y-108770995D01*
X161996437Y-108817562D01*
X161797970Y-108950174D01*
X161709386Y-109082749D01*
X155122575Y-109082749D01*
X154908549Y-108868723D01*
X154899096Y-108864807D01*
X155081154Y-108682749D01*
X155792055Y-108682749D01*
X155890545Y-108702340D01*
X155989035Y-108682749D01*
X156280726Y-108624728D01*
X156403417Y-108542749D01*
X173395403Y-108542749D01*
X173032817Y-108785021D01*
X172634982Y-109380424D01*
X172495281Y-110082749D01*
X172634982Y-110785074D01*
X173032817Y-111380477D01*
X173628220Y-111778312D01*
X174153261Y-111882749D01*
X174507829Y-111882749D01*
X175032870Y-111778312D01*
X175628273Y-111380477D01*
X175826604Y-111083653D01*
X189613913Y-111091989D01*
X189717010Y-111246284D01*
X189891312Y-111362749D01*
X189717010Y-111479214D01*
X189363379Y-112008460D01*
X189239200Y-112632749D01*
X189363379Y-113257038D01*
X189717010Y-113786284D01*
X189891312Y-113902749D01*
X189717010Y-114019214D01*
X189363379Y-114548460D01*
X189239200Y-115172749D01*
X189363379Y-115797038D01*
X189717010Y-116326284D01*
X189897060Y-116446590D01*
X189491599Y-116901241D01*
X189321671Y-117311512D01*
X189428746Y-117558749D01*
X190716545Y-117558749D01*
X190716545Y-117538749D01*
X191024545Y-117538749D01*
X191024545Y-117558749D01*
X192312344Y-117558749D01*
X192419419Y-117311512D01*
X192249491Y-116901241D01*
X191844030Y-116446590D01*
X192024080Y-116326284D01*
X192377711Y-115797038D01*
X192501890Y-115172749D01*
X192377711Y-114548460D01*
X192024080Y-114019214D01*
X191849778Y-113902749D01*
X192024080Y-113786284D01*
X192377711Y-113257038D01*
X192501890Y-112632749D01*
X192377711Y-112008460D01*
X192024080Y-111479214D01*
X191849778Y-111362749D01*
X192024080Y-111246284D01*
X192377711Y-110717038D01*
X192501890Y-110092749D01*
X192377711Y-109468460D01*
X192024080Y-108939214D01*
X191849778Y-108822749D01*
X192024080Y-108706284D01*
X192377711Y-108177038D01*
X192501890Y-107552749D01*
X192377711Y-106928460D01*
X192024080Y-106399214D01*
X191849778Y-106282749D01*
X192024080Y-106166284D01*
X192377711Y-105637038D01*
X192501890Y-105012749D01*
X192377711Y-104388460D01*
X192024080Y-103859214D01*
X191849778Y-103742749D01*
X192024080Y-103626284D01*
X192377711Y-103097038D01*
X192501890Y-102472749D01*
X192377711Y-101848460D01*
X192024080Y-101319214D01*
X191849778Y-101202749D01*
X192024080Y-101086284D01*
X192377711Y-100557038D01*
X192501890Y-99932749D01*
X192377711Y-99308460D01*
X192024080Y-98779214D01*
X191844030Y-98658908D01*
X192249491Y-98204257D01*
X192419419Y-97793986D01*
X192312344Y-97546749D01*
X191024545Y-97546749D01*
X191024545Y-97566749D01*
X190716545Y-97566749D01*
X190716545Y-97546749D01*
X189428746Y-97546749D01*
X189321671Y-97793986D01*
X189491599Y-98204257D01*
X189897060Y-98658908D01*
X189717010Y-98779214D01*
X189363379Y-99308460D01*
X189239200Y-99932749D01*
X189363379Y-100557038D01*
X189717010Y-101086284D01*
X189891312Y-101202749D01*
X189717010Y-101319214D01*
X189363379Y-101848460D01*
X189239200Y-102472749D01*
X189363379Y-103097038D01*
X189717010Y-103626284D01*
X189891312Y-103742749D01*
X189717010Y-103859214D01*
X189614421Y-104012749D01*
X184747254Y-104012749D01*
X184528273Y-103685021D01*
X183932870Y-103287186D01*
X183407829Y-103182749D01*
X183053261Y-103182749D01*
X182528220Y-103287186D01*
X181932817Y-103685021D01*
X181720518Y-104002749D01*
X157949034Y-104002749D01*
X157850544Y-103983158D01*
X157460364Y-104060770D01*
X157129585Y-104281789D01*
X157073792Y-104365289D01*
X156756333Y-104682749D01*
X155081154Y-104682749D01*
X154862303Y-104463898D01*
X154927193Y-104297186D01*
X154030545Y-103400538D01*
X153133897Y-104297186D01*
X153198787Y-104463898D01*
X152801295Y-104861390D01*
X152580545Y-105394326D01*
X152580545Y-105971172D01*
X152801295Y-106504108D01*
X152979936Y-106682749D01*
X152801295Y-106861390D01*
X152580545Y-107394326D01*
X152580545Y-107971172D01*
X152801295Y-108504108D01*
X153161994Y-108864807D01*
X153152541Y-108868723D01*
X152716519Y-109304745D01*
X152480545Y-109874435D01*
X142730545Y-109874435D01*
X142730545Y-102965321D01*
X152465207Y-102965321D01*
X152501156Y-103580900D01*
X152667568Y-103982656D01*
X152916108Y-104079397D01*
X153812756Y-103182749D01*
X154248334Y-103182749D01*
X155144982Y-104079397D01*
X155393522Y-103982656D01*
X155595883Y-103400177D01*
X155559934Y-102784598D01*
X155393522Y-102382842D01*
X155144982Y-102286101D01*
X154248334Y-103182749D01*
X153812756Y-103182749D01*
X152916108Y-102286101D01*
X152667568Y-102382842D01*
X152465207Y-102965321D01*
X142730545Y-102965321D01*
X142730545Y-101733821D01*
X149917262Y-101733821D01*
X150099749Y-102055031D01*
X150935956Y-102374363D01*
X151830713Y-102349384D01*
X152509277Y-102068312D01*
X153133897Y-102068312D01*
X154030545Y-102964960D01*
X154927193Y-102068312D01*
X154830452Y-101819772D01*
X154247973Y-101617411D01*
X153632394Y-101653360D01*
X153230638Y-101819772D01*
X153133897Y-102068312D01*
X152509277Y-102068312D01*
X152541341Y-102055031D01*
X152723828Y-101733821D01*
X151320545Y-100330538D01*
X149917262Y-101733821D01*
X142730545Y-101733821D01*
X142730545Y-99728160D01*
X149058931Y-99728160D01*
X149083910Y-100622917D01*
X149378263Y-101333545D01*
X149699473Y-101516032D01*
X151102756Y-100112749D01*
X151538334Y-100112749D01*
X152941617Y-101516032D01*
X153262827Y-101333545D01*
X153582159Y-100497338D01*
X153557180Y-99602581D01*
X153262827Y-98891953D01*
X152941617Y-98709466D01*
X151538334Y-100112749D01*
X151102756Y-100112749D01*
X149699473Y-98709466D01*
X149378263Y-98891953D01*
X149058931Y-99728160D01*
X142730545Y-99728160D01*
X142730545Y-98491677D01*
X149917262Y-98491677D01*
X151320545Y-99894960D01*
X152723828Y-98491677D01*
X152541341Y-98170467D01*
X151705134Y-97851135D01*
X150810377Y-97876114D01*
X150099749Y-98170467D01*
X149917262Y-98491677D01*
X142730545Y-98491677D01*
X142730545Y-95086749D01*
X165830545Y-95086749D01*
X165830545Y-95802096D01*
X165921889Y-96022621D01*
X166090672Y-96191404D01*
X166267376Y-96264597D01*
X166058906Y-96473067D01*
X165830545Y-97024380D01*
X165830545Y-97621118D01*
X166058906Y-98172431D01*
X166480863Y-98594388D01*
X167032176Y-98822749D01*
X167628914Y-98822749D01*
X168180227Y-98594388D01*
X168451866Y-98322749D01*
X172771600Y-98322749D01*
X172804579Y-98402367D01*
X173310927Y-98908715D01*
X173972503Y-99182749D01*
X174688587Y-99182749D01*
X175350163Y-98908715D01*
X175856511Y-98402367D01*
X176130545Y-97740791D01*
X176130545Y-97024707D01*
X175856511Y-96363131D01*
X175571699Y-96078319D01*
X177952764Y-96078319D01*
X178080197Y-96352791D01*
X178753367Y-96596961D01*
X179468735Y-96564934D01*
X179980893Y-96352791D01*
X180108326Y-96078319D01*
X179030545Y-95000538D01*
X177952764Y-96078319D01*
X175571699Y-96078319D01*
X175350163Y-95856783D01*
X174688587Y-95582749D01*
X173972503Y-95582749D01*
X173310927Y-95856783D01*
X172844961Y-96322749D01*
X168451866Y-96322749D01*
X168393714Y-96264597D01*
X168570418Y-96191404D01*
X168739201Y-96022621D01*
X168830545Y-95802096D01*
X168830545Y-95086749D01*
X168680545Y-94936749D01*
X167484545Y-94936749D01*
X167484545Y-94956749D01*
X167176545Y-94956749D01*
X167176545Y-94936749D01*
X165980545Y-94936749D01*
X165830545Y-95086749D01*
X142730545Y-95086749D01*
X142730545Y-93763402D01*
X165830545Y-93763402D01*
X165830545Y-94478749D01*
X165980545Y-94628749D01*
X167176545Y-94628749D01*
X167176545Y-93432749D01*
X167484545Y-93432749D01*
X167484545Y-94628749D01*
X168680545Y-94628749D01*
X168803723Y-94505571D01*
X177216333Y-94505571D01*
X177248360Y-95220939D01*
X177460503Y-95733097D01*
X177734975Y-95860530D01*
X178812756Y-94782749D01*
X179248334Y-94782749D01*
X180326115Y-95860530D01*
X180600587Y-95733097D01*
X180844757Y-95059927D01*
X180812730Y-94344559D01*
X180600587Y-93832401D01*
X180326115Y-93704968D01*
X179248334Y-94782749D01*
X178812756Y-94782749D01*
X177734975Y-93704968D01*
X177460503Y-93832401D01*
X177216333Y-94505571D01*
X168803723Y-94505571D01*
X168830545Y-94478749D01*
X168830545Y-93763402D01*
X168739201Y-93542877D01*
X168683503Y-93487179D01*
X177952764Y-93487179D01*
X179030545Y-94564960D01*
X180017186Y-93578319D01*
X182152764Y-93578319D01*
X182280197Y-93852791D01*
X182953367Y-94096961D01*
X183668735Y-94064934D01*
X184180893Y-93852791D01*
X184308326Y-93578319D01*
X183230545Y-92500538D01*
X182152764Y-93578319D01*
X180017186Y-93578319D01*
X180108326Y-93487179D01*
X179980893Y-93212707D01*
X179307723Y-92968537D01*
X178592355Y-93000564D01*
X178080197Y-93212707D01*
X177952764Y-93487179D01*
X168683503Y-93487179D01*
X168570418Y-93374094D01*
X168349893Y-93282749D01*
X167634545Y-93282749D01*
X167484545Y-93432749D01*
X167176545Y-93432749D01*
X167026545Y-93282749D01*
X166311197Y-93282749D01*
X166090672Y-93374094D01*
X165921889Y-93542877D01*
X165830545Y-93763402D01*
X142730545Y-93763402D01*
X142730545Y-92005571D01*
X181416333Y-92005571D01*
X181448360Y-92720939D01*
X181660503Y-93233097D01*
X181934975Y-93360530D01*
X183012756Y-92282749D01*
X183448334Y-92282749D01*
X184526115Y-93360530D01*
X184800587Y-93233097D01*
X185044757Y-92559927D01*
X185012730Y-91844559D01*
X184800587Y-91332401D01*
X184526115Y-91204968D01*
X183448334Y-92282749D01*
X183012756Y-92282749D01*
X181934975Y-91204968D01*
X181660503Y-91332401D01*
X181416333Y-92005571D01*
X142730545Y-92005571D01*
X142730545Y-90987179D01*
X182152764Y-90987179D01*
X183230545Y-92064960D01*
X184308326Y-90987179D01*
X184180893Y-90712707D01*
X183507723Y-90468537D01*
X182792355Y-90500564D01*
X182280197Y-90712707D01*
X182152764Y-90987179D01*
X142730545Y-90987179D01*
X142730545Y-60847749D01*
X145310954Y-60847749D01*
X145330546Y-60946244D01*
X145330545Y-74884259D01*
X145310954Y-74982749D01*
X145351199Y-75185074D01*
X145388566Y-75372929D01*
X145609585Y-75703709D01*
X145693087Y-75759503D01*
X156653795Y-86720213D01*
X156709585Y-86803709D01*
X157040364Y-87024728D01*
X157332055Y-87082749D01*
X157430545Y-87102340D01*
X157529035Y-87082749D01*
X165333882Y-87082749D01*
X165532817Y-87380477D01*
X166128220Y-87778312D01*
X166653261Y-87882749D01*
X167007829Y-87882749D01*
X167532870Y-87778312D01*
X168128273Y-87380477D01*
X168526108Y-86785074D01*
X168665809Y-86082749D01*
X168526108Y-85380424D01*
X168128273Y-84785021D01*
X167532870Y-84387186D01*
X167007829Y-84282749D01*
X166653261Y-84282749D01*
X166128220Y-84387186D01*
X165532817Y-84785021D01*
X165333882Y-85082749D01*
X157844759Y-85082749D01*
X147330545Y-74568537D01*
X147330545Y-74396961D01*
X155553795Y-82620213D01*
X155609585Y-82703709D01*
X155719330Y-82777038D01*
X155940364Y-82924728D01*
X156330544Y-83002340D01*
X156429034Y-82982749D01*
X165333882Y-82982749D01*
X165532817Y-83280477D01*
X166128220Y-83678312D01*
X166653261Y-83782749D01*
X167007829Y-83782749D01*
X167532870Y-83678312D01*
X168128273Y-83280477D01*
X168526108Y-82685074D01*
X168665809Y-81982749D01*
X168526108Y-81280424D01*
X168128273Y-80685021D01*
X167532870Y-80287186D01*
X167007829Y-80182749D01*
X166653261Y-80182749D01*
X166128220Y-80287186D01*
X165532817Y-80685021D01*
X165333882Y-80982749D01*
X156744759Y-80982749D01*
X148918726Y-73156717D01*
X150104366Y-73156717D01*
X150329584Y-73514300D01*
X151292487Y-73892038D01*
X152326648Y-73872536D01*
X153191506Y-73514300D01*
X153416724Y-73156717D01*
X151760545Y-71500538D01*
X150104366Y-73156717D01*
X148918726Y-73156717D01*
X148830545Y-73068537D01*
X148830545Y-70814691D01*
X149151256Y-70814691D01*
X149170758Y-71848852D01*
X149528994Y-72713710D01*
X149886577Y-72938928D01*
X151542756Y-71282749D01*
X151978334Y-71282749D01*
X153634513Y-72938928D01*
X153992096Y-72713710D01*
X154369834Y-71750807D01*
X154350332Y-70716646D01*
X153992096Y-69851788D01*
X153634513Y-69626570D01*
X151978334Y-71282749D01*
X151542756Y-71282749D01*
X149886577Y-69626570D01*
X149528994Y-69851788D01*
X149151256Y-70814691D01*
X148830545Y-70814691D01*
X148830545Y-69408781D01*
X150104366Y-69408781D01*
X151760545Y-71064960D01*
X153416724Y-69408781D01*
X153191506Y-69051198D01*
X152228603Y-68673460D01*
X151194442Y-68692962D01*
X150329584Y-69051198D01*
X150104366Y-69408781D01*
X148830545Y-69408781D01*
X148830545Y-64587649D01*
X149057508Y-64814612D01*
X149572068Y-65027749D01*
X150129022Y-65027749D01*
X150643582Y-64814612D01*
X150824861Y-64633333D01*
X153022750Y-64633333D01*
X153101010Y-64866341D01*
X153629009Y-65043587D01*
X154184645Y-65005284D01*
X154520080Y-64866341D01*
X154598340Y-64633333D01*
X153810545Y-63845538D01*
X153022750Y-64633333D01*
X150824861Y-64633333D01*
X151037408Y-64420786D01*
X151250545Y-63906226D01*
X151250545Y-63764825D01*
X151649009Y-63898587D01*
X152204645Y-63860284D01*
X152417182Y-63772247D01*
X152433010Y-64001849D01*
X152571953Y-64337284D01*
X152804961Y-64415544D01*
X153592756Y-63627749D01*
X154028334Y-63627749D01*
X154816129Y-64415544D01*
X155049137Y-64337284D01*
X155226383Y-63809285D01*
X155188080Y-63253649D01*
X155049137Y-62918214D01*
X154816129Y-62839954D01*
X154028334Y-63627749D01*
X153592756Y-63627749D01*
X153578614Y-63613607D01*
X153796403Y-63395818D01*
X153810545Y-63409960D01*
X154598340Y-62622165D01*
X154570217Y-62538432D01*
X154603582Y-62524612D01*
X154997408Y-62130786D01*
X155210545Y-61616226D01*
X155210545Y-61059272D01*
X154997408Y-60544712D01*
X154645445Y-60192749D01*
X154790445Y-60047749D01*
X158981333Y-60047749D01*
X162730546Y-63796963D01*
X162730545Y-68981315D01*
X162710954Y-69079805D01*
X162730545Y-69178294D01*
X162788566Y-69469985D01*
X163009585Y-69800765D01*
X163093087Y-69856559D01*
X164356738Y-71120212D01*
X164412529Y-71203709D01*
X164659097Y-71368460D01*
X164743308Y-71424728D01*
X165133488Y-71502340D01*
X165231978Y-71482749D01*
X165333882Y-71482749D01*
X165532817Y-71780477D01*
X165830546Y-71979413D01*
X165830545Y-72986086D01*
X165532817Y-73185021D01*
X165134982Y-73780424D01*
X164995281Y-74482749D01*
X165134982Y-75185074D01*
X165532817Y-75780477D01*
X166128220Y-76178312D01*
X166653261Y-76282749D01*
X167007829Y-76282749D01*
X167532870Y-76178312D01*
X168128273Y-75780477D01*
X168526108Y-75185074D01*
X168665809Y-74482749D01*
X168526108Y-73780424D01*
X168128273Y-73185021D01*
X167830545Y-72986086D01*
X167830545Y-71979412D01*
X168128273Y-71780477D01*
X168526108Y-71185074D01*
X168665809Y-70482749D01*
X168526108Y-69780424D01*
X168128273Y-69185021D01*
X167532870Y-68787186D01*
X167007829Y-68682749D01*
X166653261Y-68682749D01*
X166128220Y-68787186D01*
X165532817Y-69185021D01*
X165419526Y-69354573D01*
X164730545Y-68665593D01*
X164730545Y-63481239D01*
X164750136Y-63382749D01*
X164672524Y-62992569D01*
X164672524Y-62992568D01*
X164451505Y-62661789D01*
X164368006Y-62605997D01*
X160172299Y-58410291D01*
X160116505Y-58326789D01*
X159785726Y-58105770D01*
X159494035Y-58047749D01*
X159395545Y-58028158D01*
X159297055Y-58047749D01*
X154790445Y-58047749D01*
X154645445Y-57902749D01*
X154790445Y-57757749D01*
X161791333Y-57757749D01*
X163153794Y-59120212D01*
X163209585Y-59203709D01*
X163392945Y-59326226D01*
X163540364Y-59424728D01*
X163930544Y-59502340D01*
X164029034Y-59482749D01*
X165333882Y-59482749D01*
X165532817Y-59780477D01*
X165830546Y-59979413D01*
X165830546Y-60986085D01*
X165532817Y-61185021D01*
X165134982Y-61780424D01*
X164995281Y-62482749D01*
X165134982Y-63185074D01*
X165532817Y-63780477D01*
X165830545Y-63979412D01*
X165830545Y-64986086D01*
X165532817Y-65185021D01*
X165134982Y-65780424D01*
X164995281Y-66482749D01*
X165134982Y-67185074D01*
X165532817Y-67780477D01*
X166128220Y-68178312D01*
X166653261Y-68282749D01*
X167007829Y-68282749D01*
X167532870Y-68178312D01*
X168128273Y-67780477D01*
X168526108Y-67185074D01*
X168665809Y-66482749D01*
X168526108Y-65780424D01*
X168128273Y-65185021D01*
X167830545Y-64986086D01*
X167830545Y-63979412D01*
X168128273Y-63780477D01*
X168526108Y-63185074D01*
X168665809Y-62482749D01*
X168526108Y-61780424D01*
X168128273Y-61185021D01*
X167830545Y-60986086D01*
X167830545Y-59979412D01*
X168128273Y-59780477D01*
X168526108Y-59185074D01*
X168665809Y-58482749D01*
X168526108Y-57780424D01*
X168128273Y-57185021D01*
X167532870Y-56787186D01*
X167007829Y-56682749D01*
X166653261Y-56682749D01*
X166128220Y-56787186D01*
X165532817Y-57185021D01*
X165333882Y-57482749D01*
X164344759Y-57482749D01*
X162982299Y-56120291D01*
X162926505Y-56036789D01*
X162595726Y-55815770D01*
X162304035Y-55757749D01*
X162205545Y-55738158D01*
X162107055Y-55757749D01*
X154957178Y-55757749D01*
X155043120Y-55700324D01*
X155175732Y-55501857D01*
X155179533Y-55482749D01*
X165333882Y-55482749D01*
X165532817Y-55780477D01*
X166128220Y-56178312D01*
X166653261Y-56282749D01*
X167007829Y-56282749D01*
X167532870Y-56178312D01*
X168128273Y-55780477D01*
X168526108Y-55185074D01*
X168665809Y-54482749D01*
X168526108Y-53780424D01*
X168128273Y-53185021D01*
X167830545Y-52986086D01*
X167830545Y-51979412D01*
X168128273Y-51780477D01*
X168526108Y-51185074D01*
X168665809Y-50482749D01*
X168526108Y-49780424D01*
X168128273Y-49185021D01*
X167830545Y-48986086D01*
X167830545Y-47979412D01*
X168128273Y-47780477D01*
X168526108Y-47185074D01*
X168665809Y-46482749D01*
X168594591Y-46124707D01*
X177730545Y-46124707D01*
X177730545Y-46840791D01*
X178004579Y-47502367D01*
X178510927Y-48008715D01*
X179172503Y-48282749D01*
X179888587Y-48282749D01*
X180550163Y-48008715D01*
X181056511Y-47502367D01*
X181064637Y-47482749D01*
X187806333Y-47482749D01*
X189270545Y-48946962D01*
X189270545Y-49451009D01*
X189514130Y-50039076D01*
X189883214Y-50408160D01*
X189717010Y-50519214D01*
X189043086Y-49845291D01*
X188987292Y-49761789D01*
X188656513Y-49540770D01*
X188364822Y-49482749D01*
X188266332Y-49463158D01*
X188167842Y-49482749D01*
X181064637Y-49482749D01*
X181056511Y-49463131D01*
X180550163Y-48956783D01*
X179888587Y-48682749D01*
X179172503Y-48682749D01*
X178510927Y-48956783D01*
X178004579Y-49463131D01*
X177730545Y-50124707D01*
X177730545Y-50840791D01*
X178004579Y-51502367D01*
X178510927Y-52008715D01*
X179172503Y-52282749D01*
X179888587Y-52282749D01*
X180550163Y-52008715D01*
X181056511Y-51502367D01*
X181064637Y-51482749D01*
X187852120Y-51482749D01*
X188679579Y-52310209D01*
X188735372Y-52393709D01*
X188946761Y-52534954D01*
X189066151Y-52614728D01*
X189456331Y-52692340D01*
X189554821Y-52672749D01*
X189614421Y-52672749D01*
X189717010Y-52826284D01*
X189891312Y-52942749D01*
X189717010Y-53059214D01*
X189614421Y-53212749D01*
X180806129Y-53212749D01*
X180550163Y-52956783D01*
X179888587Y-52682749D01*
X179172503Y-52682749D01*
X178510927Y-52956783D01*
X178004579Y-53463131D01*
X177730545Y-54124707D01*
X177730545Y-54840791D01*
X178004579Y-55502367D01*
X178510927Y-56008715D01*
X179172503Y-56282749D01*
X179888587Y-56282749D01*
X180550163Y-56008715D01*
X181056511Y-55502367D01*
X181176475Y-55212749D01*
X189614421Y-55212749D01*
X189717010Y-55366284D01*
X189891312Y-55482749D01*
X189717010Y-55599214D01*
X189614421Y-55752749D01*
X181359034Y-55752749D01*
X181260544Y-55733158D01*
X180870364Y-55810770D01*
X180539585Y-56031789D01*
X180483794Y-56115286D01*
X179908206Y-56690875D01*
X179888587Y-56682749D01*
X179172503Y-56682749D01*
X178510927Y-56956783D01*
X178004579Y-57463131D01*
X177730545Y-58124707D01*
X177730545Y-58840791D01*
X178004579Y-59502367D01*
X178510927Y-60008715D01*
X179172503Y-60282749D01*
X179888587Y-60282749D01*
X180550163Y-60008715D01*
X181056511Y-59502367D01*
X181330545Y-58840791D01*
X181330545Y-58124707D01*
X181322419Y-58105088D01*
X181674759Y-57752749D01*
X189614421Y-57752749D01*
X189717010Y-57906284D01*
X189891312Y-58022749D01*
X189717010Y-58139214D01*
X189614421Y-58292749D01*
X182819034Y-58292749D01*
X182720544Y-58273158D01*
X182450919Y-58326790D01*
X182330364Y-58350770D01*
X181999585Y-58571789D01*
X181943794Y-58655286D01*
X179908206Y-60690875D01*
X179888587Y-60682749D01*
X179172503Y-60682749D01*
X178510927Y-60956783D01*
X178004579Y-61463131D01*
X177730545Y-62124707D01*
X177730545Y-62840791D01*
X178004579Y-63502367D01*
X178510927Y-64008715D01*
X179172503Y-64282749D01*
X179888587Y-64282749D01*
X180550163Y-64008715D01*
X181056511Y-63502367D01*
X181330545Y-62840791D01*
X181330545Y-62124707D01*
X181322419Y-62105088D01*
X183134759Y-60292749D01*
X189614421Y-60292749D01*
X189717010Y-60446284D01*
X189891312Y-60562749D01*
X189717010Y-60679214D01*
X189614421Y-60832749D01*
X184279034Y-60832749D01*
X184180544Y-60813158D01*
X183790364Y-60890770D01*
X183459585Y-61111789D01*
X183403793Y-61195288D01*
X179908206Y-64690876D01*
X179888587Y-64682749D01*
X179172503Y-64682749D01*
X178510927Y-64956783D01*
X178004579Y-65463131D01*
X177730545Y-66124707D01*
X177730545Y-66840791D01*
X178004579Y-67502367D01*
X178510927Y-68008715D01*
X179172503Y-68282749D01*
X179888587Y-68282749D01*
X180550163Y-68008715D01*
X181056511Y-67502367D01*
X181330545Y-66840791D01*
X181330545Y-66124707D01*
X181322418Y-66105088D01*
X184594758Y-62832749D01*
X189614421Y-62832749D01*
X189717010Y-62986284D01*
X189891312Y-63102749D01*
X189717010Y-63219214D01*
X189614421Y-63372749D01*
X185739035Y-63372749D01*
X185640545Y-63353158D01*
X185354983Y-63409960D01*
X185250364Y-63430770D01*
X184919585Y-63651789D01*
X184863793Y-63735288D01*
X179908206Y-68690876D01*
X179888587Y-68682749D01*
X179172503Y-68682749D01*
X178510927Y-68956783D01*
X178004579Y-69463131D01*
X177730545Y-70124707D01*
X177730545Y-70840791D01*
X178004579Y-71502367D01*
X178510927Y-72008715D01*
X179172503Y-72282749D01*
X179888587Y-72282749D01*
X180550163Y-72008715D01*
X181056511Y-71502367D01*
X181330545Y-70840791D01*
X181330545Y-70124707D01*
X181322418Y-70105088D01*
X186054758Y-65372749D01*
X189614421Y-65372749D01*
X189717010Y-65526284D01*
X189891312Y-65642749D01*
X189717010Y-65759214D01*
X189614421Y-65912749D01*
X187199035Y-65912749D01*
X187100545Y-65893158D01*
X187002055Y-65912749D01*
X186710364Y-65970770D01*
X186379585Y-66191789D01*
X186323793Y-66275288D01*
X179908206Y-72690876D01*
X179888587Y-72682749D01*
X179172503Y-72682749D01*
X178510927Y-72956783D01*
X178004579Y-73463131D01*
X177730545Y-74124707D01*
X177730545Y-74840791D01*
X178004579Y-75502367D01*
X178510927Y-76008715D01*
X179172503Y-76282749D01*
X179888587Y-76282749D01*
X180550163Y-76008715D01*
X181056511Y-75502367D01*
X181330545Y-74840791D01*
X181330545Y-74124707D01*
X181322418Y-74105088D01*
X187514758Y-67912749D01*
X189614421Y-67912749D01*
X189717010Y-68066284D01*
X189891312Y-68182749D01*
X189717010Y-68299214D01*
X189614421Y-68452749D01*
X188659035Y-68452749D01*
X188560545Y-68433158D01*
X188261861Y-68492570D01*
X188170364Y-68510770D01*
X187839585Y-68731789D01*
X187783793Y-68815289D01*
X184393085Y-72205997D01*
X184309586Y-72261789D01*
X184175036Y-72463158D01*
X184088566Y-72592569D01*
X184010954Y-72982749D01*
X184030546Y-73081244D01*
X184030545Y-78268536D01*
X181316333Y-80982749D01*
X181064637Y-80982749D01*
X181056511Y-80963131D01*
X180550163Y-80456783D01*
X179888587Y-80182749D01*
X179172503Y-80182749D01*
X178510927Y-80456783D01*
X178004579Y-80963131D01*
X177730545Y-81624707D01*
X177730545Y-82340791D01*
X178004579Y-83002367D01*
X178510927Y-83508715D01*
X179172503Y-83782749D01*
X179888587Y-83782749D01*
X180550163Y-83508715D01*
X181056511Y-83002367D01*
X181064637Y-82982749D01*
X181632055Y-82982749D01*
X181730545Y-83002340D01*
X181829035Y-82982749D01*
X182120726Y-82924728D01*
X182451505Y-82703709D01*
X182507299Y-82620207D01*
X185668006Y-79459501D01*
X185751505Y-79403709D01*
X185972524Y-79072930D01*
X186030545Y-78781239D01*
X186030545Y-81268536D01*
X182216333Y-85082749D01*
X181064637Y-85082749D01*
X181056511Y-85063131D01*
X180550163Y-84556783D01*
X179888587Y-84282749D01*
X179172503Y-84282749D01*
X178510927Y-84556783D01*
X178004579Y-85063131D01*
X177730545Y-85724707D01*
X177730545Y-86440791D01*
X178004579Y-87102367D01*
X178510927Y-87608715D01*
X179172503Y-87882749D01*
X179888587Y-87882749D01*
X180550163Y-87608715D01*
X181056511Y-87102367D01*
X181064637Y-87082749D01*
X182532055Y-87082749D01*
X182630545Y-87102340D01*
X182729035Y-87082749D01*
X183020726Y-87024728D01*
X183351505Y-86803709D01*
X183407299Y-86720207D01*
X187668006Y-82459501D01*
X187751505Y-82403709D01*
X187972524Y-82072930D01*
X188030545Y-81781239D01*
X188030545Y-81781238D01*
X188050136Y-81682749D01*
X188030545Y-81584259D01*
X188030545Y-75396961D01*
X189324726Y-74102781D01*
X189239200Y-74532749D01*
X189363379Y-75157038D01*
X189717010Y-75686284D01*
X189891312Y-75802749D01*
X189717010Y-75919214D01*
X189363379Y-76448460D01*
X189239200Y-77072749D01*
X189363379Y-77697038D01*
X189717010Y-78226284D01*
X189891312Y-78342749D01*
X189717010Y-78459214D01*
X189363379Y-78988460D01*
X189239200Y-79612749D01*
X189363379Y-80237038D01*
X189717010Y-80766284D01*
X189891312Y-80882749D01*
X189717010Y-80999214D01*
X189363379Y-81528460D01*
X189239200Y-82152749D01*
X189363379Y-82777038D01*
X189717010Y-83306284D01*
X189891312Y-83422749D01*
X189717010Y-83539214D01*
X189363379Y-84068460D01*
X189239200Y-84692749D01*
X189363379Y-85317038D01*
X189717010Y-85846284D01*
X189891312Y-85962749D01*
X189717010Y-86079214D01*
X189363379Y-86608460D01*
X189239200Y-87232749D01*
X189363379Y-87857038D01*
X189717010Y-88386284D01*
X189891312Y-88502749D01*
X189717010Y-88619214D01*
X189363379Y-89148460D01*
X189239200Y-89772749D01*
X189363379Y-90397038D01*
X189717010Y-90926284D01*
X189891312Y-91042749D01*
X189717010Y-91159214D01*
X189363379Y-91688460D01*
X189239200Y-92312749D01*
X189363379Y-92937038D01*
X189717010Y-93466284D01*
X189891312Y-93582749D01*
X189717010Y-93699214D01*
X189363379Y-94228460D01*
X189239200Y-94852749D01*
X189363379Y-95477038D01*
X189717010Y-96006284D01*
X189897060Y-96126590D01*
X189491599Y-96581241D01*
X189321671Y-96991512D01*
X189428746Y-97238749D01*
X190716545Y-97238749D01*
X190716545Y-97218749D01*
X191024545Y-97218749D01*
X191024545Y-97238749D01*
X192312344Y-97238749D01*
X192419419Y-96991512D01*
X192249491Y-96581241D01*
X191844030Y-96126590D01*
X192024080Y-96006284D01*
X192377711Y-95477038D01*
X192501890Y-94852749D01*
X192377711Y-94228460D01*
X192024080Y-93699214D01*
X191849778Y-93582749D01*
X192024080Y-93466284D01*
X192377711Y-92937038D01*
X192501890Y-92312749D01*
X192377711Y-91688460D01*
X192024080Y-91159214D01*
X191849778Y-91042749D01*
X192024080Y-90926284D01*
X192377711Y-90397038D01*
X192501890Y-89772749D01*
X192377711Y-89148460D01*
X192024080Y-88619214D01*
X191849778Y-88502749D01*
X192024080Y-88386284D01*
X192377711Y-87857038D01*
X192501890Y-87232749D01*
X192377711Y-86608460D01*
X192024080Y-86079214D01*
X191849778Y-85962749D01*
X192024080Y-85846284D01*
X192377711Y-85317038D01*
X192501890Y-84692749D01*
X192377711Y-84068460D01*
X192024080Y-83539214D01*
X191849778Y-83422749D01*
X192024080Y-83306284D01*
X192377711Y-82777038D01*
X192501890Y-82152749D01*
X192377711Y-81528460D01*
X192024080Y-80999214D01*
X191849778Y-80882749D01*
X192024080Y-80766284D01*
X192377711Y-80237038D01*
X192501890Y-79612749D01*
X192377711Y-78988460D01*
X192024080Y-78459214D01*
X191849778Y-78342749D01*
X192024080Y-78226284D01*
X192377711Y-77697038D01*
X192501890Y-77072749D01*
X192377711Y-76448460D01*
X192024080Y-75919214D01*
X191849778Y-75802749D01*
X192024080Y-75686284D01*
X192377711Y-75157038D01*
X192501890Y-74532749D01*
X192377711Y-73908460D01*
X192024080Y-73379214D01*
X191849778Y-73262749D01*
X192024080Y-73146284D01*
X192377711Y-72617038D01*
X192501890Y-71992749D01*
X192377711Y-71368460D01*
X192024080Y-70839214D01*
X191849778Y-70722749D01*
X192024080Y-70606284D01*
X192377711Y-70077038D01*
X192501890Y-69452749D01*
X192377711Y-68828460D01*
X192024080Y-68299214D01*
X191849778Y-68182749D01*
X192024080Y-68066284D01*
X192377711Y-67537038D01*
X192501890Y-66912749D01*
X192377711Y-66288460D01*
X192024080Y-65759214D01*
X191849778Y-65642749D01*
X192024080Y-65526284D01*
X192377711Y-64997038D01*
X192501890Y-64372749D01*
X192377711Y-63748460D01*
X192024080Y-63219214D01*
X191849778Y-63102749D01*
X192024080Y-62986284D01*
X192377711Y-62457038D01*
X192501890Y-61832749D01*
X192377711Y-61208460D01*
X192024080Y-60679214D01*
X191849778Y-60562749D01*
X192024080Y-60446284D01*
X192377711Y-59917038D01*
X192501890Y-59292749D01*
X192377711Y-58668460D01*
X192024080Y-58139214D01*
X191849778Y-58022749D01*
X192024080Y-57906284D01*
X192377711Y-57377038D01*
X192501890Y-56752749D01*
X209559200Y-56752749D01*
X209683379Y-57377038D01*
X210037010Y-57906284D01*
X210211312Y-58022749D01*
X210037010Y-58139214D01*
X209683379Y-58668460D01*
X209559200Y-59292749D01*
X209683379Y-59917038D01*
X210037010Y-60446284D01*
X210211312Y-60562749D01*
X210037010Y-60679214D01*
X209683379Y-61208460D01*
X209559200Y-61832749D01*
X209683379Y-62457038D01*
X210037010Y-62986284D01*
X210211312Y-63102749D01*
X210037010Y-63219214D01*
X209683379Y-63748460D01*
X209559200Y-64372749D01*
X209683379Y-64997038D01*
X210037010Y-65526284D01*
X210211312Y-65642749D01*
X210037010Y-65759214D01*
X209683379Y-66288460D01*
X209559200Y-66912749D01*
X209683379Y-67537038D01*
X210037010Y-68066284D01*
X210211312Y-68182749D01*
X210037010Y-68299214D01*
X209683379Y-68828460D01*
X209559200Y-69452749D01*
X209683379Y-70077038D01*
X210037010Y-70606284D01*
X210211312Y-70722749D01*
X210037010Y-70839214D01*
X209683379Y-71368460D01*
X209559200Y-71992749D01*
X209683379Y-72617038D01*
X210037010Y-73146284D01*
X210211312Y-73262749D01*
X210037010Y-73379214D01*
X209683379Y-73908460D01*
X209559200Y-74532749D01*
X209683379Y-75157038D01*
X210037010Y-75686284D01*
X210211312Y-75802749D01*
X210037010Y-75919214D01*
X209683379Y-76448460D01*
X209559200Y-77072749D01*
X209683379Y-77697038D01*
X210037010Y-78226284D01*
X210211312Y-78342749D01*
X210037010Y-78459214D01*
X209683379Y-78988460D01*
X209559200Y-79612749D01*
X209683379Y-80237038D01*
X210037010Y-80766284D01*
X210211312Y-80882749D01*
X210037010Y-80999214D01*
X209683379Y-81528460D01*
X209559200Y-82152749D01*
X209683379Y-82777038D01*
X210037010Y-83306284D01*
X210211312Y-83422749D01*
X210037010Y-83539214D01*
X209683379Y-84068460D01*
X209559200Y-84692749D01*
X209683379Y-85317038D01*
X210037010Y-85846284D01*
X210211312Y-85962749D01*
X210037010Y-86079214D01*
X209683379Y-86608460D01*
X209559200Y-87232749D01*
X209683379Y-87857038D01*
X210037010Y-88386284D01*
X210211312Y-88502749D01*
X210037010Y-88619214D01*
X209683379Y-89148460D01*
X209559200Y-89772749D01*
X209683379Y-90397038D01*
X210037010Y-90926284D01*
X210211312Y-91042749D01*
X210037010Y-91159214D01*
X209683379Y-91688460D01*
X209559200Y-92312749D01*
X209683379Y-92937038D01*
X210037010Y-93466284D01*
X210211312Y-93582749D01*
X210037010Y-93699214D01*
X209683379Y-94228460D01*
X209559200Y-94852749D01*
X209683379Y-95477038D01*
X210037010Y-96006284D01*
X210211312Y-96122749D01*
X210037010Y-96239214D01*
X209683379Y-96768460D01*
X209559200Y-97392749D01*
X209683379Y-98017038D01*
X210037010Y-98546284D01*
X210211312Y-98662749D01*
X210037010Y-98779214D01*
X209683379Y-99308460D01*
X209559200Y-99932749D01*
X209683379Y-100557038D01*
X210037010Y-101086284D01*
X210211312Y-101202749D01*
X210037010Y-101319214D01*
X209683379Y-101848460D01*
X209559200Y-102472749D01*
X209683379Y-103097038D01*
X210037010Y-103626284D01*
X210211312Y-103742749D01*
X210037010Y-103859214D01*
X209683379Y-104388460D01*
X209559200Y-105012749D01*
X209683379Y-105637038D01*
X210037010Y-106166284D01*
X210211312Y-106282749D01*
X210037010Y-106399214D01*
X209683379Y-106928460D01*
X209559200Y-107552749D01*
X209683379Y-108177038D01*
X210037010Y-108706284D01*
X210211312Y-108822749D01*
X210037010Y-108939214D01*
X209683379Y-109468460D01*
X209559200Y-110092749D01*
X209683379Y-110717038D01*
X210037010Y-111246284D01*
X210211312Y-111362749D01*
X210037010Y-111479214D01*
X209683379Y-112008460D01*
X209559200Y-112632749D01*
X209683379Y-113257038D01*
X210037010Y-113786284D01*
X210217060Y-113906590D01*
X209811599Y-114361241D01*
X209641671Y-114771512D01*
X209748746Y-115018749D01*
X211036545Y-115018749D01*
X211036545Y-114998749D01*
X211344545Y-114998749D01*
X211344545Y-115018749D01*
X212632344Y-115018749D01*
X212739419Y-114771512D01*
X212569491Y-114361241D01*
X212164030Y-113906590D01*
X212344080Y-113786284D01*
X212697711Y-113257038D01*
X212821890Y-112632749D01*
X212697711Y-112008460D01*
X212344080Y-111479214D01*
X212169778Y-111362749D01*
X212344080Y-111246284D01*
X212697711Y-110717038D01*
X212821890Y-110092749D01*
X212697711Y-109468460D01*
X212344080Y-108939214D01*
X212169778Y-108822749D01*
X212344080Y-108706284D01*
X212697711Y-108177038D01*
X212821890Y-107552749D01*
X212697711Y-106928460D01*
X212344080Y-106399214D01*
X212169778Y-106282749D01*
X212344080Y-106166284D01*
X212697711Y-105637038D01*
X212752737Y-105360400D01*
X228230588Y-105360400D01*
X228373576Y-105705635D01*
X228745894Y-106131630D01*
X229252892Y-106382718D01*
X229476545Y-106274560D01*
X229476545Y-105136749D01*
X229784545Y-105136749D01*
X229784545Y-106274560D01*
X230008198Y-106382718D01*
X230515196Y-106131630D01*
X230887514Y-105705635D01*
X231030502Y-105360400D01*
X230921391Y-105136749D01*
X229784545Y-105136749D01*
X229476545Y-105136749D01*
X228339699Y-105136749D01*
X228230588Y-105360400D01*
X212752737Y-105360400D01*
X212821890Y-105012749D01*
X212697711Y-104388460D01*
X212344080Y-103859214D01*
X212169778Y-103742749D01*
X212344080Y-103626284D01*
X212446669Y-103472749D01*
X228574868Y-103472749D01*
X228585153Y-103488141D01*
X228950741Y-103732419D01*
X228745894Y-103833868D01*
X228373576Y-104259863D01*
X228230588Y-104605098D01*
X228339699Y-104828749D01*
X229476545Y-104828749D01*
X229476545Y-104808749D01*
X229784545Y-104808749D01*
X229784545Y-104828749D01*
X230921391Y-104828749D01*
X231030502Y-104605098D01*
X230887514Y-104259863D01*
X230515196Y-103833868D01*
X230310349Y-103732419D01*
X230675937Y-103488141D01*
X230996415Y-103008511D01*
X231108952Y-102442749D01*
X230996415Y-101876987D01*
X230675937Y-101397357D01*
X230593224Y-101342090D01*
X230714653Y-101317936D01*
X230913120Y-101185324D01*
X231045732Y-100986857D01*
X231092299Y-100752749D01*
X231092299Y-99052749D01*
X231045732Y-98818641D01*
X230913120Y-98620174D01*
X230714653Y-98487562D01*
X230480545Y-98440995D01*
X228780545Y-98440995D01*
X228546437Y-98487562D01*
X228347970Y-98620174D01*
X228215358Y-98818641D01*
X228198628Y-98902749D01*
X212426623Y-98902749D01*
X212344080Y-98779214D01*
X212169778Y-98662749D01*
X212344080Y-98546284D01*
X212697711Y-98017038D01*
X212821890Y-97392749D01*
X212697711Y-96768460D01*
X212344080Y-96239214D01*
X212169778Y-96122749D01*
X212344080Y-96006284D01*
X212697711Y-95477038D01*
X212821890Y-94852749D01*
X212697711Y-94228460D01*
X212344080Y-93699214D01*
X212169778Y-93582749D01*
X212344080Y-93466284D01*
X212697711Y-92937038D01*
X212821890Y-92312749D01*
X212697711Y-91688460D01*
X212344080Y-91159214D01*
X212169778Y-91042749D01*
X212344080Y-90926284D01*
X212697711Y-90397038D01*
X212821890Y-89772749D01*
X212697711Y-89148460D01*
X212344080Y-88619214D01*
X212169778Y-88502749D01*
X212344080Y-88386284D01*
X212697711Y-87857038D01*
X212821890Y-87232749D01*
X212697711Y-86608460D01*
X212344080Y-86079214D01*
X212169778Y-85962749D01*
X212344080Y-85846284D01*
X212697711Y-85317038D01*
X212821890Y-84692749D01*
X212697711Y-84068460D01*
X212344080Y-83539214D01*
X212169778Y-83422749D01*
X212344080Y-83306284D01*
X212697711Y-82777038D01*
X212821890Y-82152749D01*
X212697711Y-81528460D01*
X212344080Y-80999214D01*
X212169778Y-80882749D01*
X212344080Y-80766284D01*
X212697711Y-80237038D01*
X212821890Y-79612749D01*
X212697711Y-78988460D01*
X212344080Y-78459214D01*
X212169778Y-78342749D01*
X212344080Y-78226284D01*
X212697711Y-77697038D01*
X212821890Y-77072749D01*
X212697711Y-76448460D01*
X212344080Y-75919214D01*
X212169778Y-75802749D01*
X212344080Y-75686284D01*
X212652496Y-75224707D01*
X215530545Y-75224707D01*
X215530545Y-75940791D01*
X215804579Y-76602367D01*
X216310927Y-77108715D01*
X216972503Y-77382749D01*
X217688587Y-77382749D01*
X218350163Y-77108715D01*
X218856511Y-76602367D01*
X219130545Y-75940791D01*
X219130545Y-75224707D01*
X218856511Y-74563131D01*
X218350163Y-74056783D01*
X218330545Y-74048657D01*
X218330545Y-73896961D01*
X222344759Y-69882749D01*
X225969224Y-69882749D01*
X226240863Y-70154388D01*
X226792176Y-70382749D01*
X227388914Y-70382749D01*
X227940227Y-70154388D01*
X228148697Y-69945918D01*
X228221890Y-70122622D01*
X228390673Y-70291405D01*
X228611198Y-70382749D01*
X229326545Y-70382749D01*
X229476545Y-70232749D01*
X229476545Y-69036749D01*
X229784545Y-69036749D01*
X229784545Y-70232749D01*
X229934545Y-70382749D01*
X230649892Y-70382749D01*
X230870417Y-70291405D01*
X231039200Y-70122622D01*
X231130545Y-69902097D01*
X231130545Y-69186749D01*
X230980545Y-69036749D01*
X229784545Y-69036749D01*
X229476545Y-69036749D01*
X229456545Y-69036749D01*
X229456545Y-68728749D01*
X229476545Y-68728749D01*
X229476545Y-67532749D01*
X229784545Y-67532749D01*
X229784545Y-68728749D01*
X230980545Y-68728749D01*
X231130545Y-68578749D01*
X231130545Y-67863401D01*
X231039200Y-67642876D01*
X230870417Y-67474093D01*
X230649892Y-67382749D01*
X229934545Y-67382749D01*
X229784545Y-67532749D01*
X229476545Y-67532749D01*
X229326545Y-67382749D01*
X228611198Y-67382749D01*
X228390673Y-67474093D01*
X228221890Y-67642876D01*
X228148697Y-67819580D01*
X227940227Y-67611110D01*
X227388914Y-67382749D01*
X226792176Y-67382749D01*
X226240863Y-67611110D01*
X225969224Y-67882749D01*
X222029034Y-67882749D01*
X221930544Y-67863158D01*
X221540364Y-67940770D01*
X221209585Y-68161789D01*
X221153794Y-68245286D01*
X216693087Y-72705995D01*
X216609585Y-72761789D01*
X216388567Y-73092568D01*
X216388566Y-73092569D01*
X216310954Y-73482749D01*
X216330545Y-73581238D01*
X216330545Y-74048657D01*
X216310927Y-74056783D01*
X215804579Y-74563131D01*
X215530545Y-75224707D01*
X212652496Y-75224707D01*
X212697711Y-75157038D01*
X212821890Y-74532749D01*
X212697711Y-73908460D01*
X212344080Y-73379214D01*
X212169778Y-73262749D01*
X212344080Y-73146284D01*
X212697711Y-72617038D01*
X212821890Y-71992749D01*
X212697711Y-71368460D01*
X212344080Y-70839214D01*
X212169778Y-70722749D01*
X212344080Y-70606284D01*
X212697711Y-70077038D01*
X212821890Y-69452749D01*
X212697711Y-68828460D01*
X212344080Y-68299214D01*
X212169778Y-68182749D01*
X212344080Y-68066284D01*
X212697711Y-67537038D01*
X212821890Y-66912749D01*
X212697711Y-66288460D01*
X212344080Y-65759214D01*
X212169778Y-65642749D01*
X212344080Y-65526284D01*
X212697711Y-64997038D01*
X212821890Y-64372749D01*
X212697711Y-63748460D01*
X212344080Y-63219214D01*
X212169778Y-63102749D01*
X212344080Y-62986284D01*
X212697711Y-62457038D01*
X212821890Y-61832749D01*
X212697711Y-61208460D01*
X212344080Y-60679214D01*
X212169778Y-60562749D01*
X212344080Y-60446284D01*
X212446669Y-60292749D01*
X213326333Y-60292749D01*
X215565138Y-62531555D01*
X215495281Y-62882749D01*
X215634982Y-63585074D01*
X216032817Y-64180477D01*
X216628220Y-64578312D01*
X217153261Y-64682749D01*
X217507829Y-64682749D01*
X218032870Y-64578312D01*
X218628273Y-64180477D01*
X219026108Y-63585074D01*
X219165809Y-62882749D01*
X219026108Y-62180424D01*
X218628273Y-61585021D01*
X218032870Y-61187186D01*
X217507829Y-61082749D01*
X217153261Y-61082749D01*
X216979351Y-61117342D01*
X214517299Y-58655291D01*
X214461505Y-58571789D01*
X214130726Y-58350770D01*
X213839035Y-58292749D01*
X213740545Y-58273158D01*
X213642055Y-58292749D01*
X212446669Y-58292749D01*
X212344080Y-58139214D01*
X212169778Y-58022749D01*
X212344080Y-57906284D01*
X212446669Y-57752749D01*
X220986333Y-57752749D01*
X224653793Y-61420210D01*
X224709585Y-61503709D01*
X225040364Y-61724728D01*
X225332055Y-61782749D01*
X225430545Y-61802340D01*
X225529035Y-61782749D01*
X228198628Y-61782749D01*
X228215358Y-61866857D01*
X228347970Y-62065324D01*
X228546437Y-62197936D01*
X228780545Y-62244503D01*
X230480545Y-62244503D01*
X230714653Y-62197936D01*
X230913120Y-62065324D01*
X231045732Y-61866857D01*
X231092299Y-61632749D01*
X231092299Y-59932749D01*
X231045732Y-59698641D01*
X230913120Y-59500174D01*
X230714653Y-59367562D01*
X230593224Y-59343408D01*
X230675937Y-59288141D01*
X230996415Y-58808511D01*
X231108952Y-58242749D01*
X230996415Y-57676987D01*
X230675937Y-57197357D01*
X230339787Y-56972749D01*
X230675937Y-56748141D01*
X230996415Y-56268511D01*
X231108952Y-55702749D01*
X230996415Y-55136987D01*
X230675937Y-54657357D01*
X230339787Y-54432749D01*
X230675937Y-54208141D01*
X230996415Y-53728511D01*
X231108952Y-53162749D01*
X230996415Y-52596987D01*
X230675937Y-52117357D01*
X230339787Y-51892749D01*
X230675937Y-51668141D01*
X230996415Y-51188511D01*
X231108952Y-50622749D01*
X230996415Y-50056987D01*
X230675937Y-49577357D01*
X230310349Y-49333079D01*
X230515196Y-49231630D01*
X230887514Y-48805635D01*
X231030502Y-48460400D01*
X230921391Y-48236749D01*
X229784545Y-48236749D01*
X229784545Y-48256749D01*
X229476545Y-48256749D01*
X229476545Y-48236749D01*
X228339699Y-48236749D01*
X228230588Y-48460400D01*
X228373576Y-48805635D01*
X228745894Y-49231630D01*
X228950741Y-49333079D01*
X228585153Y-49577357D01*
X228554823Y-49622749D01*
X228484758Y-49622749D01*
X227357299Y-48495291D01*
X227301505Y-48411789D01*
X226970726Y-48190770D01*
X226679035Y-48132749D01*
X226580545Y-48113158D01*
X226482055Y-48132749D01*
X212802299Y-48132749D01*
X212755732Y-47898641D01*
X212626411Y-47705098D01*
X228230588Y-47705098D01*
X228339699Y-47928749D01*
X229476545Y-47928749D01*
X229476545Y-46790938D01*
X229784545Y-46790938D01*
X229784545Y-47928749D01*
X230921391Y-47928749D01*
X231030502Y-47705098D01*
X230887514Y-47359863D01*
X230515196Y-46933868D01*
X230008198Y-46682780D01*
X229784545Y-46790938D01*
X229476545Y-46790938D01*
X229252892Y-46682780D01*
X228745894Y-46933868D01*
X228373576Y-47359863D01*
X228230588Y-47705098D01*
X212626411Y-47705098D01*
X212623120Y-47700174D01*
X212424653Y-47567562D01*
X212190545Y-47520995D01*
X210190545Y-47520995D01*
X209956437Y-47567562D01*
X209757970Y-47700174D01*
X209625358Y-47898641D01*
X209578791Y-48132749D01*
X209578791Y-50132749D01*
X209625358Y-50366857D01*
X209757970Y-50565324D01*
X209924174Y-50676378D01*
X209834130Y-50766422D01*
X209590545Y-51354489D01*
X209590545Y-51991009D01*
X209834130Y-52579076D01*
X210197803Y-52942749D01*
X209834130Y-53306422D01*
X209590545Y-53894489D01*
X209590545Y-54531009D01*
X209834130Y-55119076D01*
X210203214Y-55488160D01*
X210037010Y-55599214D01*
X209683379Y-56128460D01*
X209559200Y-56752749D01*
X192501890Y-56752749D01*
X192377711Y-56128460D01*
X192024080Y-55599214D01*
X191849778Y-55482749D01*
X192024080Y-55366284D01*
X192377711Y-54837038D01*
X192501890Y-54212749D01*
X192377711Y-53588460D01*
X192024080Y-53059214D01*
X191849778Y-52942749D01*
X192024080Y-52826284D01*
X192377711Y-52297038D01*
X192501890Y-51672749D01*
X192377711Y-51048460D01*
X192024080Y-50519214D01*
X191857876Y-50408160D01*
X192226960Y-50039076D01*
X192470545Y-49451009D01*
X192470545Y-48814489D01*
X192226960Y-48226422D01*
X191776872Y-47776334D01*
X191188805Y-47532749D01*
X190684758Y-47532749D01*
X188997299Y-45845291D01*
X188941505Y-45761789D01*
X188610726Y-45540770D01*
X188319035Y-45482749D01*
X188220545Y-45463158D01*
X188122055Y-45482749D01*
X181064637Y-45482749D01*
X181056511Y-45463131D01*
X180550163Y-44956783D01*
X179888587Y-44682749D01*
X179172503Y-44682749D01*
X178510927Y-44956783D01*
X178004579Y-45463131D01*
X177730545Y-46124707D01*
X168594591Y-46124707D01*
X168526108Y-45780424D01*
X168128273Y-45185021D01*
X167532870Y-44787186D01*
X167007829Y-44682749D01*
X166653261Y-44682749D01*
X166128220Y-44787186D01*
X165532817Y-45185021D01*
X165134982Y-45780424D01*
X164995281Y-46482749D01*
X165134982Y-47185074D01*
X165532817Y-47780477D01*
X165830545Y-47979412D01*
X165830546Y-48986085D01*
X165532817Y-49185021D01*
X165134982Y-49780424D01*
X164995281Y-50482749D01*
X165134982Y-51185074D01*
X165532817Y-51780477D01*
X165830546Y-51979413D01*
X165830545Y-52986086D01*
X165532817Y-53185021D01*
X165333882Y-53482749D01*
X155185500Y-53482749D01*
X155175732Y-53433641D01*
X155043120Y-53235174D01*
X154844653Y-53102562D01*
X154610545Y-53055995D01*
X153215480Y-53055995D01*
X153208080Y-52948649D01*
X153069137Y-52613214D01*
X152836129Y-52534954D01*
X152048334Y-53322749D01*
X152062476Y-53336891D01*
X151844687Y-53554680D01*
X151830545Y-53540538D01*
X151816403Y-53554680D01*
X151598614Y-53336891D01*
X151612756Y-53322749D01*
X150824961Y-52534954D01*
X150591953Y-52613214D01*
X150414707Y-53141213D01*
X150417891Y-53187402D01*
X150129022Y-53067749D01*
X149572068Y-53067749D01*
X149057508Y-53280886D01*
X148663682Y-53674712D01*
X148450545Y-54189272D01*
X148450545Y-54746226D01*
X148663682Y-55260786D01*
X149015645Y-55612749D01*
X148663682Y-55964712D01*
X148450545Y-56479272D01*
X148450545Y-57036226D01*
X148663682Y-57550786D01*
X149015645Y-57902749D01*
X148870645Y-58047749D01*
X148229034Y-58047749D01*
X148130544Y-58028158D01*
X147848376Y-58084285D01*
X147740364Y-58105770D01*
X147409585Y-58326789D01*
X147353794Y-58410286D01*
X145693085Y-60070997D01*
X145609586Y-60126789D01*
X145437214Y-60384762D01*
X145388566Y-60457569D01*
X145310954Y-60847749D01*
X142730545Y-60847749D01*
X142730545Y-52317165D01*
X151042750Y-52317165D01*
X151830545Y-53104960D01*
X152618340Y-52317165D01*
X152540080Y-52084157D01*
X152012081Y-51906911D01*
X151456445Y-51945214D01*
X151121010Y-52084157D01*
X151042750Y-52317165D01*
X142730545Y-52317165D01*
X142730545Y-48156717D01*
X150104366Y-48156717D01*
X150329584Y-48514300D01*
X151292487Y-48892038D01*
X152326648Y-48872536D01*
X153191506Y-48514300D01*
X153416724Y-48156717D01*
X151760545Y-46500538D01*
X150104366Y-48156717D01*
X142730545Y-48156717D01*
X142730545Y-45814691D01*
X149151256Y-45814691D01*
X149170758Y-46848852D01*
X149528994Y-47713710D01*
X149886577Y-47938928D01*
X151542756Y-46282749D01*
X151978334Y-46282749D01*
X153634513Y-47938928D01*
X153992096Y-47713710D01*
X154369834Y-46750807D01*
X154350332Y-45716646D01*
X153992096Y-44851788D01*
X153634513Y-44626570D01*
X151978334Y-46282749D01*
X151542756Y-46282749D01*
X149886577Y-44626570D01*
X149528994Y-44851788D01*
X149151256Y-45814691D01*
X142730545Y-45814691D01*
X142730545Y-44408781D01*
X150104366Y-44408781D01*
X151760545Y-46064960D01*
X153416724Y-44408781D01*
X153191506Y-44051198D01*
X152228603Y-43673460D01*
X151194442Y-43692962D01*
X150329584Y-44051198D01*
X150104366Y-44408781D01*
X142730545Y-44408781D01*
X142730545Y-38382749D01*
X241330546Y-38382749D01*
X241330545Y-125982749D01*
X241330545Y-125982749D01*
G37*
X241330545Y-125982749D02*
X142730545Y-125982749D01*
X142730545Y-114873821D01*
X149917262Y-114873821D01*
X150099749Y-115195031D01*
X150935956Y-115514363D01*
X151830713Y-115489384D01*
X152541341Y-115195031D01*
X152723828Y-114873821D01*
X151320545Y-113470538D01*
X149917262Y-114873821D01*
X142730545Y-114873821D01*
X142730545Y-112868160D01*
X149058931Y-112868160D01*
X149083910Y-113762917D01*
X149378263Y-114473545D01*
X149699473Y-114656032D01*
X151102756Y-113252749D01*
X151538334Y-113252749D01*
X152941617Y-114656032D01*
X153262827Y-114473545D01*
X153562684Y-113688333D01*
X162242750Y-113688333D01*
X162321010Y-113921341D01*
X162849009Y-114098587D01*
X163404645Y-114060284D01*
X163740080Y-113921341D01*
X163818340Y-113688333D01*
X163030545Y-112900538D01*
X162242750Y-113688333D01*
X153562684Y-113688333D01*
X153582159Y-113637338D01*
X153557180Y-112742581D01*
X153457202Y-112501213D01*
X161614707Y-112501213D01*
X161653010Y-113056849D01*
X161791953Y-113392284D01*
X162024961Y-113470544D01*
X162812756Y-112682749D01*
X163248334Y-112682749D01*
X164036129Y-113470544D01*
X164269137Y-113392284D01*
X164446383Y-112864285D01*
X164408080Y-112308649D01*
X164269137Y-111973214D01*
X164036129Y-111894954D01*
X163248334Y-112682749D01*
X162812756Y-112682749D01*
X162024961Y-111894954D01*
X161791953Y-111973214D01*
X161614707Y-112501213D01*
X153457202Y-112501213D01*
X153262827Y-112031953D01*
X152941617Y-111849466D01*
X151538334Y-113252749D01*
X151102756Y-113252749D01*
X149699473Y-111849466D01*
X149378263Y-112031953D01*
X149058931Y-112868160D01*
X142730545Y-112868160D01*
X142730545Y-111631677D01*
X149917262Y-111631677D01*
X151320545Y-113034960D01*
X152723828Y-111631677D01*
X152541341Y-111310467D01*
X151705134Y-110991135D01*
X150810377Y-111016114D01*
X150099749Y-111310467D01*
X149917262Y-111631677D01*
X142730545Y-111631677D01*
X142730545Y-109874435D01*
X152480545Y-109874435D01*
X152480545Y-110491063D01*
X152716519Y-111060753D01*
X153152541Y-111496775D01*
X153722231Y-111732749D01*
X154338859Y-111732749D01*
X154908549Y-111496775D01*
X155122575Y-111282749D01*
X161709386Y-111282749D01*
X161797970Y-111415324D01*
X161996437Y-111547936D01*
X162230545Y-111594503D01*
X162270514Y-111594503D01*
X162242750Y-111677165D01*
X163030545Y-112464960D01*
X163818340Y-111677165D01*
X163790576Y-111594503D01*
X163830545Y-111594503D01*
X164064653Y-111547936D01*
X164263120Y-111415324D01*
X164351704Y-111282749D01*
X164874911Y-111282749D01*
X168576117Y-114983955D01*
X168637489Y-115075805D01*
X169001346Y-115318926D01*
X169322206Y-115382749D01*
X169430545Y-115404299D01*
X169538884Y-115382749D01*
X182874911Y-115382749D01*
X188446119Y-120953958D01*
X188507489Y-121045805D01*
X188871346Y-121288926D01*
X189300545Y-121374299D01*
X189408884Y-121352749D01*
X189681239Y-121352749D01*
X189717010Y-121406284D01*
X190246256Y-121759915D01*
X190712963Y-121852749D01*
X191028127Y-121852749D01*
X191494834Y-121759915D01*
X192024080Y-121406284D01*
X192377711Y-120877038D01*
X192501890Y-120252749D01*
X192377711Y-119628460D01*
X192024080Y-119099214D01*
X191844030Y-118978908D01*
X192249491Y-118524257D01*
X192419419Y-118113986D01*
X192312344Y-117866749D01*
X191024545Y-117866749D01*
X191024545Y-117886749D01*
X190716545Y-117886749D01*
X190716545Y-117866749D01*
X189428746Y-117866749D01*
X189321671Y-118113986D01*
X189491599Y-118524257D01*
X189897060Y-118978908D01*
X189717010Y-119099214D01*
X189711256Y-119107825D01*
X188316180Y-117712749D01*
X209559200Y-117712749D01*
X209683379Y-118337038D01*
X210037010Y-118866284D01*
X210211312Y-118982749D01*
X210037010Y-119099214D01*
X209683379Y-119628460D01*
X209559200Y-120252749D01*
X209683379Y-120877038D01*
X210037010Y-121406284D01*
X210566256Y-121759915D01*
X211032963Y-121852749D01*
X211348127Y-121852749D01*
X211814834Y-121759915D01*
X212344080Y-121406284D01*
X212697711Y-120877038D01*
X212821890Y-120252749D01*
X212697711Y-119628460D01*
X212344080Y-119099214D01*
X212169778Y-118982749D01*
X212344080Y-118866284D01*
X212697711Y-118337038D01*
X212821890Y-117712749D01*
X212697711Y-117088460D01*
X212344080Y-116559214D01*
X212164030Y-116438908D01*
X212569491Y-115984257D01*
X212739419Y-115573986D01*
X212632344Y-115326749D01*
X211344545Y-115326749D01*
X211344545Y-115346749D01*
X211036545Y-115346749D01*
X211036545Y-115326749D01*
X209748746Y-115326749D01*
X209641671Y-115573986D01*
X209811599Y-115984257D01*
X210217060Y-116438908D01*
X210037010Y-116559214D01*
X209683379Y-117088460D01*
X209559200Y-117712749D01*
X188316180Y-117712749D01*
X184184973Y-113581543D01*
X184123601Y-113489693D01*
X183759744Y-113246572D01*
X183438884Y-113182749D01*
X183330545Y-113161199D01*
X183222206Y-113182749D01*
X169886179Y-113182749D01*
X166184973Y-109481543D01*
X166123601Y-109389693D01*
X165759744Y-109146572D01*
X165438884Y-109082749D01*
X165330545Y-109061199D01*
X165222206Y-109082749D01*
X164351704Y-109082749D01*
X164263120Y-108950174D01*
X164064653Y-108817562D01*
X163830545Y-108770995D01*
X162230545Y-108770995D01*
X161996437Y-108817562D01*
X161797970Y-108950174D01*
X161709386Y-109082749D01*
X155122575Y-109082749D01*
X154908549Y-108868723D01*
X154899096Y-108864807D01*
X155081154Y-108682749D01*
X155792055Y-108682749D01*
X155890545Y-108702340D01*
X155989035Y-108682749D01*
X156280726Y-108624728D01*
X156403417Y-108542749D01*
X173395403Y-108542749D01*
X173032817Y-108785021D01*
X172634982Y-109380424D01*
X172495281Y-110082749D01*
X172634982Y-110785074D01*
X173032817Y-111380477D01*
X173628220Y-111778312D01*
X174153261Y-111882749D01*
X174507829Y-111882749D01*
X175032870Y-111778312D01*
X175628273Y-111380477D01*
X175826604Y-111083653D01*
X189613913Y-111091989D01*
X189717010Y-111246284D01*
X189891312Y-111362749D01*
X189717010Y-111479214D01*
X189363379Y-112008460D01*
X189239200Y-112632749D01*
X189363379Y-113257038D01*
X189717010Y-113786284D01*
X189891312Y-113902749D01*
X189717010Y-114019214D01*
X189363379Y-114548460D01*
X189239200Y-115172749D01*
X189363379Y-115797038D01*
X189717010Y-116326284D01*
X189897060Y-116446590D01*
X189491599Y-116901241D01*
X189321671Y-117311512D01*
X189428746Y-117558749D01*
X190716545Y-117558749D01*
X190716545Y-117538749D01*
X191024545Y-117538749D01*
X191024545Y-117558749D01*
X192312344Y-117558749D01*
X192419419Y-117311512D01*
X192249491Y-116901241D01*
X191844030Y-116446590D01*
X192024080Y-116326284D01*
X192377711Y-115797038D01*
X192501890Y-115172749D01*
X192377711Y-114548460D01*
X192024080Y-114019214D01*
X191849778Y-113902749D01*
X192024080Y-113786284D01*
X192377711Y-113257038D01*
X192501890Y-112632749D01*
X192377711Y-112008460D01*
X192024080Y-111479214D01*
X191849778Y-111362749D01*
X192024080Y-111246284D01*
X192377711Y-110717038D01*
X192501890Y-110092749D01*
X192377711Y-109468460D01*
X192024080Y-108939214D01*
X191849778Y-108822749D01*
X192024080Y-108706284D01*
X192377711Y-108177038D01*
X192501890Y-107552749D01*
X192377711Y-106928460D01*
X192024080Y-106399214D01*
X191849778Y-106282749D01*
X192024080Y-106166284D01*
X192377711Y-105637038D01*
X192501890Y-105012749D01*
X192377711Y-104388460D01*
X192024080Y-103859214D01*
X191849778Y-103742749D01*
X192024080Y-103626284D01*
X192377711Y-103097038D01*
X192501890Y-102472749D01*
X192377711Y-101848460D01*
X192024080Y-101319214D01*
X191849778Y-101202749D01*
X192024080Y-101086284D01*
X192377711Y-100557038D01*
X192501890Y-99932749D01*
X192377711Y-99308460D01*
X192024080Y-98779214D01*
X191844030Y-98658908D01*
X192249491Y-98204257D01*
X192419419Y-97793986D01*
X192312344Y-97546749D01*
X191024545Y-97546749D01*
X191024545Y-97566749D01*
X190716545Y-97566749D01*
X190716545Y-97546749D01*
X189428746Y-97546749D01*
X189321671Y-97793986D01*
X189491599Y-98204257D01*
X189897060Y-98658908D01*
X189717010Y-98779214D01*
X189363379Y-99308460D01*
X189239200Y-99932749D01*
X189363379Y-100557038D01*
X189717010Y-101086284D01*
X189891312Y-101202749D01*
X189717010Y-101319214D01*
X189363379Y-101848460D01*
X189239200Y-102472749D01*
X189363379Y-103097038D01*
X189717010Y-103626284D01*
X189891312Y-103742749D01*
X189717010Y-103859214D01*
X189614421Y-104012749D01*
X184747254Y-104012749D01*
X184528273Y-103685021D01*
X183932870Y-103287186D01*
X183407829Y-103182749D01*
X183053261Y-103182749D01*
X182528220Y-103287186D01*
X181932817Y-103685021D01*
X181720518Y-104002749D01*
X157949034Y-104002749D01*
X157850544Y-103983158D01*
X157460364Y-104060770D01*
X157129585Y-104281789D01*
X157073792Y-104365289D01*
X156756333Y-104682749D01*
X155081154Y-104682749D01*
X154862303Y-104463898D01*
X154927193Y-104297186D01*
X154030545Y-103400538D01*
X153133897Y-104297186D01*
X153198787Y-104463898D01*
X152801295Y-104861390D01*
X152580545Y-105394326D01*
X152580545Y-105971172D01*
X152801295Y-106504108D01*
X152979936Y-106682749D01*
X152801295Y-106861390D01*
X152580545Y-107394326D01*
X152580545Y-107971172D01*
X152801295Y-108504108D01*
X153161994Y-108864807D01*
X153152541Y-108868723D01*
X152716519Y-109304745D01*
X152480545Y-109874435D01*
X142730545Y-109874435D01*
X142730545Y-102965321D01*
X152465207Y-102965321D01*
X152501156Y-103580900D01*
X152667568Y-103982656D01*
X152916108Y-104079397D01*
X153812756Y-103182749D01*
X154248334Y-103182749D01*
X155144982Y-104079397D01*
X155393522Y-103982656D01*
X155595883Y-103400177D01*
X155559934Y-102784598D01*
X155393522Y-102382842D01*
X155144982Y-102286101D01*
X154248334Y-103182749D01*
X153812756Y-103182749D01*
X152916108Y-102286101D01*
X152667568Y-102382842D01*
X152465207Y-102965321D01*
X142730545Y-102965321D01*
X142730545Y-101733821D01*
X149917262Y-101733821D01*
X150099749Y-102055031D01*
X150935956Y-102374363D01*
X151830713Y-102349384D01*
X152509277Y-102068312D01*
X153133897Y-102068312D01*
X154030545Y-102964960D01*
X154927193Y-102068312D01*
X154830452Y-101819772D01*
X154247973Y-101617411D01*
X153632394Y-101653360D01*
X153230638Y-101819772D01*
X153133897Y-102068312D01*
X152509277Y-102068312D01*
X152541341Y-102055031D01*
X152723828Y-101733821D01*
X151320545Y-100330538D01*
X149917262Y-101733821D01*
X142730545Y-101733821D01*
X142730545Y-99728160D01*
X149058931Y-99728160D01*
X149083910Y-100622917D01*
X149378263Y-101333545D01*
X149699473Y-101516032D01*
X151102756Y-100112749D01*
X151538334Y-100112749D01*
X152941617Y-101516032D01*
X153262827Y-101333545D01*
X153582159Y-100497338D01*
X153557180Y-99602581D01*
X153262827Y-98891953D01*
X152941617Y-98709466D01*
X151538334Y-100112749D01*
X151102756Y-100112749D01*
X149699473Y-98709466D01*
X149378263Y-98891953D01*
X149058931Y-99728160D01*
X142730545Y-99728160D01*
X142730545Y-98491677D01*
X149917262Y-98491677D01*
X151320545Y-99894960D01*
X152723828Y-98491677D01*
X152541341Y-98170467D01*
X151705134Y-97851135D01*
X150810377Y-97876114D01*
X150099749Y-98170467D01*
X149917262Y-98491677D01*
X142730545Y-98491677D01*
X142730545Y-95086749D01*
X165830545Y-95086749D01*
X165830545Y-95802096D01*
X165921889Y-96022621D01*
X166090672Y-96191404D01*
X166267376Y-96264597D01*
X166058906Y-96473067D01*
X165830545Y-97024380D01*
X165830545Y-97621118D01*
X166058906Y-98172431D01*
X166480863Y-98594388D01*
X167032176Y-98822749D01*
X167628914Y-98822749D01*
X168180227Y-98594388D01*
X168451866Y-98322749D01*
X172771600Y-98322749D01*
X172804579Y-98402367D01*
X173310927Y-98908715D01*
X173972503Y-99182749D01*
X174688587Y-99182749D01*
X175350163Y-98908715D01*
X175856511Y-98402367D01*
X176130545Y-97740791D01*
X176130545Y-97024707D01*
X175856511Y-96363131D01*
X175571699Y-96078319D01*
X177952764Y-96078319D01*
X178080197Y-96352791D01*
X178753367Y-96596961D01*
X179468735Y-96564934D01*
X179980893Y-96352791D01*
X180108326Y-96078319D01*
X179030545Y-95000538D01*
X177952764Y-96078319D01*
X175571699Y-96078319D01*
X175350163Y-95856783D01*
X174688587Y-95582749D01*
X173972503Y-95582749D01*
X173310927Y-95856783D01*
X172844961Y-96322749D01*
X168451866Y-96322749D01*
X168393714Y-96264597D01*
X168570418Y-96191404D01*
X168739201Y-96022621D01*
X168830545Y-95802096D01*
X168830545Y-95086749D01*
X168680545Y-94936749D01*
X167484545Y-94936749D01*
X167484545Y-94956749D01*
X167176545Y-94956749D01*
X167176545Y-94936749D01*
X165980545Y-94936749D01*
X165830545Y-95086749D01*
X142730545Y-95086749D01*
X142730545Y-93763402D01*
X165830545Y-93763402D01*
X165830545Y-94478749D01*
X165980545Y-94628749D01*
X167176545Y-94628749D01*
X167176545Y-93432749D01*
X167484545Y-93432749D01*
X167484545Y-94628749D01*
X168680545Y-94628749D01*
X168803723Y-94505571D01*
X177216333Y-94505571D01*
X177248360Y-95220939D01*
X177460503Y-95733097D01*
X177734975Y-95860530D01*
X178812756Y-94782749D01*
X179248334Y-94782749D01*
X180326115Y-95860530D01*
X180600587Y-95733097D01*
X180844757Y-95059927D01*
X180812730Y-94344559D01*
X180600587Y-93832401D01*
X180326115Y-93704968D01*
X179248334Y-94782749D01*
X178812756Y-94782749D01*
X177734975Y-93704968D01*
X177460503Y-93832401D01*
X177216333Y-94505571D01*
X168803723Y-94505571D01*
X168830545Y-94478749D01*
X168830545Y-93763402D01*
X168739201Y-93542877D01*
X168683503Y-93487179D01*
X177952764Y-93487179D01*
X179030545Y-94564960D01*
X180017186Y-93578319D01*
X182152764Y-93578319D01*
X182280197Y-93852791D01*
X182953367Y-94096961D01*
X183668735Y-94064934D01*
X184180893Y-93852791D01*
X184308326Y-93578319D01*
X183230545Y-92500538D01*
X182152764Y-93578319D01*
X180017186Y-93578319D01*
X180108326Y-93487179D01*
X179980893Y-93212707D01*
X179307723Y-92968537D01*
X178592355Y-93000564D01*
X178080197Y-93212707D01*
X177952764Y-93487179D01*
X168683503Y-93487179D01*
X168570418Y-93374094D01*
X168349893Y-93282749D01*
X167634545Y-93282749D01*
X167484545Y-93432749D01*
X167176545Y-93432749D01*
X167026545Y-93282749D01*
X166311197Y-93282749D01*
X166090672Y-93374094D01*
X165921889Y-93542877D01*
X165830545Y-93763402D01*
X142730545Y-93763402D01*
X142730545Y-92005571D01*
X181416333Y-92005571D01*
X181448360Y-92720939D01*
X181660503Y-93233097D01*
X181934975Y-93360530D01*
X183012756Y-92282749D01*
X183448334Y-92282749D01*
X184526115Y-93360530D01*
X184800587Y-93233097D01*
X185044757Y-92559927D01*
X185012730Y-91844559D01*
X184800587Y-91332401D01*
X184526115Y-91204968D01*
X183448334Y-92282749D01*
X183012756Y-92282749D01*
X181934975Y-91204968D01*
X181660503Y-91332401D01*
X181416333Y-92005571D01*
X142730545Y-92005571D01*
X142730545Y-90987179D01*
X182152764Y-90987179D01*
X183230545Y-92064960D01*
X184308326Y-90987179D01*
X184180893Y-90712707D01*
X183507723Y-90468537D01*
X182792355Y-90500564D01*
X182280197Y-90712707D01*
X182152764Y-90987179D01*
X142730545Y-90987179D01*
X142730545Y-60847749D01*
X145310954Y-60847749D01*
X145330546Y-60946244D01*
X145330545Y-74884259D01*
X145310954Y-74982749D01*
X145351199Y-75185074D01*
X145388566Y-75372929D01*
X145609585Y-75703709D01*
X145693087Y-75759503D01*
X156653795Y-86720213D01*
X156709585Y-86803709D01*
X157040364Y-87024728D01*
X157332055Y-87082749D01*
X157430545Y-87102340D01*
X157529035Y-87082749D01*
X165333882Y-87082749D01*
X165532817Y-87380477D01*
X166128220Y-87778312D01*
X166653261Y-87882749D01*
X167007829Y-87882749D01*
X167532870Y-87778312D01*
X168128273Y-87380477D01*
X168526108Y-86785074D01*
X168665809Y-86082749D01*
X168526108Y-85380424D01*
X168128273Y-84785021D01*
X167532870Y-84387186D01*
X167007829Y-84282749D01*
X166653261Y-84282749D01*
X166128220Y-84387186D01*
X165532817Y-84785021D01*
X165333882Y-85082749D01*
X157844759Y-85082749D01*
X147330545Y-74568537D01*
X147330545Y-74396961D01*
X155553795Y-82620213D01*
X155609585Y-82703709D01*
X155719330Y-82777038D01*
X155940364Y-82924728D01*
X156330544Y-83002340D01*
X156429034Y-82982749D01*
X165333882Y-82982749D01*
X165532817Y-83280477D01*
X166128220Y-83678312D01*
X166653261Y-83782749D01*
X167007829Y-83782749D01*
X167532870Y-83678312D01*
X168128273Y-83280477D01*
X168526108Y-82685074D01*
X168665809Y-81982749D01*
X168526108Y-81280424D01*
X168128273Y-80685021D01*
X167532870Y-80287186D01*
X167007829Y-80182749D01*
X166653261Y-80182749D01*
X166128220Y-80287186D01*
X165532817Y-80685021D01*
X165333882Y-80982749D01*
X156744759Y-80982749D01*
X148918726Y-73156717D01*
X150104366Y-73156717D01*
X150329584Y-73514300D01*
X151292487Y-73892038D01*
X152326648Y-73872536D01*
X153191506Y-73514300D01*
X153416724Y-73156717D01*
X151760545Y-71500538D01*
X150104366Y-73156717D01*
X148918726Y-73156717D01*
X148830545Y-73068537D01*
X148830545Y-70814691D01*
X149151256Y-70814691D01*
X149170758Y-71848852D01*
X149528994Y-72713710D01*
X149886577Y-72938928D01*
X151542756Y-71282749D01*
X151978334Y-71282749D01*
X153634513Y-72938928D01*
X153992096Y-72713710D01*
X154369834Y-71750807D01*
X154350332Y-70716646D01*
X153992096Y-69851788D01*
X153634513Y-69626570D01*
X151978334Y-71282749D01*
X151542756Y-71282749D01*
X149886577Y-69626570D01*
X149528994Y-69851788D01*
X149151256Y-70814691D01*
X148830545Y-70814691D01*
X148830545Y-69408781D01*
X150104366Y-69408781D01*
X151760545Y-71064960D01*
X153416724Y-69408781D01*
X153191506Y-69051198D01*
X152228603Y-68673460D01*
X151194442Y-68692962D01*
X150329584Y-69051198D01*
X150104366Y-69408781D01*
X148830545Y-69408781D01*
X148830545Y-64587649D01*
X149057508Y-64814612D01*
X149572068Y-65027749D01*
X150129022Y-65027749D01*
X150643582Y-64814612D01*
X150824861Y-64633333D01*
X153022750Y-64633333D01*
X153101010Y-64866341D01*
X153629009Y-65043587D01*
X154184645Y-65005284D01*
X154520080Y-64866341D01*
X154598340Y-64633333D01*
X153810545Y-63845538D01*
X153022750Y-64633333D01*
X150824861Y-64633333D01*
X151037408Y-64420786D01*
X151250545Y-63906226D01*
X151250545Y-63764825D01*
X151649009Y-63898587D01*
X152204645Y-63860284D01*
X152417182Y-63772247D01*
X152433010Y-64001849D01*
X152571953Y-64337284D01*
X152804961Y-64415544D01*
X153592756Y-63627749D01*
X154028334Y-63627749D01*
X154816129Y-64415544D01*
X155049137Y-64337284D01*
X155226383Y-63809285D01*
X155188080Y-63253649D01*
X155049137Y-62918214D01*
X154816129Y-62839954D01*
X154028334Y-63627749D01*
X153592756Y-63627749D01*
X153578614Y-63613607D01*
X153796403Y-63395818D01*
X153810545Y-63409960D01*
X154598340Y-62622165D01*
X154570217Y-62538432D01*
X154603582Y-62524612D01*
X154997408Y-62130786D01*
X155210545Y-61616226D01*
X155210545Y-61059272D01*
X154997408Y-60544712D01*
X154645445Y-60192749D01*
X154790445Y-60047749D01*
X158981333Y-60047749D01*
X162730546Y-63796963D01*
X162730545Y-68981315D01*
X162710954Y-69079805D01*
X162730545Y-69178294D01*
X162788566Y-69469985D01*
X163009585Y-69800765D01*
X163093087Y-69856559D01*
X164356738Y-71120212D01*
X164412529Y-71203709D01*
X164659097Y-71368460D01*
X164743308Y-71424728D01*
X165133488Y-71502340D01*
X165231978Y-71482749D01*
X165333882Y-71482749D01*
X165532817Y-71780477D01*
X165830546Y-71979413D01*
X165830545Y-72986086D01*
X165532817Y-73185021D01*
X165134982Y-73780424D01*
X164995281Y-74482749D01*
X165134982Y-75185074D01*
X165532817Y-75780477D01*
X166128220Y-76178312D01*
X166653261Y-76282749D01*
X167007829Y-76282749D01*
X167532870Y-76178312D01*
X168128273Y-75780477D01*
X168526108Y-75185074D01*
X168665809Y-74482749D01*
X168526108Y-73780424D01*
X168128273Y-73185021D01*
X167830545Y-72986086D01*
X167830545Y-71979412D01*
X168128273Y-71780477D01*
X168526108Y-71185074D01*
X168665809Y-70482749D01*
X168526108Y-69780424D01*
X168128273Y-69185021D01*
X167532870Y-68787186D01*
X167007829Y-68682749D01*
X166653261Y-68682749D01*
X166128220Y-68787186D01*
X165532817Y-69185021D01*
X165419526Y-69354573D01*
X164730545Y-68665593D01*
X164730545Y-63481239D01*
X164750136Y-63382749D01*
X164672524Y-62992569D01*
X164672524Y-62992568D01*
X164451505Y-62661789D01*
X164368006Y-62605997D01*
X160172299Y-58410291D01*
X160116505Y-58326789D01*
X159785726Y-58105770D01*
X159494035Y-58047749D01*
X159395545Y-58028158D01*
X159297055Y-58047749D01*
X154790445Y-58047749D01*
X154645445Y-57902749D01*
X154790445Y-57757749D01*
X161791333Y-57757749D01*
X163153794Y-59120212D01*
X163209585Y-59203709D01*
X163392945Y-59326226D01*
X163540364Y-59424728D01*
X163930544Y-59502340D01*
X164029034Y-59482749D01*
X165333882Y-59482749D01*
X165532817Y-59780477D01*
X165830546Y-59979413D01*
X165830546Y-60986085D01*
X165532817Y-61185021D01*
X165134982Y-61780424D01*
X164995281Y-62482749D01*
X165134982Y-63185074D01*
X165532817Y-63780477D01*
X165830545Y-63979412D01*
X165830545Y-64986086D01*
X165532817Y-65185021D01*
X165134982Y-65780424D01*
X164995281Y-66482749D01*
X165134982Y-67185074D01*
X165532817Y-67780477D01*
X166128220Y-68178312D01*
X166653261Y-68282749D01*
X167007829Y-68282749D01*
X167532870Y-68178312D01*
X168128273Y-67780477D01*
X168526108Y-67185074D01*
X168665809Y-66482749D01*
X168526108Y-65780424D01*
X168128273Y-65185021D01*
X167830545Y-64986086D01*
X167830545Y-63979412D01*
X168128273Y-63780477D01*
X168526108Y-63185074D01*
X168665809Y-62482749D01*
X168526108Y-61780424D01*
X168128273Y-61185021D01*
X167830545Y-60986086D01*
X167830545Y-59979412D01*
X168128273Y-59780477D01*
X168526108Y-59185074D01*
X168665809Y-58482749D01*
X168526108Y-57780424D01*
X168128273Y-57185021D01*
X167532870Y-56787186D01*
X167007829Y-56682749D01*
X166653261Y-56682749D01*
X166128220Y-56787186D01*
X165532817Y-57185021D01*
X165333882Y-57482749D01*
X164344759Y-57482749D01*
X162982299Y-56120291D01*
X162926505Y-56036789D01*
X162595726Y-55815770D01*
X162304035Y-55757749D01*
X162205545Y-55738158D01*
X162107055Y-55757749D01*
X154957178Y-55757749D01*
X155043120Y-55700324D01*
X155175732Y-55501857D01*
X155179533Y-55482749D01*
X165333882Y-55482749D01*
X165532817Y-55780477D01*
X166128220Y-56178312D01*
X166653261Y-56282749D01*
X167007829Y-56282749D01*
X167532870Y-56178312D01*
X168128273Y-55780477D01*
X168526108Y-55185074D01*
X168665809Y-54482749D01*
X168526108Y-53780424D01*
X168128273Y-53185021D01*
X167830545Y-52986086D01*
X167830545Y-51979412D01*
X168128273Y-51780477D01*
X168526108Y-51185074D01*
X168665809Y-50482749D01*
X168526108Y-49780424D01*
X168128273Y-49185021D01*
X167830545Y-48986086D01*
X167830545Y-47979412D01*
X168128273Y-47780477D01*
X168526108Y-47185074D01*
X168665809Y-46482749D01*
X168594591Y-46124707D01*
X177730545Y-46124707D01*
X177730545Y-46840791D01*
X178004579Y-47502367D01*
X178510927Y-48008715D01*
X179172503Y-48282749D01*
X179888587Y-48282749D01*
X180550163Y-48008715D01*
X181056511Y-47502367D01*
X181064637Y-47482749D01*
X187806333Y-47482749D01*
X189270545Y-48946962D01*
X189270545Y-49451009D01*
X189514130Y-50039076D01*
X189883214Y-50408160D01*
X189717010Y-50519214D01*
X189043086Y-49845291D01*
X188987292Y-49761789D01*
X188656513Y-49540770D01*
X188364822Y-49482749D01*
X188266332Y-49463158D01*
X188167842Y-49482749D01*
X181064637Y-49482749D01*
X181056511Y-49463131D01*
X180550163Y-48956783D01*
X179888587Y-48682749D01*
X179172503Y-48682749D01*
X178510927Y-48956783D01*
X178004579Y-49463131D01*
X177730545Y-50124707D01*
X177730545Y-50840791D01*
X178004579Y-51502367D01*
X178510927Y-52008715D01*
X179172503Y-52282749D01*
X179888587Y-52282749D01*
X180550163Y-52008715D01*
X181056511Y-51502367D01*
X181064637Y-51482749D01*
X187852120Y-51482749D01*
X188679579Y-52310209D01*
X188735372Y-52393709D01*
X188946761Y-52534954D01*
X189066151Y-52614728D01*
X189456331Y-52692340D01*
X189554821Y-52672749D01*
X189614421Y-52672749D01*
X189717010Y-52826284D01*
X189891312Y-52942749D01*
X189717010Y-53059214D01*
X189614421Y-53212749D01*
X180806129Y-53212749D01*
X180550163Y-52956783D01*
X179888587Y-52682749D01*
X179172503Y-52682749D01*
X178510927Y-52956783D01*
X178004579Y-53463131D01*
X177730545Y-54124707D01*
X177730545Y-54840791D01*
X178004579Y-55502367D01*
X178510927Y-56008715D01*
X179172503Y-56282749D01*
X179888587Y-56282749D01*
X180550163Y-56008715D01*
X181056511Y-55502367D01*
X181176475Y-55212749D01*
X189614421Y-55212749D01*
X189717010Y-55366284D01*
X189891312Y-55482749D01*
X189717010Y-55599214D01*
X189614421Y-55752749D01*
X181359034Y-55752749D01*
X181260544Y-55733158D01*
X180870364Y-55810770D01*
X180539585Y-56031789D01*
X180483794Y-56115286D01*
X179908206Y-56690875D01*
X179888587Y-56682749D01*
X179172503Y-56682749D01*
X178510927Y-56956783D01*
X178004579Y-57463131D01*
X177730545Y-58124707D01*
X177730545Y-58840791D01*
X178004579Y-59502367D01*
X178510927Y-60008715D01*
X179172503Y-60282749D01*
X179888587Y-60282749D01*
X180550163Y-60008715D01*
X181056511Y-59502367D01*
X181330545Y-58840791D01*
X181330545Y-58124707D01*
X181322419Y-58105088D01*
X181674759Y-57752749D01*
X189614421Y-57752749D01*
X189717010Y-57906284D01*
X189891312Y-58022749D01*
X189717010Y-58139214D01*
X189614421Y-58292749D01*
X182819034Y-58292749D01*
X182720544Y-58273158D01*
X182450919Y-58326790D01*
X182330364Y-58350770D01*
X181999585Y-58571789D01*
X181943794Y-58655286D01*
X179908206Y-60690875D01*
X179888587Y-60682749D01*
X179172503Y-60682749D01*
X178510927Y-60956783D01*
X178004579Y-61463131D01*
X177730545Y-62124707D01*
X177730545Y-62840791D01*
X178004579Y-63502367D01*
X178510927Y-64008715D01*
X179172503Y-64282749D01*
X179888587Y-64282749D01*
X180550163Y-64008715D01*
X181056511Y-63502367D01*
X181330545Y-62840791D01*
X181330545Y-62124707D01*
X181322419Y-62105088D01*
X183134759Y-60292749D01*
X189614421Y-60292749D01*
X189717010Y-60446284D01*
X189891312Y-60562749D01*
X189717010Y-60679214D01*
X189614421Y-60832749D01*
X184279034Y-60832749D01*
X184180544Y-60813158D01*
X183790364Y-60890770D01*
X183459585Y-61111789D01*
X183403793Y-61195288D01*
X179908206Y-64690876D01*
X179888587Y-64682749D01*
X179172503Y-64682749D01*
X178510927Y-64956783D01*
X178004579Y-65463131D01*
X177730545Y-66124707D01*
X177730545Y-66840791D01*
X178004579Y-67502367D01*
X178510927Y-68008715D01*
X179172503Y-68282749D01*
X179888587Y-68282749D01*
X180550163Y-68008715D01*
X181056511Y-67502367D01*
X181330545Y-66840791D01*
X181330545Y-66124707D01*
X181322418Y-66105088D01*
X184594758Y-62832749D01*
X189614421Y-62832749D01*
X189717010Y-62986284D01*
X189891312Y-63102749D01*
X189717010Y-63219214D01*
X189614421Y-63372749D01*
X185739035Y-63372749D01*
X185640545Y-63353158D01*
X185354983Y-63409960D01*
X185250364Y-63430770D01*
X184919585Y-63651789D01*
X184863793Y-63735288D01*
X179908206Y-68690876D01*
X179888587Y-68682749D01*
X179172503Y-68682749D01*
X178510927Y-68956783D01*
X178004579Y-69463131D01*
X177730545Y-70124707D01*
X177730545Y-70840791D01*
X178004579Y-71502367D01*
X178510927Y-72008715D01*
X179172503Y-72282749D01*
X179888587Y-72282749D01*
X180550163Y-72008715D01*
X181056511Y-71502367D01*
X181330545Y-70840791D01*
X181330545Y-70124707D01*
X181322418Y-70105088D01*
X186054758Y-65372749D01*
X189614421Y-65372749D01*
X189717010Y-65526284D01*
X189891312Y-65642749D01*
X189717010Y-65759214D01*
X189614421Y-65912749D01*
X187199035Y-65912749D01*
X187100545Y-65893158D01*
X187002055Y-65912749D01*
X186710364Y-65970770D01*
X186379585Y-66191789D01*
X186323793Y-66275288D01*
X179908206Y-72690876D01*
X179888587Y-72682749D01*
X179172503Y-72682749D01*
X178510927Y-72956783D01*
X178004579Y-73463131D01*
X177730545Y-74124707D01*
X177730545Y-74840791D01*
X178004579Y-75502367D01*
X178510927Y-76008715D01*
X179172503Y-76282749D01*
X179888587Y-76282749D01*
X180550163Y-76008715D01*
X181056511Y-75502367D01*
X181330545Y-74840791D01*
X181330545Y-74124707D01*
X181322418Y-74105088D01*
X187514758Y-67912749D01*
X189614421Y-67912749D01*
X189717010Y-68066284D01*
X189891312Y-68182749D01*
X189717010Y-68299214D01*
X189614421Y-68452749D01*
X188659035Y-68452749D01*
X188560545Y-68433158D01*
X188261861Y-68492570D01*
X188170364Y-68510770D01*
X187839585Y-68731789D01*
X187783793Y-68815289D01*
X184393085Y-72205997D01*
X184309586Y-72261789D01*
X184175036Y-72463158D01*
X184088566Y-72592569D01*
X184010954Y-72982749D01*
X184030546Y-73081244D01*
X184030545Y-78268536D01*
X181316333Y-80982749D01*
X181064637Y-80982749D01*
X181056511Y-80963131D01*
X180550163Y-80456783D01*
X179888587Y-80182749D01*
X179172503Y-80182749D01*
X178510927Y-80456783D01*
X178004579Y-80963131D01*
X177730545Y-81624707D01*
X177730545Y-82340791D01*
X178004579Y-83002367D01*
X178510927Y-83508715D01*
X179172503Y-83782749D01*
X179888587Y-83782749D01*
X180550163Y-83508715D01*
X181056511Y-83002367D01*
X181064637Y-82982749D01*
X181632055Y-82982749D01*
X181730545Y-83002340D01*
X181829035Y-82982749D01*
X182120726Y-82924728D01*
X182451505Y-82703709D01*
X182507299Y-82620207D01*
X185668006Y-79459501D01*
X185751505Y-79403709D01*
X185972524Y-79072930D01*
X186030545Y-78781239D01*
X186030545Y-81268536D01*
X182216333Y-85082749D01*
X181064637Y-85082749D01*
X181056511Y-85063131D01*
X180550163Y-84556783D01*
X179888587Y-84282749D01*
X179172503Y-84282749D01*
X178510927Y-84556783D01*
X178004579Y-85063131D01*
X177730545Y-85724707D01*
X177730545Y-86440791D01*
X178004579Y-87102367D01*
X178510927Y-87608715D01*
X179172503Y-87882749D01*
X179888587Y-87882749D01*
X180550163Y-87608715D01*
X181056511Y-87102367D01*
X181064637Y-87082749D01*
X182532055Y-87082749D01*
X182630545Y-87102340D01*
X182729035Y-87082749D01*
X183020726Y-87024728D01*
X183351505Y-86803709D01*
X183407299Y-86720207D01*
X187668006Y-82459501D01*
X187751505Y-82403709D01*
X187972524Y-82072930D01*
X188030545Y-81781239D01*
X188030545Y-81781238D01*
X188050136Y-81682749D01*
X188030545Y-81584259D01*
X188030545Y-75396961D01*
X189324726Y-74102781D01*
X189239200Y-74532749D01*
X189363379Y-75157038D01*
X189717010Y-75686284D01*
X189891312Y-75802749D01*
X189717010Y-75919214D01*
X189363379Y-76448460D01*
X189239200Y-77072749D01*
X189363379Y-77697038D01*
X189717010Y-78226284D01*
X189891312Y-78342749D01*
X189717010Y-78459214D01*
X189363379Y-78988460D01*
X189239200Y-79612749D01*
X189363379Y-80237038D01*
X189717010Y-80766284D01*
X189891312Y-80882749D01*
X189717010Y-80999214D01*
X189363379Y-81528460D01*
X189239200Y-82152749D01*
X189363379Y-82777038D01*
X189717010Y-83306284D01*
X189891312Y-83422749D01*
X189717010Y-83539214D01*
X189363379Y-84068460D01*
X189239200Y-84692749D01*
X189363379Y-85317038D01*
X189717010Y-85846284D01*
X189891312Y-85962749D01*
X189717010Y-86079214D01*
X189363379Y-86608460D01*
X189239200Y-87232749D01*
X189363379Y-87857038D01*
X189717010Y-88386284D01*
X189891312Y-88502749D01*
X189717010Y-88619214D01*
X189363379Y-89148460D01*
X189239200Y-89772749D01*
X189363379Y-90397038D01*
X189717010Y-90926284D01*
X189891312Y-91042749D01*
X189717010Y-91159214D01*
X189363379Y-91688460D01*
X189239200Y-92312749D01*
X189363379Y-92937038D01*
X189717010Y-93466284D01*
X189891312Y-93582749D01*
X189717010Y-93699214D01*
X189363379Y-94228460D01*
X189239200Y-94852749D01*
X189363379Y-95477038D01*
X189717010Y-96006284D01*
X189897060Y-96126590D01*
X189491599Y-96581241D01*
X189321671Y-96991512D01*
X189428746Y-97238749D01*
X190716545Y-97238749D01*
X190716545Y-97218749D01*
X191024545Y-97218749D01*
X191024545Y-97238749D01*
X192312344Y-97238749D01*
X192419419Y-96991512D01*
X192249491Y-96581241D01*
X191844030Y-96126590D01*
X192024080Y-96006284D01*
X192377711Y-95477038D01*
X192501890Y-94852749D01*
X192377711Y-94228460D01*
X192024080Y-93699214D01*
X191849778Y-93582749D01*
X192024080Y-93466284D01*
X192377711Y-92937038D01*
X192501890Y-92312749D01*
X192377711Y-91688460D01*
X192024080Y-91159214D01*
X191849778Y-91042749D01*
X192024080Y-90926284D01*
X192377711Y-90397038D01*
X192501890Y-89772749D01*
X192377711Y-89148460D01*
X192024080Y-88619214D01*
X191849778Y-88502749D01*
X192024080Y-88386284D01*
X192377711Y-87857038D01*
X192501890Y-87232749D01*
X192377711Y-86608460D01*
X192024080Y-86079214D01*
X191849778Y-85962749D01*
X192024080Y-85846284D01*
X192377711Y-85317038D01*
X192501890Y-84692749D01*
X192377711Y-84068460D01*
X192024080Y-83539214D01*
X191849778Y-83422749D01*
X192024080Y-83306284D01*
X192377711Y-82777038D01*
X192501890Y-82152749D01*
X192377711Y-81528460D01*
X192024080Y-80999214D01*
X191849778Y-80882749D01*
X192024080Y-80766284D01*
X192377711Y-80237038D01*
X192501890Y-79612749D01*
X192377711Y-78988460D01*
X192024080Y-78459214D01*
X191849778Y-78342749D01*
X192024080Y-78226284D01*
X192377711Y-77697038D01*
X192501890Y-77072749D01*
X192377711Y-76448460D01*
X192024080Y-75919214D01*
X191849778Y-75802749D01*
X192024080Y-75686284D01*
X192377711Y-75157038D01*
X192501890Y-74532749D01*
X192377711Y-73908460D01*
X192024080Y-73379214D01*
X191849778Y-73262749D01*
X192024080Y-73146284D01*
X192377711Y-72617038D01*
X192501890Y-71992749D01*
X192377711Y-71368460D01*
X192024080Y-70839214D01*
X191849778Y-70722749D01*
X192024080Y-70606284D01*
X192377711Y-70077038D01*
X192501890Y-69452749D01*
X192377711Y-68828460D01*
X192024080Y-68299214D01*
X191849778Y-68182749D01*
X192024080Y-68066284D01*
X192377711Y-67537038D01*
X192501890Y-66912749D01*
X192377711Y-66288460D01*
X192024080Y-65759214D01*
X191849778Y-65642749D01*
X192024080Y-65526284D01*
X192377711Y-64997038D01*
X192501890Y-64372749D01*
X192377711Y-63748460D01*
X192024080Y-63219214D01*
X191849778Y-63102749D01*
X192024080Y-62986284D01*
X192377711Y-62457038D01*
X192501890Y-61832749D01*
X192377711Y-61208460D01*
X192024080Y-60679214D01*
X191849778Y-60562749D01*
X192024080Y-60446284D01*
X192377711Y-59917038D01*
X192501890Y-59292749D01*
X192377711Y-58668460D01*
X192024080Y-58139214D01*
X191849778Y-58022749D01*
X192024080Y-57906284D01*
X192377711Y-57377038D01*
X192501890Y-56752749D01*
X209559200Y-56752749D01*
X209683379Y-57377038D01*
X210037010Y-57906284D01*
X210211312Y-58022749D01*
X210037010Y-58139214D01*
X209683379Y-58668460D01*
X209559200Y-59292749D01*
X209683379Y-59917038D01*
X210037010Y-60446284D01*
X210211312Y-60562749D01*
X210037010Y-60679214D01*
X209683379Y-61208460D01*
X209559200Y-61832749D01*
X209683379Y-62457038D01*
X210037010Y-62986284D01*
X210211312Y-63102749D01*
X210037010Y-63219214D01*
X209683379Y-63748460D01*
X209559200Y-64372749D01*
X209683379Y-64997038D01*
X210037010Y-65526284D01*
X210211312Y-65642749D01*
X210037010Y-65759214D01*
X209683379Y-66288460D01*
X209559200Y-66912749D01*
X209683379Y-67537038D01*
X210037010Y-68066284D01*
X210211312Y-68182749D01*
X210037010Y-68299214D01*
X209683379Y-68828460D01*
X209559200Y-69452749D01*
X209683379Y-70077038D01*
X210037010Y-70606284D01*
X210211312Y-70722749D01*
X210037010Y-70839214D01*
X209683379Y-71368460D01*
X209559200Y-71992749D01*
X209683379Y-72617038D01*
X210037010Y-73146284D01*
X210211312Y-73262749D01*
X210037010Y-73379214D01*
X209683379Y-73908460D01*
X209559200Y-74532749D01*
X209683379Y-75157038D01*
X210037010Y-75686284D01*
X210211312Y-75802749D01*
X210037010Y-75919214D01*
X209683379Y-76448460D01*
X209559200Y-77072749D01*
X209683379Y-77697038D01*
X210037010Y-78226284D01*
X210211312Y-78342749D01*
X210037010Y-78459214D01*
X209683379Y-78988460D01*
X209559200Y-79612749D01*
X209683379Y-80237038D01*
X210037010Y-80766284D01*
X210211312Y-80882749D01*
X210037010Y-80999214D01*
X209683379Y-81528460D01*
X209559200Y-82152749D01*
X209683379Y-82777038D01*
X210037010Y-83306284D01*
X210211312Y-83422749D01*
X210037010Y-83539214D01*
X209683379Y-84068460D01*
X209559200Y-84692749D01*
X209683379Y-85317038D01*
X210037010Y-85846284D01*
X210211312Y-85962749D01*
X210037010Y-86079214D01*
X209683379Y-86608460D01*
X209559200Y-87232749D01*
X209683379Y-87857038D01*
X210037010Y-88386284D01*
X210211312Y-88502749D01*
X210037010Y-88619214D01*
X209683379Y-89148460D01*
X209559200Y-89772749D01*
X209683379Y-90397038D01*
X210037010Y-90926284D01*
X210211312Y-91042749D01*
X210037010Y-91159214D01*
X209683379Y-91688460D01*
X209559200Y-92312749D01*
X209683379Y-92937038D01*
X210037010Y-93466284D01*
X210211312Y-93582749D01*
X210037010Y-93699214D01*
X209683379Y-94228460D01*
X209559200Y-94852749D01*
X209683379Y-95477038D01*
X210037010Y-96006284D01*
X210211312Y-96122749D01*
X210037010Y-96239214D01*
X209683379Y-96768460D01*
X209559200Y-97392749D01*
X209683379Y-98017038D01*
X210037010Y-98546284D01*
X210211312Y-98662749D01*
X210037010Y-98779214D01*
X209683379Y-99308460D01*
X209559200Y-99932749D01*
X209683379Y-100557038D01*
X210037010Y-101086284D01*
X210211312Y-101202749D01*
X210037010Y-101319214D01*
X209683379Y-101848460D01*
X209559200Y-102472749D01*
X209683379Y-103097038D01*
X210037010Y-103626284D01*
X210211312Y-103742749D01*
X210037010Y-103859214D01*
X209683379Y-104388460D01*
X209559200Y-105012749D01*
X209683379Y-105637038D01*
X210037010Y-106166284D01*
X210211312Y-106282749D01*
X210037010Y-106399214D01*
X209683379Y-106928460D01*
X209559200Y-107552749D01*
X209683379Y-108177038D01*
X210037010Y-108706284D01*
X210211312Y-108822749D01*
X210037010Y-108939214D01*
X209683379Y-109468460D01*
X209559200Y-110092749D01*
X209683379Y-110717038D01*
X210037010Y-111246284D01*
X210211312Y-111362749D01*
X210037010Y-111479214D01*
X209683379Y-112008460D01*
X209559200Y-112632749D01*
X209683379Y-113257038D01*
X210037010Y-113786284D01*
X210217060Y-113906590D01*
X209811599Y-114361241D01*
X209641671Y-114771512D01*
X209748746Y-115018749D01*
X211036545Y-115018749D01*
X211036545Y-114998749D01*
X211344545Y-114998749D01*
X211344545Y-115018749D01*
X212632344Y-115018749D01*
X212739419Y-114771512D01*
X212569491Y-114361241D01*
X212164030Y-113906590D01*
X212344080Y-113786284D01*
X212697711Y-113257038D01*
X212821890Y-112632749D01*
X212697711Y-112008460D01*
X212344080Y-111479214D01*
X212169778Y-111362749D01*
X212344080Y-111246284D01*
X212697711Y-110717038D01*
X212821890Y-110092749D01*
X212697711Y-109468460D01*
X212344080Y-108939214D01*
X212169778Y-108822749D01*
X212344080Y-108706284D01*
X212697711Y-108177038D01*
X212821890Y-107552749D01*
X212697711Y-106928460D01*
X212344080Y-106399214D01*
X212169778Y-106282749D01*
X212344080Y-106166284D01*
X212697711Y-105637038D01*
X212752737Y-105360400D01*
X228230588Y-105360400D01*
X228373576Y-105705635D01*
X228745894Y-106131630D01*
X229252892Y-106382718D01*
X229476545Y-106274560D01*
X229476545Y-105136749D01*
X229784545Y-105136749D01*
X229784545Y-106274560D01*
X230008198Y-106382718D01*
X230515196Y-106131630D01*
X230887514Y-105705635D01*
X231030502Y-105360400D01*
X230921391Y-105136749D01*
X229784545Y-105136749D01*
X229476545Y-105136749D01*
X228339699Y-105136749D01*
X228230588Y-105360400D01*
X212752737Y-105360400D01*
X212821890Y-105012749D01*
X212697711Y-104388460D01*
X212344080Y-103859214D01*
X212169778Y-103742749D01*
X212344080Y-103626284D01*
X212446669Y-103472749D01*
X228574868Y-103472749D01*
X228585153Y-103488141D01*
X228950741Y-103732419D01*
X228745894Y-103833868D01*
X228373576Y-104259863D01*
X228230588Y-104605098D01*
X228339699Y-104828749D01*
X229476545Y-104828749D01*
X229476545Y-104808749D01*
X229784545Y-104808749D01*
X229784545Y-104828749D01*
X230921391Y-104828749D01*
X231030502Y-104605098D01*
X230887514Y-104259863D01*
X230515196Y-103833868D01*
X230310349Y-103732419D01*
X230675937Y-103488141D01*
X230996415Y-103008511D01*
X231108952Y-102442749D01*
X230996415Y-101876987D01*
X230675937Y-101397357D01*
X230593224Y-101342090D01*
X230714653Y-101317936D01*
X230913120Y-101185324D01*
X231045732Y-100986857D01*
X231092299Y-100752749D01*
X231092299Y-99052749D01*
X231045732Y-98818641D01*
X230913120Y-98620174D01*
X230714653Y-98487562D01*
X230480545Y-98440995D01*
X228780545Y-98440995D01*
X228546437Y-98487562D01*
X228347970Y-98620174D01*
X228215358Y-98818641D01*
X228198628Y-98902749D01*
X212426623Y-98902749D01*
X212344080Y-98779214D01*
X212169778Y-98662749D01*
X212344080Y-98546284D01*
X212697711Y-98017038D01*
X212821890Y-97392749D01*
X212697711Y-96768460D01*
X212344080Y-96239214D01*
X212169778Y-96122749D01*
X212344080Y-96006284D01*
X212697711Y-95477038D01*
X212821890Y-94852749D01*
X212697711Y-94228460D01*
X212344080Y-93699214D01*
X212169778Y-93582749D01*
X212344080Y-93466284D01*
X212697711Y-92937038D01*
X212821890Y-92312749D01*
X212697711Y-91688460D01*
X212344080Y-91159214D01*
X212169778Y-91042749D01*
X212344080Y-90926284D01*
X212697711Y-90397038D01*
X212821890Y-89772749D01*
X212697711Y-89148460D01*
X212344080Y-88619214D01*
X212169778Y-88502749D01*
X212344080Y-88386284D01*
X212697711Y-87857038D01*
X212821890Y-87232749D01*
X212697711Y-86608460D01*
X212344080Y-86079214D01*
X212169778Y-85962749D01*
X212344080Y-85846284D01*
X212697711Y-85317038D01*
X212821890Y-84692749D01*
X212697711Y-84068460D01*
X212344080Y-83539214D01*
X212169778Y-83422749D01*
X212344080Y-83306284D01*
X212697711Y-82777038D01*
X212821890Y-82152749D01*
X212697711Y-81528460D01*
X212344080Y-80999214D01*
X212169778Y-80882749D01*
X212344080Y-80766284D01*
X212697711Y-80237038D01*
X212821890Y-79612749D01*
X212697711Y-78988460D01*
X212344080Y-78459214D01*
X212169778Y-78342749D01*
X212344080Y-78226284D01*
X212697711Y-77697038D01*
X212821890Y-77072749D01*
X212697711Y-76448460D01*
X212344080Y-75919214D01*
X212169778Y-75802749D01*
X212344080Y-75686284D01*
X212652496Y-75224707D01*
X215530545Y-75224707D01*
X215530545Y-75940791D01*
X215804579Y-76602367D01*
X216310927Y-77108715D01*
X216972503Y-77382749D01*
X217688587Y-77382749D01*
X218350163Y-77108715D01*
X218856511Y-76602367D01*
X219130545Y-75940791D01*
X219130545Y-75224707D01*
X218856511Y-74563131D01*
X218350163Y-74056783D01*
X218330545Y-74048657D01*
X218330545Y-73896961D01*
X222344759Y-69882749D01*
X225969224Y-69882749D01*
X226240863Y-70154388D01*
X226792176Y-70382749D01*
X227388914Y-70382749D01*
X227940227Y-70154388D01*
X228148697Y-69945918D01*
X228221890Y-70122622D01*
X228390673Y-70291405D01*
X228611198Y-70382749D01*
X229326545Y-70382749D01*
X229476545Y-70232749D01*
X229476545Y-69036749D01*
X229784545Y-69036749D01*
X229784545Y-70232749D01*
X229934545Y-70382749D01*
X230649892Y-70382749D01*
X230870417Y-70291405D01*
X231039200Y-70122622D01*
X231130545Y-69902097D01*
X231130545Y-69186749D01*
X230980545Y-69036749D01*
X229784545Y-69036749D01*
X229476545Y-69036749D01*
X229456545Y-69036749D01*
X229456545Y-68728749D01*
X229476545Y-68728749D01*
X229476545Y-67532749D01*
X229784545Y-67532749D01*
X229784545Y-68728749D01*
X230980545Y-68728749D01*
X231130545Y-68578749D01*
X231130545Y-67863401D01*
X231039200Y-67642876D01*
X230870417Y-67474093D01*
X230649892Y-67382749D01*
X229934545Y-67382749D01*
X229784545Y-67532749D01*
X229476545Y-67532749D01*
X229326545Y-67382749D01*
X228611198Y-67382749D01*
X228390673Y-67474093D01*
X228221890Y-67642876D01*
X228148697Y-67819580D01*
X227940227Y-67611110D01*
X227388914Y-67382749D01*
X226792176Y-67382749D01*
X226240863Y-67611110D01*
X225969224Y-67882749D01*
X222029034Y-67882749D01*
X221930544Y-67863158D01*
X221540364Y-67940770D01*
X221209585Y-68161789D01*
X221153794Y-68245286D01*
X216693087Y-72705995D01*
X216609585Y-72761789D01*
X216388567Y-73092568D01*
X216388566Y-73092569D01*
X216310954Y-73482749D01*
X216330545Y-73581238D01*
X216330545Y-74048657D01*
X216310927Y-74056783D01*
X215804579Y-74563131D01*
X215530545Y-75224707D01*
X212652496Y-75224707D01*
X212697711Y-75157038D01*
X212821890Y-74532749D01*
X212697711Y-73908460D01*
X212344080Y-73379214D01*
X212169778Y-73262749D01*
X212344080Y-73146284D01*
X212697711Y-72617038D01*
X212821890Y-71992749D01*
X212697711Y-71368460D01*
X212344080Y-70839214D01*
X212169778Y-70722749D01*
X212344080Y-70606284D01*
X212697711Y-70077038D01*
X212821890Y-69452749D01*
X212697711Y-68828460D01*
X212344080Y-68299214D01*
X212169778Y-68182749D01*
X212344080Y-68066284D01*
X212697711Y-67537038D01*
X212821890Y-66912749D01*
X212697711Y-66288460D01*
X212344080Y-65759214D01*
X212169778Y-65642749D01*
X212344080Y-65526284D01*
X212697711Y-64997038D01*
X212821890Y-64372749D01*
X212697711Y-63748460D01*
X212344080Y-63219214D01*
X212169778Y-63102749D01*
X212344080Y-62986284D01*
X212697711Y-62457038D01*
X212821890Y-61832749D01*
X212697711Y-61208460D01*
X212344080Y-60679214D01*
X212169778Y-60562749D01*
X212344080Y-60446284D01*
X212446669Y-60292749D01*
X213326333Y-60292749D01*
X215565138Y-62531555D01*
X215495281Y-62882749D01*
X215634982Y-63585074D01*
X216032817Y-64180477D01*
X216628220Y-64578312D01*
X217153261Y-64682749D01*
X217507829Y-64682749D01*
X218032870Y-64578312D01*
X218628273Y-64180477D01*
X219026108Y-63585074D01*
X219165809Y-62882749D01*
X219026108Y-62180424D01*
X218628273Y-61585021D01*
X218032870Y-61187186D01*
X217507829Y-61082749D01*
X217153261Y-61082749D01*
X216979351Y-61117342D01*
X214517299Y-58655291D01*
X214461505Y-58571789D01*
X214130726Y-58350770D01*
X213839035Y-58292749D01*
X213740545Y-58273158D01*
X213642055Y-58292749D01*
X212446669Y-58292749D01*
X212344080Y-58139214D01*
X212169778Y-58022749D01*
X212344080Y-57906284D01*
X212446669Y-57752749D01*
X220986333Y-57752749D01*
X224653793Y-61420210D01*
X224709585Y-61503709D01*
X225040364Y-61724728D01*
X225332055Y-61782749D01*
X225430545Y-61802340D01*
X225529035Y-61782749D01*
X228198628Y-61782749D01*
X228215358Y-61866857D01*
X228347970Y-62065324D01*
X228546437Y-62197936D01*
X228780545Y-62244503D01*
X230480545Y-62244503D01*
X230714653Y-62197936D01*
X230913120Y-62065324D01*
X231045732Y-61866857D01*
X231092299Y-61632749D01*
X231092299Y-59932749D01*
X231045732Y-59698641D01*
X230913120Y-59500174D01*
X230714653Y-59367562D01*
X230593224Y-59343408D01*
X230675937Y-59288141D01*
X230996415Y-58808511D01*
X231108952Y-58242749D01*
X230996415Y-57676987D01*
X230675937Y-57197357D01*
X230339787Y-56972749D01*
X230675937Y-56748141D01*
X230996415Y-56268511D01*
X231108952Y-55702749D01*
X230996415Y-55136987D01*
X230675937Y-54657357D01*
X230339787Y-54432749D01*
X230675937Y-54208141D01*
X230996415Y-53728511D01*
X231108952Y-53162749D01*
X230996415Y-52596987D01*
X230675937Y-52117357D01*
X230339787Y-51892749D01*
X230675937Y-51668141D01*
X230996415Y-51188511D01*
X231108952Y-50622749D01*
X230996415Y-50056987D01*
X230675937Y-49577357D01*
X230310349Y-49333079D01*
X230515196Y-49231630D01*
X230887514Y-48805635D01*
X231030502Y-48460400D01*
X230921391Y-48236749D01*
X229784545Y-48236749D01*
X229784545Y-48256749D01*
X229476545Y-48256749D01*
X229476545Y-48236749D01*
X228339699Y-48236749D01*
X228230588Y-48460400D01*
X228373576Y-48805635D01*
X228745894Y-49231630D01*
X228950741Y-49333079D01*
X228585153Y-49577357D01*
X228554823Y-49622749D01*
X228484758Y-49622749D01*
X227357299Y-48495291D01*
X227301505Y-48411789D01*
X226970726Y-48190770D01*
X226679035Y-48132749D01*
X226580545Y-48113158D01*
X226482055Y-48132749D01*
X212802299Y-48132749D01*
X212755732Y-47898641D01*
X212626411Y-47705098D01*
X228230588Y-47705098D01*
X228339699Y-47928749D01*
X229476545Y-47928749D01*
X229476545Y-46790938D01*
X229784545Y-46790938D01*
X229784545Y-47928749D01*
X230921391Y-47928749D01*
X231030502Y-47705098D01*
X230887514Y-47359863D01*
X230515196Y-46933868D01*
X230008198Y-46682780D01*
X229784545Y-46790938D01*
X229476545Y-46790938D01*
X229252892Y-46682780D01*
X228745894Y-46933868D01*
X228373576Y-47359863D01*
X228230588Y-47705098D01*
X212626411Y-47705098D01*
X212623120Y-47700174D01*
X212424653Y-47567562D01*
X212190545Y-47520995D01*
X210190545Y-47520995D01*
X209956437Y-47567562D01*
X209757970Y-47700174D01*
X209625358Y-47898641D01*
X209578791Y-48132749D01*
X209578791Y-50132749D01*
X209625358Y-50366857D01*
X209757970Y-50565324D01*
X209924174Y-50676378D01*
X209834130Y-50766422D01*
X209590545Y-51354489D01*
X209590545Y-51991009D01*
X209834130Y-52579076D01*
X210197803Y-52942749D01*
X209834130Y-53306422D01*
X209590545Y-53894489D01*
X209590545Y-54531009D01*
X209834130Y-55119076D01*
X210203214Y-55488160D01*
X210037010Y-55599214D01*
X209683379Y-56128460D01*
X209559200Y-56752749D01*
X192501890Y-56752749D01*
X192377711Y-56128460D01*
X192024080Y-55599214D01*
X191849778Y-55482749D01*
X192024080Y-55366284D01*
X192377711Y-54837038D01*
X192501890Y-54212749D01*
X192377711Y-53588460D01*
X192024080Y-53059214D01*
X191849778Y-52942749D01*
X192024080Y-52826284D01*
X192377711Y-52297038D01*
X192501890Y-51672749D01*
X192377711Y-51048460D01*
X192024080Y-50519214D01*
X191857876Y-50408160D01*
X192226960Y-50039076D01*
X192470545Y-49451009D01*
X192470545Y-48814489D01*
X192226960Y-48226422D01*
X191776872Y-47776334D01*
X191188805Y-47532749D01*
X190684758Y-47532749D01*
X188997299Y-45845291D01*
X188941505Y-45761789D01*
X188610726Y-45540770D01*
X188319035Y-45482749D01*
X188220545Y-45463158D01*
X188122055Y-45482749D01*
X181064637Y-45482749D01*
X181056511Y-45463131D01*
X180550163Y-44956783D01*
X179888587Y-44682749D01*
X179172503Y-44682749D01*
X178510927Y-44956783D01*
X178004579Y-45463131D01*
X177730545Y-46124707D01*
X168594591Y-46124707D01*
X168526108Y-45780424D01*
X168128273Y-45185021D01*
X167532870Y-44787186D01*
X167007829Y-44682749D01*
X166653261Y-44682749D01*
X166128220Y-44787186D01*
X165532817Y-45185021D01*
X165134982Y-45780424D01*
X164995281Y-46482749D01*
X165134982Y-47185074D01*
X165532817Y-47780477D01*
X165830545Y-47979412D01*
X165830546Y-48986085D01*
X165532817Y-49185021D01*
X165134982Y-49780424D01*
X164995281Y-50482749D01*
X165134982Y-51185074D01*
X165532817Y-51780477D01*
X165830546Y-51979413D01*
X165830545Y-52986086D01*
X165532817Y-53185021D01*
X165333882Y-53482749D01*
X155185500Y-53482749D01*
X155175732Y-53433641D01*
X155043120Y-53235174D01*
X154844653Y-53102562D01*
X154610545Y-53055995D01*
X153215480Y-53055995D01*
X153208080Y-52948649D01*
X153069137Y-52613214D01*
X152836129Y-52534954D01*
X152048334Y-53322749D01*
X152062476Y-53336891D01*
X151844687Y-53554680D01*
X151830545Y-53540538D01*
X151816403Y-53554680D01*
X151598614Y-53336891D01*
X151612756Y-53322749D01*
X150824961Y-52534954D01*
X150591953Y-52613214D01*
X150414707Y-53141213D01*
X150417891Y-53187402D01*
X150129022Y-53067749D01*
X149572068Y-53067749D01*
X149057508Y-53280886D01*
X148663682Y-53674712D01*
X148450545Y-54189272D01*
X148450545Y-54746226D01*
X148663682Y-55260786D01*
X149015645Y-55612749D01*
X148663682Y-55964712D01*
X148450545Y-56479272D01*
X148450545Y-57036226D01*
X148663682Y-57550786D01*
X149015645Y-57902749D01*
X148870645Y-58047749D01*
X148229034Y-58047749D01*
X148130544Y-58028158D01*
X147848376Y-58084285D01*
X147740364Y-58105770D01*
X147409585Y-58326789D01*
X147353794Y-58410286D01*
X145693085Y-60070997D01*
X145609586Y-60126789D01*
X145437214Y-60384762D01*
X145388566Y-60457569D01*
X145310954Y-60847749D01*
X142730545Y-60847749D01*
X142730545Y-52317165D01*
X151042750Y-52317165D01*
X151830545Y-53104960D01*
X152618340Y-52317165D01*
X152540080Y-52084157D01*
X152012081Y-51906911D01*
X151456445Y-51945214D01*
X151121010Y-52084157D01*
X151042750Y-52317165D01*
X142730545Y-52317165D01*
X142730545Y-48156717D01*
X150104366Y-48156717D01*
X150329584Y-48514300D01*
X151292487Y-48892038D01*
X152326648Y-48872536D01*
X153191506Y-48514300D01*
X153416724Y-48156717D01*
X151760545Y-46500538D01*
X150104366Y-48156717D01*
X142730545Y-48156717D01*
X142730545Y-45814691D01*
X149151256Y-45814691D01*
X149170758Y-46848852D01*
X149528994Y-47713710D01*
X149886577Y-47938928D01*
X151542756Y-46282749D01*
X151978334Y-46282749D01*
X153634513Y-47938928D01*
X153992096Y-47713710D01*
X154369834Y-46750807D01*
X154350332Y-45716646D01*
X153992096Y-44851788D01*
X153634513Y-44626570D01*
X151978334Y-46282749D01*
X151542756Y-46282749D01*
X149886577Y-44626570D01*
X149528994Y-44851788D01*
X149151256Y-45814691D01*
X142730545Y-45814691D01*
X142730545Y-44408781D01*
X150104366Y-44408781D01*
X151760545Y-46064960D01*
X153416724Y-44408781D01*
X153191506Y-44051198D01*
X152228603Y-43673460D01*
X151194442Y-43692962D01*
X150329584Y-44051198D01*
X150104366Y-44408781D01*
X142730545Y-44408781D01*
X142730545Y-38382749D01*
X241330546Y-38382749D01*
X241330545Y-125982749D01*
G36*
X152062476Y-62468607D02*
X152048334Y-62482749D01*
X152062476Y-62496891D01*
X151844687Y-62714680D01*
X151830545Y-62700538D01*
X151816403Y-62714680D01*
X151598614Y-62496891D01*
X151612756Y-62482749D01*
X151598614Y-62468607D01*
X151816403Y-62250818D01*
X151830545Y-62264960D01*
X151844687Y-62250818D01*
X152062476Y-62468607D01*
X152062476Y-62468607D01*
G37*
X152062476Y-62468607D02*
X152048334Y-62482749D01*
X152062476Y-62496891D01*
X151844687Y-62714680D01*
X151830545Y-62700538D01*
X151816403Y-62714680D01*
X151598614Y-62496891D01*
X151612756Y-62482749D01*
X151598614Y-62468607D01*
X151816403Y-62250818D01*
X151830545Y-62264960D01*
X151844687Y-62250818D01*
X152062476Y-62468607D01*
G36*
X152062476Y-57888607D02*
X152048334Y-57902749D01*
X152062476Y-57916891D01*
X151844687Y-58134680D01*
X151830545Y-58120538D01*
X151816403Y-58134680D01*
X151598614Y-57916891D01*
X151612756Y-57902749D01*
X151598614Y-57888607D01*
X151816403Y-57670818D01*
X151830545Y-57684960D01*
X151844687Y-57670818D01*
X152062476Y-57888607D01*
X152062476Y-57888607D01*
G37*
X152062476Y-57888607D02*
X152048334Y-57902749D01*
X152062476Y-57916891D01*
X151844687Y-58134680D01*
X151830545Y-58120538D01*
X151816403Y-58134680D01*
X151598614Y-57916891D01*
X151612756Y-57902749D01*
X151598614Y-57888607D01*
X151816403Y-57670818D01*
X151830545Y-57684960D01*
X151844687Y-57670818D01*
X152062476Y-57888607D01*
G36*
X152062476Y-55598607D02*
X152048334Y-55612749D01*
X152062476Y-55626891D01*
X151844687Y-55844680D01*
X151830545Y-55830538D01*
X151816403Y-55844680D01*
X151598614Y-55626891D01*
X151612756Y-55612749D01*
X151598614Y-55598607D01*
X151816403Y-55380818D01*
X151830545Y-55394960D01*
X151844687Y-55380818D01*
X152062476Y-55598607D01*
X152062476Y-55598607D01*
G37*
X152062476Y-55598607D02*
X152048334Y-55612749D01*
X152062476Y-55626891D01*
X151844687Y-55844680D01*
X151830545Y-55830538D01*
X151816403Y-55844680D01*
X151598614Y-55626891D01*
X151612756Y-55612749D01*
X151598614Y-55598607D01*
X151816403Y-55380818D01*
X151830545Y-55394960D01*
X151844687Y-55380818D01*
X152062476Y-55598607D01*
G04 #@! TD*
M02*
