M48
;DRILL file {KiCad 5.0.2-bee76a0~70~ubuntu16.04.1} date jue 01 abr 2021 23:00:53 -04
;FORMAT={-:-/ absolute / inch / decimal}
FMAT,2
INCH,TZ
T1C0.0315
T2C0.0354
T3C0.0362
T4C0.0394
T5C0.0472
T6C0.0906
T7C0.1260
%
G90
G05
T1
X6.4185Y-4.3379
X6.4185Y-4.4363
T2
X8.9406Y-2.7119
X9.0406Y-2.7119
X6.5878Y-3.7316
X6.5878Y-3.8316
T3
X6.0642Y-4.0623
X6.0642Y-4.3379
T4
X5.8996Y-2.1444
X5.8996Y-2.2346
X5.8996Y-2.3247
X5.8996Y-2.4149
X5.8996Y-2.505
X5.9776Y-2.0993
X5.9776Y-2.1895
X5.9776Y-2.2796
X5.9776Y-2.3698
X5.9776Y-2.46
X6.0555Y-2.1444
X6.0555Y-2.2346
X6.0555Y-2.3247
X6.0555Y-2.4149
X6.0555Y-2.505
X9.0406Y-3.9332
X9.0406Y-4.0332
X9.0406Y-4.1332
X7.5146Y-1.9344
X7.5146Y-2.0344
X7.5146Y-2.1344
X7.5146Y-2.2344
X7.5146Y-2.3344
X7.5146Y-2.4344
X7.5146Y-2.5344
X7.5146Y-2.6344
X7.5146Y-2.7344
X7.5146Y-2.8344
X7.5146Y-2.9344
X7.5146Y-3.0344
X7.5146Y-3.1344
X7.5146Y-3.2344
X7.5146Y-3.3344
X7.5146Y-3.4344
X7.5146Y-3.5344
X7.5146Y-3.6344
X7.5146Y-3.7344
X7.5146Y-3.8344
X7.5146Y-3.9344
X7.5146Y-4.0344
X7.5146Y-4.1344
X7.5146Y-4.2344
X7.5146Y-4.3344
X7.5146Y-4.4344
X7.5146Y-4.5344
X7.5146Y-4.6344
X7.5146Y-4.7344
X8.3146Y-1.9344
X8.3146Y-2.0344
X8.3146Y-2.1344
X8.3146Y-2.2344
X8.3146Y-2.3344
X8.3146Y-2.4344
X8.3146Y-2.5344
X8.3146Y-2.6344
X8.3146Y-2.7344
X8.3146Y-2.8344
X8.3146Y-2.9344
X8.3146Y-3.0344
X8.3146Y-3.1344
X8.3146Y-3.2344
X8.3146Y-3.3344
X8.3146Y-3.4344
X8.3146Y-3.5344
X8.3146Y-3.6344
X8.3146Y-3.7344
X8.3146Y-3.8344
X8.3146Y-3.9344
X8.3146Y-4.0344
X8.3146Y-4.1344
X8.3146Y-4.2344
X8.3146Y-4.3344
X8.3146Y-4.4344
X8.3146Y-4.5344
X8.3146Y-4.6344
X8.3146Y-4.7344
X9.0406Y-1.893
X9.0406Y-1.993
X9.0406Y-2.093
X9.0406Y-2.193
X9.0406Y-2.293
X9.0406Y-2.393
X6.0642Y-4.1607
X6.0642Y-4.2395
T5
X6.5681Y-1.9875
X7.0681Y-1.9875
X6.5681Y-3.3891
X7.0681Y-3.3891
X7.0484Y-3.7316
X7.0484Y-4.2316
X7.2138Y-3.6332
X7.2138Y-4.1332
X6.5681Y-2.3025
X7.0681Y-2.3025
X6.5681Y-2.9324
X7.0681Y-2.9324
X6.8634Y-4.334
X6.5681Y-2.6174
X7.0681Y-2.6174
X6.5681Y-3.2277
X7.0681Y-3.2277
X8.5563Y-2.4757
X8.5563Y-2.9757
X6.5681Y-2.145
X7.0681Y-2.145
X6.8634Y-3.834
X6.5681Y-2.46
X7.0681Y-2.46
X6.5681Y-2.7749
X7.0681Y-2.7749
X6.5681Y-1.83
X7.0681Y-1.83
T6
X5.9575Y-3.9414
X5.9575Y-4.4588
T7
X5.9748Y-1.8222
X5.9748Y-2.8064
T0
M30
