M48
;DRILL file {KiCad 5.0.2-bee76a0~70~ubuntu16.04.1} date dom 25 feb 2024 18:51:06 -04
;FORMAT={-:-/ absolute / inch / decimal}
FMAT,2
INCH,TZ
T1C0.0315
T2C0.0354
T3C0.0362
T4C0.0394
T5C0.0472
T6C0.0906
T7C0.1260
%
G90
G05
T1
X8.622Y-4.3504
X8.622Y-4.4488
T2
X8.4528Y-3.7441
X8.4528Y-3.8441
X6.Y-2.7244
X6.1Y-2.7244
T3
X8.9764Y-4.0748
X8.9764Y-4.3504
T4
X6.Y-2.2055
X6.726Y-2.3469
X6.Y-1.9055
X6.Y-2.0055
X6.Y-2.1055
X6.726Y-2.5469
X6.Y-2.3055
X6.Y-2.4055
X6.726Y-1.9469
X6.726Y-2.0469
X6.726Y-2.1469
X6.726Y-2.2469
X6.726Y-2.4469
X6.726Y-2.6469
X6.726Y-2.7469
X6.726Y-2.8469
X6.726Y-2.9469
X6.726Y-3.0469
X6.726Y-3.1469
X6.726Y-3.2469
X6.726Y-3.3469
X6.726Y-3.4469
X6.726Y-3.5469
X6.726Y-3.6469
X6.726Y-3.7469
X6.726Y-3.8469
X6.726Y-3.9469
X6.726Y-4.0469
X6.726Y-4.1469
X6.726Y-4.2469
X6.726Y-4.3469
X6.726Y-4.4469
X6.726Y-4.5469
X6.726Y-4.6469
X6.726Y-4.7469
X7.526Y-1.9469
X7.526Y-2.0469
X7.526Y-2.1469
X7.526Y-2.2469
X7.526Y-2.3469
X7.526Y-2.4469
X7.526Y-2.5469
X7.526Y-2.6469
X7.526Y-2.7469
X7.526Y-2.8469
X7.526Y-2.9469
X7.526Y-3.0469
X7.526Y-3.1469
X7.526Y-3.2469
X7.526Y-3.3469
X7.526Y-3.4469
X7.526Y-3.5469
X7.526Y-3.6469
X7.526Y-3.7469
X7.526Y-3.8469
X7.526Y-3.9469
X7.526Y-4.0469
X7.526Y-4.1469
X7.526Y-4.2469
X7.526Y-4.3469
X7.526Y-4.4469
X7.526Y-4.5469
X7.526Y-4.6469
X7.526Y-4.7469
X6.Y-3.9457
X6.Y-4.0457
X6.Y-4.1457
X8.985Y-2.1569
X8.985Y-2.247
X8.985Y-2.3372
X8.985Y-2.4274
X8.985Y-2.5175
X9.063Y-2.1118
X9.063Y-2.202
X9.063Y-2.2921
X9.063Y-2.3823
X9.063Y-2.4724
X9.1409Y-2.1569
X9.1409Y-2.247
X9.1409Y-2.3372
X9.1409Y-2.4274
X9.1409Y-2.5175
X8.9764Y-4.1732
X8.9764Y-4.252
T5
X7.9724Y-2.7874
X8.4724Y-2.7874
X7.8268Y-3.6457
X7.8268Y-4.1457
X7.9724Y-1.8425
X8.4724Y-1.8425
X7.9724Y-2.6299
X8.4724Y-2.6299
X6.4843Y-2.4882
X8.1772Y-3.8465
X8.1772Y-4.3465
X7.9921Y-3.7441
X7.9921Y-4.2441
X8.4724Y-2.1575
X6.4843Y-2.9882
X7.9724Y-3.2402
X8.4724Y-3.2402
X7.9724Y-2.9449
X8.4724Y-2.9449
X7.9724Y-2.4724
X8.4724Y-2.4724
X7.9724Y-2.315
X8.4724Y-2.315
X7.9724Y-2.1575
X7.9724Y-2.
X8.4724Y-2.
X7.9724Y-3.4016
X8.4724Y-3.4016
T6
X9.0831Y-3.9539
X9.0831Y-4.4713
T7
X9.0657Y-1.8346
X9.0657Y-2.8189
T0
M30
