G04 #@! TF.GenerationSoftware,KiCad,Pcbnew,5.0.2-bee76a0~70~ubuntu16.04.1*
G04 #@! TF.CreationDate,2024-02-25T20:47:19-04:00*
G04 #@! TF.ProjectId,leonrv,6c656f6e-7276-42e6-9b69-6361645f7063,rev?*
G04 #@! TF.SameCoordinates,Original*
G04 #@! TF.FileFunction,Legend,Top*
G04 #@! TF.FilePolarity,Positive*
%FSLAX46Y46*%
G04 Gerber Fmt 4.6, Leading zero omitted, Abs format (unit mm)*
G04 Created by KiCad (PCBNEW 5.0.2-bee76a0~70~ubuntu16.04.1) date dom 25 feb 2024 20:47:19 -04*
%MOMM*%
%LPD*%
G01*
G04 APERTURE LIST*
%ADD10C,0.300000*%
%ADD11C,0.200000*%
%ADD12C,0.500000*%
%ADD13C,0.120000*%
%ADD14C,0.100000*%
%ADD15C,0.600000*%
%ADD16C,0.150000*%
G04 APERTURE END LIST*
D10*
X149309523Y-94854761D02*
X149309523Y-96473809D01*
X149404761Y-96664285D01*
X149500000Y-96759523D01*
X149690476Y-96854761D01*
X150071428Y-96854761D01*
X150261904Y-96759523D01*
X150357142Y-96664285D01*
X150452380Y-96473809D01*
X150452380Y-94854761D01*
X151309523Y-96283333D02*
X152261904Y-96283333D01*
X151119047Y-96854761D02*
X151785714Y-94854761D01*
X152452380Y-96854761D01*
X154261904Y-96854761D02*
X153595238Y-95902380D01*
X153119047Y-96854761D02*
X153119047Y-94854761D01*
X153880952Y-94854761D01*
X154071428Y-94950000D01*
X154166666Y-95045238D01*
X154261904Y-95235714D01*
X154261904Y-95521428D01*
X154166666Y-95711904D01*
X154071428Y-95807142D01*
X153880952Y-95902380D01*
X153119047Y-95902380D01*
X154833333Y-94854761D02*
X155976190Y-94854761D01*
X155404761Y-96854761D02*
X155404761Y-94854761D01*
X148690476Y-97420000D02*
X150214285Y-97420000D01*
X150214285Y-97420000D02*
X151738095Y-97420000D01*
X151738095Y-97420000D02*
X153261904Y-97420000D01*
X153261904Y-97420000D02*
X154785714Y-97420000D01*
X154785714Y-97420000D02*
X156309523Y-97420000D01*
X149664285Y-75703571D02*
X149664285Y-74203571D01*
X150021428Y-74203571D01*
X150235714Y-74275000D01*
X150378571Y-74417857D01*
X150450000Y-74560714D01*
X150521428Y-74846428D01*
X150521428Y-75060714D01*
X150450000Y-75346428D01*
X150378571Y-75489285D01*
X150235714Y-75632142D01*
X150021428Y-75703571D01*
X149664285Y-75703571D01*
X151664285Y-74917857D02*
X151878571Y-74989285D01*
X151950000Y-75060714D01*
X152021428Y-75203571D01*
X152021428Y-75417857D01*
X151950000Y-75560714D01*
X151878571Y-75632142D01*
X151735714Y-75703571D01*
X151164285Y-75703571D01*
X151164285Y-74203571D01*
X151664285Y-74203571D01*
X151807142Y-74275000D01*
X151878571Y-74346428D01*
X151950000Y-74489285D01*
X151950000Y-74632142D01*
X151878571Y-74775000D01*
X151807142Y-74846428D01*
X151664285Y-74917857D01*
X151164285Y-74917857D01*
X153450000Y-74275000D02*
X153307142Y-74203571D01*
X153092857Y-74203571D01*
X152878571Y-74275000D01*
X152735714Y-74417857D01*
X152664285Y-74560714D01*
X152592857Y-74846428D01*
X152592857Y-75060714D01*
X152664285Y-75346428D01*
X152735714Y-75489285D01*
X152878571Y-75632142D01*
X153092857Y-75703571D01*
X153235714Y-75703571D01*
X153450000Y-75632142D01*
X153521428Y-75560714D01*
X153521428Y-75060714D01*
X153235714Y-75060714D01*
X155592857Y-74203571D02*
X155878571Y-74203571D01*
X156021428Y-74275000D01*
X156164285Y-74417857D01*
X156235714Y-74703571D01*
X156235714Y-75203571D01*
X156164285Y-75489285D01*
X156021428Y-75632142D01*
X155878571Y-75703571D01*
X155592857Y-75703571D01*
X155450000Y-75632142D01*
X155307142Y-75489285D01*
X155235714Y-75203571D01*
X155235714Y-74703571D01*
X155307142Y-74417857D01*
X155450000Y-74275000D01*
X155592857Y-74203571D01*
X156878571Y-75703571D02*
X156878571Y-74203571D01*
X157735714Y-75703571D01*
X157735714Y-74203571D01*
X150842857Y-76105000D02*
X151985714Y-76105000D01*
X151985714Y-76105000D02*
X153128571Y-76105000D01*
X153128571Y-76105000D02*
X154271428Y-76105000D01*
X154271428Y-76105000D02*
X155414285Y-76105000D01*
X155414285Y-76105000D02*
X156557142Y-76105000D01*
D11*
X174100000Y-77700000D02*
X174100000Y-64300000D01*
X187800000Y-64300000D02*
X174100000Y-64300000D01*
X187800000Y-77700000D02*
X187800000Y-64300000D01*
X174100000Y-77700000D02*
X187800000Y-77700000D01*
D10*
X211335714Y-101378571D02*
X211335714Y-99878571D01*
X212192857Y-101378571D02*
X211550000Y-100521428D01*
X212192857Y-99878571D02*
X211335714Y-100735714D01*
X212835714Y-100592857D02*
X213335714Y-100592857D01*
X213550000Y-101378571D02*
X212835714Y-101378571D01*
X212835714Y-99878571D01*
X213550000Y-99878571D01*
X214478571Y-100664285D02*
X214478571Y-101378571D01*
X213978571Y-99878571D02*
X214478571Y-100664285D01*
X214978571Y-99878571D01*
X215978571Y-100592857D02*
X216192857Y-100664285D01*
X216264285Y-100735714D01*
X216335714Y-100878571D01*
X216335714Y-101092857D01*
X216264285Y-101235714D01*
X216192857Y-101307142D01*
X216050000Y-101378571D01*
X215478571Y-101378571D01*
X215478571Y-99878571D01*
X215978571Y-99878571D01*
X216121428Y-99950000D01*
X216192857Y-100021428D01*
X216264285Y-100164285D01*
X216264285Y-100307142D01*
X216192857Y-100450000D01*
X216121428Y-100521428D01*
X215978571Y-100592857D01*
X215478571Y-100592857D01*
X217835714Y-101378571D02*
X217335714Y-100664285D01*
X216978571Y-101378571D02*
X216978571Y-99878571D01*
X217550000Y-99878571D01*
X217692857Y-99950000D01*
X217764285Y-100021428D01*
X217835714Y-100164285D01*
X217835714Y-100378571D01*
X217764285Y-100521428D01*
X217692857Y-100592857D01*
X217550000Y-100664285D01*
X216978571Y-100664285D01*
X218478571Y-101378571D02*
X218478571Y-99878571D01*
X218835714Y-99878571D01*
X219050000Y-99950000D01*
X219192857Y-100092857D01*
X219264285Y-100235714D01*
X219335714Y-100521428D01*
X219335714Y-100735714D01*
X219264285Y-101021428D01*
X219192857Y-101164285D01*
X219050000Y-101307142D01*
X218835714Y-101378571D01*
X218478571Y-101378571D01*
X148690714Y-101028571D02*
X148190714Y-100314285D01*
X147833571Y-101028571D02*
X147833571Y-99528571D01*
X148405000Y-99528571D01*
X148547857Y-99600000D01*
X148619285Y-99671428D01*
X148690714Y-99814285D01*
X148690714Y-100028571D01*
X148619285Y-100171428D01*
X148547857Y-100242857D01*
X148405000Y-100314285D01*
X147833571Y-100314285D01*
X149190714Y-99528571D02*
X150190714Y-101028571D01*
X150190714Y-99528571D02*
X149190714Y-101028571D01*
X147976428Y-102078571D02*
X148833571Y-102078571D01*
X148405000Y-103578571D02*
X148405000Y-102078571D01*
X149190714Y-102078571D02*
X150190714Y-103578571D01*
X150190714Y-102078571D02*
X149190714Y-103578571D01*
X146976428Y-104700000D02*
X146833571Y-104628571D01*
X146619285Y-104628571D01*
X146405000Y-104700000D01*
X146262142Y-104842857D01*
X146190714Y-104985714D01*
X146119285Y-105271428D01*
X146119285Y-105485714D01*
X146190714Y-105771428D01*
X146262142Y-105914285D01*
X146405000Y-106057142D01*
X146619285Y-106128571D01*
X146762142Y-106128571D01*
X146976428Y-106057142D01*
X147047857Y-105985714D01*
X147047857Y-105485714D01*
X146762142Y-105485714D01*
X147690714Y-106128571D02*
X147690714Y-104628571D01*
X148547857Y-106128571D01*
X148547857Y-104628571D01*
X149262142Y-106128571D02*
X149262142Y-104628571D01*
X149619285Y-104628571D01*
X149833571Y-104700000D01*
X149976428Y-104842857D01*
X150047857Y-104985714D01*
X150119285Y-105271428D01*
X150119285Y-105485714D01*
X150047857Y-105771428D01*
X149976428Y-105914285D01*
X149833571Y-106057142D01*
X149619285Y-106128571D01*
X149262142Y-106128571D01*
X155945238Y-47457142D02*
X157945238Y-47457142D01*
X157945238Y-47933333D01*
X157850000Y-48219047D01*
X157659523Y-48409523D01*
X157469047Y-48504761D01*
X157088095Y-48600000D01*
X156802380Y-48600000D01*
X156421428Y-48504761D01*
X156230952Y-48409523D01*
X156040476Y-48219047D01*
X155945238Y-47933333D01*
X155945238Y-47457142D01*
X156040476Y-50219047D02*
X155945238Y-50028571D01*
X155945238Y-49647619D01*
X156040476Y-49457142D01*
X156230952Y-49361904D01*
X156992857Y-49361904D01*
X157183333Y-49457142D01*
X157278571Y-49647619D01*
X157278571Y-50028571D01*
X157183333Y-50219047D01*
X156992857Y-50314285D01*
X156802380Y-50314285D01*
X156611904Y-49361904D01*
X157278571Y-51171428D02*
X155278571Y-51171428D01*
X157183333Y-51171428D02*
X157278571Y-51361904D01*
X157278571Y-51742857D01*
X157183333Y-51933333D01*
X157088095Y-52028571D01*
X156897619Y-52123809D01*
X156326190Y-52123809D01*
X156135714Y-52028571D01*
X156040476Y-51933333D01*
X155945238Y-51742857D01*
X155945238Y-51361904D01*
X156040476Y-51171428D01*
X157278571Y-53838095D02*
X155945238Y-53838095D01*
X157278571Y-52980952D02*
X156230952Y-52980952D01*
X156040476Y-53076190D01*
X155945238Y-53266666D01*
X155945238Y-53552380D01*
X156040476Y-53742857D01*
X156135714Y-53838095D01*
X155945238Y-54790476D02*
X157278571Y-54790476D01*
X156897619Y-54790476D02*
X157088095Y-54885714D01*
X157183333Y-54980952D01*
X157278571Y-55171428D01*
X157278571Y-55361904D01*
X155945238Y-56885714D02*
X156992857Y-56885714D01*
X157183333Y-56790476D01*
X157278571Y-56600000D01*
X157278571Y-56219047D01*
X157183333Y-56028571D01*
X156040476Y-56885714D02*
X155945238Y-56695238D01*
X155945238Y-56219047D01*
X156040476Y-56028571D01*
X156230952Y-55933333D01*
X156421428Y-55933333D01*
X156611904Y-56028571D01*
X156707142Y-56219047D01*
X156707142Y-56695238D01*
X156802380Y-56885714D01*
X155945238Y-58695238D02*
X157945238Y-58695238D01*
X156040476Y-58695238D02*
X155945238Y-58504761D01*
X155945238Y-58123809D01*
X156040476Y-57933333D01*
X156135714Y-57838095D01*
X156326190Y-57742857D01*
X156897619Y-57742857D01*
X157088095Y-57838095D01*
X157183333Y-57933333D01*
X157278571Y-58123809D01*
X157278571Y-58504761D01*
X157183333Y-58695238D01*
X155945238Y-59933333D02*
X156040476Y-59742857D01*
X156135714Y-59647619D01*
X156326190Y-59552380D01*
X156897619Y-59552380D01*
X157088095Y-59647619D01*
X157183333Y-59742857D01*
X157278571Y-59933333D01*
X157278571Y-60219047D01*
X157183333Y-60409523D01*
X157088095Y-60504761D01*
X156897619Y-60600000D01*
X156326190Y-60600000D01*
X156135714Y-60504761D01*
X156040476Y-60409523D01*
X155945238Y-60219047D01*
X155945238Y-59933333D01*
X155945238Y-61457142D02*
X157278571Y-61457142D01*
X156897619Y-61457142D02*
X157088095Y-61552380D01*
X157183333Y-61647619D01*
X157278571Y-61838095D01*
X157278571Y-62028571D01*
X155380000Y-46980952D02*
X155380000Y-48504761D01*
X155380000Y-48504761D02*
X155380000Y-50028571D01*
X155380000Y-50028571D02*
X155380000Y-51552380D01*
X155380000Y-51552380D02*
X155380000Y-53076190D01*
X155380000Y-53076190D02*
X155380000Y-54600000D01*
X155380000Y-54600000D02*
X155380000Y-56123809D01*
X155380000Y-56123809D02*
X155380000Y-57647619D01*
X155380000Y-57647619D02*
X155380000Y-59171428D01*
X155380000Y-59171428D02*
X155380000Y-60695238D01*
X155380000Y-60695238D02*
X155380000Y-62219047D01*
X146176428Y-47575000D02*
X146033571Y-47503571D01*
X145819285Y-47503571D01*
X145605000Y-47575000D01*
X145462142Y-47717857D01*
X145390714Y-47860714D01*
X145319285Y-48146428D01*
X145319285Y-48360714D01*
X145390714Y-48646428D01*
X145462142Y-48789285D01*
X145605000Y-48932142D01*
X145819285Y-49003571D01*
X145962142Y-49003571D01*
X146176428Y-48932142D01*
X146247857Y-48860714D01*
X146247857Y-48360714D01*
X145962142Y-48360714D01*
X146890714Y-49003571D02*
X146890714Y-47503571D01*
X147747857Y-49003571D01*
X147747857Y-47503571D01*
X148462142Y-49003571D02*
X148462142Y-47503571D01*
X148819285Y-47503571D01*
X149033571Y-47575000D01*
X149176428Y-47717857D01*
X149247857Y-47860714D01*
X149319285Y-48146428D01*
X149319285Y-48360714D01*
X149247857Y-48646428D01*
X149176428Y-48789285D01*
X149033571Y-48932142D01*
X148819285Y-49003571D01*
X148462142Y-49003571D01*
X146747857Y-51410714D02*
X146676428Y-51482142D01*
X146462142Y-51553571D01*
X146319285Y-51553571D01*
X146105000Y-51482142D01*
X145962142Y-51339285D01*
X145890714Y-51196428D01*
X145819285Y-50910714D01*
X145819285Y-50696428D01*
X145890714Y-50410714D01*
X145962142Y-50267857D01*
X146105000Y-50125000D01*
X146319285Y-50053571D01*
X146462142Y-50053571D01*
X146676428Y-50125000D01*
X146747857Y-50196428D01*
X147176428Y-50053571D02*
X148033571Y-50053571D01*
X147605000Y-51553571D02*
X147605000Y-50053571D01*
X148462142Y-51482142D02*
X148676428Y-51553571D01*
X149033571Y-51553571D01*
X149176428Y-51482142D01*
X149247857Y-51410714D01*
X149319285Y-51267857D01*
X149319285Y-51125000D01*
X149247857Y-50982142D01*
X149176428Y-50910714D01*
X149033571Y-50839285D01*
X148747857Y-50767857D01*
X148605000Y-50696428D01*
X148533571Y-50625000D01*
X148462142Y-50482142D01*
X148462142Y-50339285D01*
X148533571Y-50196428D01*
X148605000Y-50125000D01*
X148747857Y-50053571D01*
X149105000Y-50053571D01*
X149319285Y-50125000D01*
X148105000Y-53532142D02*
X149247857Y-53532142D01*
X147890714Y-56653571D02*
X147390714Y-55939285D01*
X147033571Y-56653571D02*
X147033571Y-55153571D01*
X147605000Y-55153571D01*
X147747857Y-55225000D01*
X147819285Y-55296428D01*
X147890714Y-55439285D01*
X147890714Y-55653571D01*
X147819285Y-55796428D01*
X147747857Y-55867857D01*
X147605000Y-55939285D01*
X147033571Y-55939285D01*
X148390714Y-55153571D02*
X149390714Y-56653571D01*
X149390714Y-55153571D02*
X148390714Y-56653571D01*
X147176428Y-57703571D02*
X148033571Y-57703571D01*
X147605000Y-59203571D02*
X147605000Y-57703571D01*
X148390714Y-57703571D02*
X149390714Y-59203571D01*
X149390714Y-57703571D02*
X148390714Y-59203571D01*
X145819285Y-61753571D02*
X145819285Y-60253571D01*
X146176428Y-60253571D01*
X146390714Y-60325000D01*
X146533571Y-60467857D01*
X146605000Y-60610714D01*
X146676428Y-60896428D01*
X146676428Y-61110714D01*
X146605000Y-61396428D01*
X146533571Y-61539285D01*
X146390714Y-61682142D01*
X146176428Y-61753571D01*
X145819285Y-61753571D01*
X147105000Y-60253571D02*
X147962142Y-60253571D01*
X147533571Y-61753571D02*
X147533571Y-60253571D01*
X149319285Y-61753571D02*
X148819285Y-61039285D01*
X148462142Y-61753571D02*
X148462142Y-60253571D01*
X149033571Y-60253571D01*
X149176428Y-60325000D01*
X149247857Y-60396428D01*
X149319285Y-60539285D01*
X149319285Y-60753571D01*
X149247857Y-60896428D01*
X149176428Y-60967857D01*
X149033571Y-61039285D01*
X148462142Y-61039285D01*
D12*
X175228571Y-43357142D02*
X174228571Y-41928571D01*
X173514285Y-43357142D02*
X173514285Y-40357142D01*
X174657142Y-40357142D01*
X174942857Y-40500000D01*
X175085714Y-40642857D01*
X175228571Y-40928571D01*
X175228571Y-41357142D01*
X175085714Y-41642857D01*
X174942857Y-41785714D01*
X174657142Y-41928571D01*
X173514285Y-41928571D01*
X176085714Y-40357142D02*
X177085714Y-43357142D01*
X178085714Y-40357142D01*
X180514285Y-43357142D02*
X179085714Y-43357142D01*
X179085714Y-40357142D01*
X181514285Y-41785714D02*
X182514285Y-41785714D01*
X182942857Y-43357142D02*
X181514285Y-43357142D01*
X181514285Y-40357142D01*
X182942857Y-40357142D01*
X184800000Y-40357142D02*
X185371428Y-40357142D01*
X185657142Y-40500000D01*
X185942857Y-40785714D01*
X186085714Y-41357142D01*
X186085714Y-42357142D01*
X185942857Y-42928571D01*
X185657142Y-43214285D01*
X185371428Y-43357142D01*
X184800000Y-43357142D01*
X184514285Y-43214285D01*
X184228571Y-42928571D01*
X184085714Y-42357142D01*
X184085714Y-41357142D01*
X184228571Y-40785714D01*
X184514285Y-40500000D01*
X184800000Y-40357142D01*
X187371428Y-43357142D02*
X187371428Y-40357142D01*
X189085714Y-43357142D01*
X189085714Y-40357142D01*
X173300000Y-44190000D02*
X175585714Y-44190000D01*
X175585714Y-44190000D02*
X177871428Y-44190000D01*
X177871428Y-44190000D02*
X180157142Y-44190000D01*
X180157142Y-44190000D02*
X182442857Y-44190000D01*
X182442857Y-44190000D02*
X184728571Y-44190000D01*
X184728571Y-44190000D02*
X187014285Y-44190000D01*
X187014285Y-44190000D02*
X189300000Y-44190000D01*
D13*
G04 #@! TO.C,J3*
X235150000Y-74585000D02*
X226550000Y-74585000D01*
X226550000Y-74585000D02*
X226550000Y-43615000D01*
X226550000Y-43615000D02*
X235150000Y-43615000D01*
X225655662Y-55035000D02*
X225655662Y-54535000D01*
X225655662Y-54535000D02*
X226088675Y-54785000D01*
X226088675Y-54785000D02*
X225655662Y-55035000D01*
G04 #@! TO.C,R1*
X213920000Y-48720000D02*
X213920000Y-48240000D01*
X203780000Y-48720000D02*
X213920000Y-48720000D01*
X203780000Y-48240000D02*
X203780000Y-48720000D01*
X213920000Y-44880000D02*
X213920000Y-45360000D01*
X203780000Y-44880000D02*
X213920000Y-44880000D01*
X203780000Y-45360000D02*
X203780000Y-44880000D01*
G04 #@! TO.C,R3*
X203780000Y-53360000D02*
X203780000Y-52880000D01*
X203780000Y-52880000D02*
X213920000Y-52880000D01*
X213920000Y-52880000D02*
X213920000Y-53360000D01*
X203780000Y-56240000D02*
X203780000Y-56720000D01*
X203780000Y-56720000D02*
X213920000Y-56720000D01*
X213920000Y-56720000D02*
X213920000Y-56240000D01*
G04 #@! TO.C,R2*
X213920000Y-52720000D02*
X213920000Y-52240000D01*
X203780000Y-52720000D02*
X213920000Y-52720000D01*
X203780000Y-52240000D02*
X203780000Y-52720000D01*
X213920000Y-48880000D02*
X213920000Y-49360000D01*
X203780000Y-48880000D02*
X213920000Y-48880000D01*
X203780000Y-49360000D02*
X203780000Y-48880000D01*
G04 #@! TO.C,R9*
X203780000Y-80860000D02*
X203780000Y-80380000D01*
X203780000Y-80380000D02*
X213920000Y-80380000D01*
X213920000Y-80380000D02*
X213920000Y-80860000D01*
X203780000Y-83740000D02*
X203780000Y-84220000D01*
X203780000Y-84220000D02*
X213920000Y-84220000D01*
X213920000Y-84220000D02*
X213920000Y-83740000D01*
G04 #@! TO.C,R10*
X213920000Y-88320000D02*
X213920000Y-87840000D01*
X203780000Y-88320000D02*
X213920000Y-88320000D01*
X203780000Y-87840000D02*
X203780000Y-88320000D01*
X213920000Y-84480000D02*
X213920000Y-84960000D01*
X203780000Y-84480000D02*
X213920000Y-84480000D01*
X203780000Y-84960000D02*
X203780000Y-84480000D01*
G04 #@! TO.C,R7*
X203780000Y-69360000D02*
X203780000Y-68880000D01*
X203780000Y-68880000D02*
X213920000Y-68880000D01*
X213920000Y-68880000D02*
X213920000Y-69360000D01*
X203780000Y-72240000D02*
X203780000Y-72720000D01*
X203780000Y-72720000D02*
X213920000Y-72720000D01*
X213920000Y-72720000D02*
X213920000Y-72240000D01*
G04 #@! TO.C,R5*
X203780000Y-61360000D02*
X203780000Y-60880000D01*
X203780000Y-60880000D02*
X213920000Y-60880000D01*
X213920000Y-60880000D02*
X213920000Y-61360000D01*
X203780000Y-64240000D02*
X203780000Y-64720000D01*
X203780000Y-64720000D02*
X213920000Y-64720000D01*
X213920000Y-64720000D02*
X213920000Y-64240000D01*
G04 #@! TO.C,R6*
X213920000Y-68720000D02*
X213920000Y-68240000D01*
X203780000Y-68720000D02*
X213920000Y-68720000D01*
X203780000Y-68240000D02*
X203780000Y-68720000D01*
X213920000Y-64880000D02*
X213920000Y-65360000D01*
X203780000Y-64880000D02*
X213920000Y-64880000D01*
X203780000Y-65360000D02*
X203780000Y-64880000D01*
G04 #@! TO.C,R8*
X213920000Y-76720000D02*
X213920000Y-76240000D01*
X203780000Y-76720000D02*
X213920000Y-76720000D01*
X203780000Y-76240000D02*
X203780000Y-76720000D01*
X213920000Y-72880000D02*
X213920000Y-73360000D01*
X203780000Y-72880000D02*
X213920000Y-72880000D01*
X203780000Y-73360000D02*
X203780000Y-72880000D01*
G04 #@! TO.C,R4*
X213920000Y-60720000D02*
X213920000Y-60240000D01*
X203780000Y-60720000D02*
X213920000Y-60720000D01*
X203780000Y-60240000D02*
X203780000Y-60720000D01*
X213920000Y-56880000D02*
X213920000Y-57360000D01*
X203780000Y-56880000D02*
X213920000Y-56880000D01*
X203780000Y-57360000D02*
X203780000Y-56880000D01*
G04 #@! TO.C,J5*
X151070000Y-101490000D02*
X153730000Y-101490000D01*
X151070000Y-101490000D02*
X151070000Y-106630000D01*
X151070000Y-106630000D02*
X153730000Y-106630000D01*
X153730000Y-101490000D02*
X153730000Y-106630000D01*
X153730000Y-98890000D02*
X153730000Y-100220000D01*
X152400000Y-98890000D02*
X153730000Y-98890000D01*
G04 #@! TO.C,R14*
X205780000Y-109120000D02*
X206260000Y-109120000D01*
X205780000Y-98980000D02*
X205780000Y-109120000D01*
X206260000Y-98980000D02*
X205780000Y-98980000D01*
X209620000Y-109120000D02*
X209140000Y-109120000D01*
X209620000Y-98980000D02*
X209620000Y-109120000D01*
X209140000Y-98980000D02*
X209620000Y-98980000D01*
D14*
G04 #@! TO.C,J2*
X241105000Y-112700000D02*
X241105000Y-113675000D01*
X241105000Y-113675000D02*
X240430000Y-113675000D01*
X240455000Y-100325000D02*
X241105000Y-100325000D01*
X241105000Y-100325000D02*
X241105000Y-101025000D01*
X227775000Y-112650000D02*
X227775000Y-113675000D01*
X227775000Y-113675000D02*
X228575000Y-113675000D01*
X227775000Y-101275000D02*
X227775000Y-100325000D01*
X227775000Y-100325000D02*
X228500000Y-100325000D01*
D13*
G04 #@! TO.C,C1*
X221620000Y-111750000D02*
G75*
G03X221620000Y-111750000I-2620000J0D01*
G01*
X221580000Y-111750000D02*
X216420000Y-111750000D01*
X221580000Y-111790000D02*
X216420000Y-111790000D01*
X221579000Y-111830000D02*
X216421000Y-111830000D01*
X221578000Y-111870000D02*
X216422000Y-111870000D01*
X221576000Y-111910000D02*
X216424000Y-111910000D01*
X221573000Y-111950000D02*
X216427000Y-111950000D01*
X221569000Y-111990000D02*
X220040000Y-111990000D01*
X217960000Y-111990000D02*
X216431000Y-111990000D01*
X221565000Y-112030000D02*
X220040000Y-112030000D01*
X217960000Y-112030000D02*
X216435000Y-112030000D01*
X221561000Y-112070000D02*
X220040000Y-112070000D01*
X217960000Y-112070000D02*
X216439000Y-112070000D01*
X221556000Y-112110000D02*
X220040000Y-112110000D01*
X217960000Y-112110000D02*
X216444000Y-112110000D01*
X221550000Y-112150000D02*
X220040000Y-112150000D01*
X217960000Y-112150000D02*
X216450000Y-112150000D01*
X221543000Y-112190000D02*
X220040000Y-112190000D01*
X217960000Y-112190000D02*
X216457000Y-112190000D01*
X221536000Y-112230000D02*
X220040000Y-112230000D01*
X217960000Y-112230000D02*
X216464000Y-112230000D01*
X221528000Y-112270000D02*
X220040000Y-112270000D01*
X217960000Y-112270000D02*
X216472000Y-112270000D01*
X221520000Y-112310000D02*
X220040000Y-112310000D01*
X217960000Y-112310000D02*
X216480000Y-112310000D01*
X221511000Y-112350000D02*
X220040000Y-112350000D01*
X217960000Y-112350000D02*
X216489000Y-112350000D01*
X221501000Y-112390000D02*
X220040000Y-112390000D01*
X217960000Y-112390000D02*
X216499000Y-112390000D01*
X221491000Y-112430000D02*
X220040000Y-112430000D01*
X217960000Y-112430000D02*
X216509000Y-112430000D01*
X221480000Y-112471000D02*
X220040000Y-112471000D01*
X217960000Y-112471000D02*
X216520000Y-112471000D01*
X221468000Y-112511000D02*
X220040000Y-112511000D01*
X217960000Y-112511000D02*
X216532000Y-112511000D01*
X221455000Y-112551000D02*
X220040000Y-112551000D01*
X217960000Y-112551000D02*
X216545000Y-112551000D01*
X221442000Y-112591000D02*
X220040000Y-112591000D01*
X217960000Y-112591000D02*
X216558000Y-112591000D01*
X221428000Y-112631000D02*
X220040000Y-112631000D01*
X217960000Y-112631000D02*
X216572000Y-112631000D01*
X221414000Y-112671000D02*
X220040000Y-112671000D01*
X217960000Y-112671000D02*
X216586000Y-112671000D01*
X221398000Y-112711000D02*
X220040000Y-112711000D01*
X217960000Y-112711000D02*
X216602000Y-112711000D01*
X221382000Y-112751000D02*
X220040000Y-112751000D01*
X217960000Y-112751000D02*
X216618000Y-112751000D01*
X221365000Y-112791000D02*
X220040000Y-112791000D01*
X217960000Y-112791000D02*
X216635000Y-112791000D01*
X221348000Y-112831000D02*
X220040000Y-112831000D01*
X217960000Y-112831000D02*
X216652000Y-112831000D01*
X221329000Y-112871000D02*
X220040000Y-112871000D01*
X217960000Y-112871000D02*
X216671000Y-112871000D01*
X221310000Y-112911000D02*
X220040000Y-112911000D01*
X217960000Y-112911000D02*
X216690000Y-112911000D01*
X221290000Y-112951000D02*
X220040000Y-112951000D01*
X217960000Y-112951000D02*
X216710000Y-112951000D01*
X221268000Y-112991000D02*
X220040000Y-112991000D01*
X217960000Y-112991000D02*
X216732000Y-112991000D01*
X221247000Y-113031000D02*
X220040000Y-113031000D01*
X217960000Y-113031000D02*
X216753000Y-113031000D01*
X221224000Y-113071000D02*
X220040000Y-113071000D01*
X217960000Y-113071000D02*
X216776000Y-113071000D01*
X221200000Y-113111000D02*
X220040000Y-113111000D01*
X217960000Y-113111000D02*
X216800000Y-113111000D01*
X221175000Y-113151000D02*
X220040000Y-113151000D01*
X217960000Y-113151000D02*
X216825000Y-113151000D01*
X221149000Y-113191000D02*
X220040000Y-113191000D01*
X217960000Y-113191000D02*
X216851000Y-113191000D01*
X221122000Y-113231000D02*
X220040000Y-113231000D01*
X217960000Y-113231000D02*
X216878000Y-113231000D01*
X221095000Y-113271000D02*
X220040000Y-113271000D01*
X217960000Y-113271000D02*
X216905000Y-113271000D01*
X221065000Y-113311000D02*
X220040000Y-113311000D01*
X217960000Y-113311000D02*
X216935000Y-113311000D01*
X221035000Y-113351000D02*
X220040000Y-113351000D01*
X217960000Y-113351000D02*
X216965000Y-113351000D01*
X221004000Y-113391000D02*
X220040000Y-113391000D01*
X217960000Y-113391000D02*
X216996000Y-113391000D01*
X220971000Y-113431000D02*
X220040000Y-113431000D01*
X217960000Y-113431000D02*
X217029000Y-113431000D01*
X220937000Y-113471000D02*
X220040000Y-113471000D01*
X217960000Y-113471000D02*
X217063000Y-113471000D01*
X220901000Y-113511000D02*
X220040000Y-113511000D01*
X217960000Y-113511000D02*
X217099000Y-113511000D01*
X220864000Y-113551000D02*
X220040000Y-113551000D01*
X217960000Y-113551000D02*
X217136000Y-113551000D01*
X220826000Y-113591000D02*
X220040000Y-113591000D01*
X217960000Y-113591000D02*
X217174000Y-113591000D01*
X220785000Y-113631000D02*
X220040000Y-113631000D01*
X217960000Y-113631000D02*
X217215000Y-113631000D01*
X220743000Y-113671000D02*
X220040000Y-113671000D01*
X217960000Y-113671000D02*
X217257000Y-113671000D01*
X220699000Y-113711000D02*
X220040000Y-113711000D01*
X217960000Y-113711000D02*
X217301000Y-113711000D01*
X220653000Y-113751000D02*
X220040000Y-113751000D01*
X217960000Y-113751000D02*
X217347000Y-113751000D01*
X220605000Y-113791000D02*
X220040000Y-113791000D01*
X217960000Y-113791000D02*
X217395000Y-113791000D01*
X220554000Y-113831000D02*
X220040000Y-113831000D01*
X217960000Y-113831000D02*
X217446000Y-113831000D01*
X220500000Y-113871000D02*
X220040000Y-113871000D01*
X217960000Y-113871000D02*
X217500000Y-113871000D01*
X220443000Y-113911000D02*
X220040000Y-113911000D01*
X217960000Y-113911000D02*
X217557000Y-113911000D01*
X220383000Y-113951000D02*
X220040000Y-113951000D01*
X217960000Y-113951000D02*
X217617000Y-113951000D01*
X220319000Y-113991000D02*
X220040000Y-113991000D01*
X217960000Y-113991000D02*
X217681000Y-113991000D01*
X220251000Y-114031000D02*
X220040000Y-114031000D01*
X217960000Y-114031000D02*
X217749000Y-114031000D01*
X220178000Y-114071000D02*
X217822000Y-114071000D01*
X220098000Y-114111000D02*
X217902000Y-114111000D01*
X220011000Y-114151000D02*
X217989000Y-114151000D01*
X219915000Y-114191000D02*
X218085000Y-114191000D01*
X219805000Y-114231000D02*
X218195000Y-114231000D01*
X219677000Y-114271000D02*
X218323000Y-114271000D01*
X219518000Y-114311000D02*
X218482000Y-114311000D01*
X219284000Y-114351000D02*
X218716000Y-114351000D01*
X220475000Y-108945225D02*
X220475000Y-109445225D01*
X220725000Y-109195225D02*
X220225000Y-109195225D01*
G04 #@! TO.C,R12*
X201080000Y-106520000D02*
X201560000Y-106520000D01*
X201080000Y-96380000D02*
X201080000Y-106520000D01*
X201560000Y-96380000D02*
X201080000Y-96380000D01*
X204920000Y-106520000D02*
X204440000Y-106520000D01*
X204920000Y-96380000D02*
X204920000Y-106520000D01*
X204440000Y-96380000D02*
X204920000Y-96380000D01*
G04 #@! TO.C,R11*
X200240000Y-93880000D02*
X200720000Y-93880000D01*
X200720000Y-93880000D02*
X200720000Y-104020000D01*
X200720000Y-104020000D02*
X200240000Y-104020000D01*
X197360000Y-93880000D02*
X196880000Y-93880000D01*
X196880000Y-93880000D02*
X196880000Y-104020000D01*
X196880000Y-104020000D02*
X197360000Y-104020000D01*
G04 #@! TO.C,D1*
X214699538Y-99360000D02*
G75*
G03X216244830Y-93810000I462J2990000D01*
G01*
X214700462Y-99360000D02*
G75*
G02X213155170Y-93810000I-462J2990000D01*
G01*
X217200000Y-96370000D02*
G75*
G03X217200000Y-96370000I-2500000J0D01*
G01*
X216245000Y-93810000D02*
X213155000Y-93810000D01*
G04 #@! TO.C,J4*
X152400000Y-62430000D02*
X151070000Y-62430000D01*
X151070000Y-62430000D02*
X151070000Y-61100000D01*
X151070000Y-59830000D02*
X151070000Y-47070000D01*
X153730000Y-47070000D02*
X151070000Y-47070000D01*
X153730000Y-59830000D02*
X153730000Y-47070000D01*
X153730000Y-59830000D02*
X151070000Y-59830000D01*
G04 #@! TO.C,U1*
X169510000Y-48100000D02*
X172170000Y-48100000D01*
X169510000Y-121900000D02*
X172170000Y-121900000D01*
X172170000Y-48100000D02*
X172170000Y-121900000D01*
X169510000Y-48100000D02*
X169510000Y-121900000D01*
X189830000Y-48100000D02*
X192490000Y-48100000D01*
X189830000Y-121900000D02*
X192490000Y-121900000D01*
X192490000Y-48100000D02*
X192490000Y-121900000D01*
X189830000Y-48100000D02*
X189830000Y-121900000D01*
D11*
X168000000Y-47000000D02*
X194000000Y-47000000D01*
X168000000Y-123000000D02*
X194000000Y-123000000D01*
X168000000Y-47000000D02*
X168000000Y-123000000D01*
X194000000Y-47000000D02*
X194000000Y-123000000D01*
X177000000Y-123000000D02*
X177000000Y-114250000D01*
X177000000Y-114250000D02*
X185000000Y-114250000D01*
X185000000Y-114250000D02*
X185000000Y-123000000D01*
D15*
X169000000Y-47750000D02*
G75*
G03X169000000Y-47750000I-250000J0D01*
G01*
D13*
G04 #@! TO.C,D2*
X156660000Y-69200462D02*
G75*
G03X151110000Y-67655170I-2990000J462D01*
G01*
X156660000Y-69199538D02*
G75*
G02X151110000Y-70744830I-2990000J-462D01*
G01*
X156170000Y-69200000D02*
G75*
G03X156170000Y-69200000I-2500000J0D01*
G01*
X151110000Y-67655000D02*
X151110000Y-70745000D01*
G04 #@! TO.C,R15*
X163260000Y-74620000D02*
X162780000Y-74620000D01*
X162780000Y-74620000D02*
X162780000Y-64480000D01*
X162780000Y-64480000D02*
X163260000Y-64480000D01*
X166140000Y-74620000D02*
X166620000Y-74620000D01*
X166620000Y-74620000D02*
X166620000Y-64480000D01*
X166620000Y-64480000D02*
X166140000Y-64480000D01*
G04 #@! TO.C,J3*
D16*
X225276666Y-58552380D02*
X225276666Y-59266666D01*
X225229047Y-59409523D01*
X225133809Y-59504761D01*
X224990952Y-59552380D01*
X224895714Y-59552380D01*
X225657619Y-58552380D02*
X226276666Y-58552380D01*
X225943333Y-58933333D01*
X226086190Y-58933333D01*
X226181428Y-58980952D01*
X226229047Y-59028571D01*
X226276666Y-59123809D01*
X226276666Y-59361904D01*
X226229047Y-59457142D01*
X226181428Y-59504761D01*
X226086190Y-59552380D01*
X225800476Y-59552380D01*
X225705238Y-59504761D01*
X225657619Y-59457142D01*
G04 #@! TO.C,R1*
X208683333Y-47252380D02*
X208350000Y-46776190D01*
X208111904Y-47252380D02*
X208111904Y-46252380D01*
X208492857Y-46252380D01*
X208588095Y-46300000D01*
X208635714Y-46347619D01*
X208683333Y-46442857D01*
X208683333Y-46585714D01*
X208635714Y-46680952D01*
X208588095Y-46728571D01*
X208492857Y-46776190D01*
X208111904Y-46776190D01*
X209635714Y-47252380D02*
X209064285Y-47252380D01*
X209350000Y-47252380D02*
X209350000Y-46252380D01*
X209254761Y-46395238D01*
X209159523Y-46490476D01*
X209064285Y-46538095D01*
G04 #@! TO.C,R3*
X208333333Y-55252380D02*
X208000000Y-54776190D01*
X207761904Y-55252380D02*
X207761904Y-54252380D01*
X208142857Y-54252380D01*
X208238095Y-54300000D01*
X208285714Y-54347619D01*
X208333333Y-54442857D01*
X208333333Y-54585714D01*
X208285714Y-54680952D01*
X208238095Y-54728571D01*
X208142857Y-54776190D01*
X207761904Y-54776190D01*
X208666666Y-54252380D02*
X209285714Y-54252380D01*
X208952380Y-54633333D01*
X209095238Y-54633333D01*
X209190476Y-54680952D01*
X209238095Y-54728571D01*
X209285714Y-54823809D01*
X209285714Y-55061904D01*
X209238095Y-55157142D01*
X209190476Y-55204761D01*
X209095238Y-55252380D01*
X208809523Y-55252380D01*
X208714285Y-55204761D01*
X208666666Y-55157142D01*
G04 #@! TO.C,R2*
X208683333Y-51252380D02*
X208350000Y-50776190D01*
X208111904Y-51252380D02*
X208111904Y-50252380D01*
X208492857Y-50252380D01*
X208588095Y-50300000D01*
X208635714Y-50347619D01*
X208683333Y-50442857D01*
X208683333Y-50585714D01*
X208635714Y-50680952D01*
X208588095Y-50728571D01*
X208492857Y-50776190D01*
X208111904Y-50776190D01*
X209064285Y-50347619D02*
X209111904Y-50300000D01*
X209207142Y-50252380D01*
X209445238Y-50252380D01*
X209540476Y-50300000D01*
X209588095Y-50347619D01*
X209635714Y-50442857D01*
X209635714Y-50538095D01*
X209588095Y-50680952D01*
X209016666Y-51252380D01*
X209635714Y-51252380D01*
G04 #@! TO.C,R9*
X208683333Y-82752380D02*
X208350000Y-82276190D01*
X208111904Y-82752380D02*
X208111904Y-81752380D01*
X208492857Y-81752380D01*
X208588095Y-81800000D01*
X208635714Y-81847619D01*
X208683333Y-81942857D01*
X208683333Y-82085714D01*
X208635714Y-82180952D01*
X208588095Y-82228571D01*
X208492857Y-82276190D01*
X208111904Y-82276190D01*
X209159523Y-82752380D02*
X209350000Y-82752380D01*
X209445238Y-82704761D01*
X209492857Y-82657142D01*
X209588095Y-82514285D01*
X209635714Y-82323809D01*
X209635714Y-81942857D01*
X209588095Y-81847619D01*
X209540476Y-81800000D01*
X209445238Y-81752380D01*
X209254761Y-81752380D01*
X209159523Y-81800000D01*
X209111904Y-81847619D01*
X209064285Y-81942857D01*
X209064285Y-82180952D01*
X209111904Y-82276190D01*
X209159523Y-82323809D01*
X209254761Y-82371428D01*
X209445238Y-82371428D01*
X209540476Y-82323809D01*
X209588095Y-82276190D01*
X209635714Y-82180952D01*
G04 #@! TO.C,R10*
X208207142Y-86852380D02*
X207873809Y-86376190D01*
X207635714Y-86852380D02*
X207635714Y-85852380D01*
X208016666Y-85852380D01*
X208111904Y-85900000D01*
X208159523Y-85947619D01*
X208207142Y-86042857D01*
X208207142Y-86185714D01*
X208159523Y-86280952D01*
X208111904Y-86328571D01*
X208016666Y-86376190D01*
X207635714Y-86376190D01*
X209159523Y-86852380D02*
X208588095Y-86852380D01*
X208873809Y-86852380D02*
X208873809Y-85852380D01*
X208778571Y-85995238D01*
X208683333Y-86090476D01*
X208588095Y-86138095D01*
X209778571Y-85852380D02*
X209873809Y-85852380D01*
X209969047Y-85900000D01*
X210016666Y-85947619D01*
X210064285Y-86042857D01*
X210111904Y-86233333D01*
X210111904Y-86471428D01*
X210064285Y-86661904D01*
X210016666Y-86757142D01*
X209969047Y-86804761D01*
X209873809Y-86852380D01*
X209778571Y-86852380D01*
X209683333Y-86804761D01*
X209635714Y-86757142D01*
X209588095Y-86661904D01*
X209540476Y-86471428D01*
X209540476Y-86233333D01*
X209588095Y-86042857D01*
X209635714Y-85947619D01*
X209683333Y-85900000D01*
X209778571Y-85852380D01*
G04 #@! TO.C,R7*
X208683333Y-71252380D02*
X208350000Y-70776190D01*
X208111904Y-71252380D02*
X208111904Y-70252380D01*
X208492857Y-70252380D01*
X208588095Y-70300000D01*
X208635714Y-70347619D01*
X208683333Y-70442857D01*
X208683333Y-70585714D01*
X208635714Y-70680952D01*
X208588095Y-70728571D01*
X208492857Y-70776190D01*
X208111904Y-70776190D01*
X209016666Y-70252380D02*
X209683333Y-70252380D01*
X209254761Y-71252380D01*
G04 #@! TO.C,R5*
X208683333Y-63252380D02*
X208350000Y-62776190D01*
X208111904Y-63252380D02*
X208111904Y-62252380D01*
X208492857Y-62252380D01*
X208588095Y-62300000D01*
X208635714Y-62347619D01*
X208683333Y-62442857D01*
X208683333Y-62585714D01*
X208635714Y-62680952D01*
X208588095Y-62728571D01*
X208492857Y-62776190D01*
X208111904Y-62776190D01*
X209588095Y-62252380D02*
X209111904Y-62252380D01*
X209064285Y-62728571D01*
X209111904Y-62680952D01*
X209207142Y-62633333D01*
X209445238Y-62633333D01*
X209540476Y-62680952D01*
X209588095Y-62728571D01*
X209635714Y-62823809D01*
X209635714Y-63061904D01*
X209588095Y-63157142D01*
X209540476Y-63204761D01*
X209445238Y-63252380D01*
X209207142Y-63252380D01*
X209111904Y-63204761D01*
X209064285Y-63157142D01*
G04 #@! TO.C,R6*
X208683333Y-67252380D02*
X208350000Y-66776190D01*
X208111904Y-67252380D02*
X208111904Y-66252380D01*
X208492857Y-66252380D01*
X208588095Y-66300000D01*
X208635714Y-66347619D01*
X208683333Y-66442857D01*
X208683333Y-66585714D01*
X208635714Y-66680952D01*
X208588095Y-66728571D01*
X208492857Y-66776190D01*
X208111904Y-66776190D01*
X209540476Y-66252380D02*
X209350000Y-66252380D01*
X209254761Y-66300000D01*
X209207142Y-66347619D01*
X209111904Y-66490476D01*
X209064285Y-66680952D01*
X209064285Y-67061904D01*
X209111904Y-67157142D01*
X209159523Y-67204761D01*
X209254761Y-67252380D01*
X209445238Y-67252380D01*
X209540476Y-67204761D01*
X209588095Y-67157142D01*
X209635714Y-67061904D01*
X209635714Y-66823809D01*
X209588095Y-66728571D01*
X209540476Y-66680952D01*
X209445238Y-66633333D01*
X209254761Y-66633333D01*
X209159523Y-66680952D01*
X209111904Y-66728571D01*
X209064285Y-66823809D01*
G04 #@! TO.C,R8*
X208683333Y-75252380D02*
X208350000Y-74776190D01*
X208111904Y-75252380D02*
X208111904Y-74252380D01*
X208492857Y-74252380D01*
X208588095Y-74300000D01*
X208635714Y-74347619D01*
X208683333Y-74442857D01*
X208683333Y-74585714D01*
X208635714Y-74680952D01*
X208588095Y-74728571D01*
X208492857Y-74776190D01*
X208111904Y-74776190D01*
X209254761Y-74680952D02*
X209159523Y-74633333D01*
X209111904Y-74585714D01*
X209064285Y-74490476D01*
X209064285Y-74442857D01*
X209111904Y-74347619D01*
X209159523Y-74300000D01*
X209254761Y-74252380D01*
X209445238Y-74252380D01*
X209540476Y-74300000D01*
X209588095Y-74347619D01*
X209635714Y-74442857D01*
X209635714Y-74490476D01*
X209588095Y-74585714D01*
X209540476Y-74633333D01*
X209445238Y-74680952D01*
X209254761Y-74680952D01*
X209159523Y-74728571D01*
X209111904Y-74776190D01*
X209064285Y-74871428D01*
X209064285Y-75061904D01*
X209111904Y-75157142D01*
X209159523Y-75204761D01*
X209254761Y-75252380D01*
X209445238Y-75252380D01*
X209540476Y-75204761D01*
X209588095Y-75157142D01*
X209635714Y-75061904D01*
X209635714Y-74871428D01*
X209588095Y-74776190D01*
X209540476Y-74728571D01*
X209445238Y-74680952D01*
G04 #@! TO.C,R4*
X208683333Y-59252380D02*
X208350000Y-58776190D01*
X208111904Y-59252380D02*
X208111904Y-58252380D01*
X208492857Y-58252380D01*
X208588095Y-58300000D01*
X208635714Y-58347619D01*
X208683333Y-58442857D01*
X208683333Y-58585714D01*
X208635714Y-58680952D01*
X208588095Y-58728571D01*
X208492857Y-58776190D01*
X208111904Y-58776190D01*
X209540476Y-58585714D02*
X209540476Y-59252380D01*
X209302380Y-58204761D02*
X209064285Y-58919047D01*
X209683333Y-58919047D01*
G04 #@! TO.C,J5*
X152066666Y-107472380D02*
X152066666Y-108186666D01*
X152019047Y-108329523D01*
X151923809Y-108424761D01*
X151780952Y-108472380D01*
X151685714Y-108472380D01*
X153019047Y-107472380D02*
X152542857Y-107472380D01*
X152495238Y-107948571D01*
X152542857Y-107900952D01*
X152638095Y-107853333D01*
X152876190Y-107853333D01*
X152971428Y-107900952D01*
X153019047Y-107948571D01*
X153066666Y-108043809D01*
X153066666Y-108281904D01*
X153019047Y-108377142D01*
X152971428Y-108424761D01*
X152876190Y-108472380D01*
X152638095Y-108472380D01*
X152542857Y-108424761D01*
X152495238Y-108377142D01*
G04 #@! TO.C,R14*
X207057142Y-104502380D02*
X206723809Y-104026190D01*
X206485714Y-104502380D02*
X206485714Y-103502380D01*
X206866666Y-103502380D01*
X206961904Y-103550000D01*
X207009523Y-103597619D01*
X207057142Y-103692857D01*
X207057142Y-103835714D01*
X207009523Y-103930952D01*
X206961904Y-103978571D01*
X206866666Y-104026190D01*
X206485714Y-104026190D01*
X208009523Y-104502380D02*
X207438095Y-104502380D01*
X207723809Y-104502380D02*
X207723809Y-103502380D01*
X207628571Y-103645238D01*
X207533333Y-103740476D01*
X207438095Y-103788095D01*
X208866666Y-103835714D02*
X208866666Y-104502380D01*
X208628571Y-103454761D02*
X208390476Y-104169047D01*
X209009523Y-104169047D01*
G04 #@! TO.C,J2*
X225451666Y-106527380D02*
X225451666Y-107241666D01*
X225404047Y-107384523D01*
X225308809Y-107479761D01*
X225165952Y-107527380D01*
X225070714Y-107527380D01*
X225880238Y-106622619D02*
X225927857Y-106575000D01*
X226023095Y-106527380D01*
X226261190Y-106527380D01*
X226356428Y-106575000D01*
X226404047Y-106622619D01*
X226451666Y-106717857D01*
X226451666Y-106813095D01*
X226404047Y-106955952D01*
X225832619Y-107527380D01*
X226451666Y-107527380D01*
G04 #@! TO.C,C1*
X223107142Y-111916666D02*
X223154761Y-111964285D01*
X223202380Y-112107142D01*
X223202380Y-112202380D01*
X223154761Y-112345238D01*
X223059523Y-112440476D01*
X222964285Y-112488095D01*
X222773809Y-112535714D01*
X222630952Y-112535714D01*
X222440476Y-112488095D01*
X222345238Y-112440476D01*
X222250000Y-112345238D01*
X222202380Y-112202380D01*
X222202380Y-112107142D01*
X222250000Y-111964285D01*
X222297619Y-111916666D01*
X223202380Y-110964285D02*
X223202380Y-111535714D01*
X223202380Y-111250000D02*
X222202380Y-111250000D01*
X222345238Y-111345238D01*
X222440476Y-111440476D01*
X222488095Y-111535714D01*
G04 #@! TO.C,R12*
X202357142Y-101902380D02*
X202023809Y-101426190D01*
X201785714Y-101902380D02*
X201785714Y-100902380D01*
X202166666Y-100902380D01*
X202261904Y-100950000D01*
X202309523Y-100997619D01*
X202357142Y-101092857D01*
X202357142Y-101235714D01*
X202309523Y-101330952D01*
X202261904Y-101378571D01*
X202166666Y-101426190D01*
X201785714Y-101426190D01*
X203309523Y-101902380D02*
X202738095Y-101902380D01*
X203023809Y-101902380D02*
X203023809Y-100902380D01*
X202928571Y-101045238D01*
X202833333Y-101140476D01*
X202738095Y-101188095D01*
X203690476Y-100997619D02*
X203738095Y-100950000D01*
X203833333Y-100902380D01*
X204071428Y-100902380D01*
X204166666Y-100950000D01*
X204214285Y-100997619D01*
X204261904Y-101092857D01*
X204261904Y-101188095D01*
X204214285Y-101330952D01*
X203642857Y-101902380D01*
X204261904Y-101902380D01*
G04 #@! TO.C,R11*
X198157142Y-99402380D02*
X197823809Y-98926190D01*
X197585714Y-99402380D02*
X197585714Y-98402380D01*
X197966666Y-98402380D01*
X198061904Y-98450000D01*
X198109523Y-98497619D01*
X198157142Y-98592857D01*
X198157142Y-98735714D01*
X198109523Y-98830952D01*
X198061904Y-98878571D01*
X197966666Y-98926190D01*
X197585714Y-98926190D01*
X199109523Y-99402380D02*
X198538095Y-99402380D01*
X198823809Y-99402380D02*
X198823809Y-98402380D01*
X198728571Y-98545238D01*
X198633333Y-98640476D01*
X198538095Y-98688095D01*
X200061904Y-99402380D02*
X199490476Y-99402380D01*
X199776190Y-99402380D02*
X199776190Y-98402380D01*
X199680952Y-98545238D01*
X199585714Y-98640476D01*
X199490476Y-98688095D01*
G04 #@! TO.C,D1*
X213961904Y-93012380D02*
X213961904Y-92012380D01*
X214200000Y-92012380D01*
X214342857Y-92060000D01*
X214438095Y-92155238D01*
X214485714Y-92250476D01*
X214533333Y-92440952D01*
X214533333Y-92583809D01*
X214485714Y-92774285D01*
X214438095Y-92869523D01*
X214342857Y-92964761D01*
X214200000Y-93012380D01*
X213961904Y-93012380D01*
X215485714Y-93012380D02*
X214914285Y-93012380D01*
X215200000Y-93012380D02*
X215200000Y-92012380D01*
X215104761Y-92155238D01*
X215009523Y-92250476D01*
X214914285Y-92298095D01*
G04 #@! TO.C,J4*
X152066666Y-63322380D02*
X152066666Y-64036666D01*
X152019047Y-64179523D01*
X151923809Y-64274761D01*
X151780952Y-64322380D01*
X151685714Y-64322380D01*
X152971428Y-63655714D02*
X152971428Y-64322380D01*
X152733333Y-63274761D02*
X152495238Y-63989047D01*
X153114285Y-63989047D01*
G04 #@! TO.C,U1*
X180238095Y-45384880D02*
X180238095Y-46194404D01*
X180285714Y-46289642D01*
X180333333Y-46337261D01*
X180428571Y-46384880D01*
X180619047Y-46384880D01*
X180714285Y-46337261D01*
X180761904Y-46289642D01*
X180809523Y-46194404D01*
X180809523Y-45384880D01*
X181809523Y-46384880D02*
X181238095Y-46384880D01*
X181523809Y-46384880D02*
X181523809Y-45384880D01*
X181428571Y-45527738D01*
X181333333Y-45622976D01*
X181238095Y-45670595D01*
G04 #@! TO.C,D2*
X148861904Y-69852380D02*
X148861904Y-68852380D01*
X149100000Y-68852380D01*
X149242857Y-68900000D01*
X149338095Y-68995238D01*
X149385714Y-69090476D01*
X149433333Y-69280952D01*
X149433333Y-69423809D01*
X149385714Y-69614285D01*
X149338095Y-69709523D01*
X149242857Y-69804761D01*
X149100000Y-69852380D01*
X148861904Y-69852380D01*
X149814285Y-68947619D02*
X149861904Y-68900000D01*
X149957142Y-68852380D01*
X150195238Y-68852380D01*
X150290476Y-68900000D01*
X150338095Y-68947619D01*
X150385714Y-69042857D01*
X150385714Y-69138095D01*
X150338095Y-69280952D01*
X149766666Y-69852380D01*
X150385714Y-69852380D01*
G04 #@! TO.C,R15*
X162232380Y-70192857D02*
X161756190Y-70526190D01*
X162232380Y-70764285D02*
X161232380Y-70764285D01*
X161232380Y-70383333D01*
X161280000Y-70288095D01*
X161327619Y-70240476D01*
X161422857Y-70192857D01*
X161565714Y-70192857D01*
X161660952Y-70240476D01*
X161708571Y-70288095D01*
X161756190Y-70383333D01*
X161756190Y-70764285D01*
X162232380Y-69240476D02*
X162232380Y-69811904D01*
X162232380Y-69526190D02*
X161232380Y-69526190D01*
X161375238Y-69621428D01*
X161470476Y-69716666D01*
X161518095Y-69811904D01*
X161232380Y-68335714D02*
X161232380Y-68811904D01*
X161708571Y-68859523D01*
X161660952Y-68811904D01*
X161613333Y-68716666D01*
X161613333Y-68478571D01*
X161660952Y-68383333D01*
X161708571Y-68335714D01*
X161803809Y-68288095D01*
X162041904Y-68288095D01*
X162137142Y-68335714D01*
X162184761Y-68383333D01*
X162232380Y-68478571D01*
X162232380Y-68716666D01*
X162184761Y-68811904D01*
X162137142Y-68859523D01*
G04 #@! TD*
M02*
