G04 #@! TF.GenerationSoftware,KiCad,Pcbnew,5.0.2-bee76a0~70~ubuntu16.04.1*
G04 #@! TF.CreationDate,2024-02-25T21:22:06-04:00*
G04 #@! TF.ProjectId,leonrv,6c656f6e-7276-42e6-9b69-6361645f7063,rev?*
G04 #@! TF.SameCoordinates,Original*
G04 #@! TF.FileFunction,Soldermask,Bot*
G04 #@! TF.FilePolarity,Negative*
%FSLAX46Y46*%
G04 Gerber Fmt 4.6, Leading zero omitted, Abs format (unit mm)*
G04 Created by KiCad (PCBNEW 5.0.2-bee76a0~70~ubuntu16.04.1) date dom 25 feb 2024 21:22:06 -04*
%MOMM*%
%LPD*%
G01*
G04 APERTURE LIST*
%ADD10C,0.100000*%
G04 APERTURE END LIST*
D10*
G36*
X211273055Y-119204790D02*
X211396577Y-119216956D01*
X211594691Y-119277054D01*
X211777274Y-119374646D01*
X211937310Y-119505984D01*
X212068648Y-119666020D01*
X212166240Y-119848603D01*
X212226338Y-120046717D01*
X212246630Y-120252749D01*
X212226338Y-120458781D01*
X212166240Y-120656895D01*
X212068648Y-120839478D01*
X211937310Y-120999514D01*
X211777274Y-121130852D01*
X211594691Y-121228444D01*
X211396577Y-121288542D01*
X211273055Y-121300708D01*
X211242176Y-121303749D01*
X211138914Y-121303749D01*
X211108035Y-121300708D01*
X210984513Y-121288542D01*
X210786399Y-121228444D01*
X210603816Y-121130852D01*
X210443780Y-120999514D01*
X210312442Y-120839478D01*
X210214850Y-120656895D01*
X210154752Y-120458781D01*
X210134460Y-120252749D01*
X210154752Y-120046717D01*
X210214850Y-119848603D01*
X210312442Y-119666020D01*
X210443780Y-119505984D01*
X210603816Y-119374646D01*
X210786399Y-119277054D01*
X210984513Y-119216956D01*
X211108035Y-119204790D01*
X211138914Y-119201749D01*
X211242176Y-119201749D01*
X211273055Y-119204790D01*
X211273055Y-119204790D01*
G37*
G36*
X190953055Y-119204790D02*
X191076577Y-119216956D01*
X191274691Y-119277054D01*
X191457274Y-119374646D01*
X191617310Y-119505984D01*
X191748648Y-119666020D01*
X191846240Y-119848603D01*
X191906338Y-120046717D01*
X191926630Y-120252749D01*
X191906338Y-120458781D01*
X191846240Y-120656895D01*
X191748648Y-120839478D01*
X191617310Y-120999514D01*
X191457274Y-121130852D01*
X191274691Y-121228444D01*
X191076577Y-121288542D01*
X190953055Y-121300708D01*
X190922176Y-121303749D01*
X190818914Y-121303749D01*
X190788035Y-121300708D01*
X190664513Y-121288542D01*
X190466399Y-121228444D01*
X190283816Y-121130852D01*
X190123780Y-120999514D01*
X189992442Y-120839478D01*
X189894850Y-120656895D01*
X189834752Y-120458781D01*
X189814460Y-120252749D01*
X189834752Y-120046717D01*
X189894850Y-119848603D01*
X189992442Y-119666020D01*
X190123780Y-119505984D01*
X190283816Y-119374646D01*
X190466399Y-119277054D01*
X190664513Y-119216956D01*
X190788035Y-119204790D01*
X190818914Y-119201749D01*
X190922176Y-119201749D01*
X190953055Y-119204790D01*
X190953055Y-119204790D01*
G37*
G36*
X211273055Y-116664790D02*
X211396577Y-116676956D01*
X211594691Y-116737054D01*
X211777274Y-116834646D01*
X211937310Y-116965984D01*
X212068648Y-117126020D01*
X212166240Y-117308603D01*
X212226338Y-117506717D01*
X212246630Y-117712749D01*
X212226338Y-117918781D01*
X212166240Y-118116895D01*
X212068648Y-118299478D01*
X211937310Y-118459514D01*
X211777274Y-118590852D01*
X211594691Y-118688444D01*
X211396577Y-118748542D01*
X211273055Y-118760708D01*
X211242176Y-118763749D01*
X211138914Y-118763749D01*
X211108035Y-118760708D01*
X210984513Y-118748542D01*
X210786399Y-118688444D01*
X210603816Y-118590852D01*
X210443780Y-118459514D01*
X210312442Y-118299478D01*
X210214850Y-118116895D01*
X210154752Y-117918781D01*
X210134460Y-117712749D01*
X210154752Y-117506717D01*
X210214850Y-117308603D01*
X210312442Y-117126020D01*
X210443780Y-116965984D01*
X210603816Y-116834646D01*
X210786399Y-116737054D01*
X210984513Y-116676956D01*
X211108035Y-116664790D01*
X211138914Y-116661749D01*
X211242176Y-116661749D01*
X211273055Y-116664790D01*
X211273055Y-116664790D01*
G37*
G36*
X190953055Y-116664790D02*
X191076577Y-116676956D01*
X191274691Y-116737054D01*
X191457274Y-116834646D01*
X191617310Y-116965984D01*
X191748648Y-117126020D01*
X191846240Y-117308603D01*
X191906338Y-117506717D01*
X191926630Y-117712749D01*
X191906338Y-117918781D01*
X191846240Y-118116895D01*
X191748648Y-118299478D01*
X191617310Y-118459514D01*
X191457274Y-118590852D01*
X191274691Y-118688444D01*
X191076577Y-118748542D01*
X190953055Y-118760708D01*
X190922176Y-118763749D01*
X190818914Y-118763749D01*
X190788035Y-118760708D01*
X190664513Y-118748542D01*
X190466399Y-118688444D01*
X190283816Y-118590852D01*
X190123780Y-118459514D01*
X189992442Y-118299478D01*
X189894850Y-118116895D01*
X189834752Y-117918781D01*
X189814460Y-117712749D01*
X189834752Y-117506717D01*
X189894850Y-117308603D01*
X189992442Y-117126020D01*
X190123780Y-116965984D01*
X190283816Y-116834646D01*
X190466399Y-116737054D01*
X190664513Y-116676956D01*
X190788035Y-116664790D01*
X190818914Y-116661749D01*
X190922176Y-116661749D01*
X190953055Y-116664790D01*
X190953055Y-116664790D01*
G37*
G36*
X211273055Y-114124790D02*
X211396577Y-114136956D01*
X211594691Y-114197054D01*
X211777274Y-114294646D01*
X211937310Y-114425984D01*
X212068648Y-114586020D01*
X212159504Y-114756000D01*
X212161725Y-114760155D01*
X212166240Y-114768603D01*
X212226338Y-114966717D01*
X212246630Y-115172749D01*
X212226338Y-115378781D01*
X212166240Y-115576895D01*
X212068648Y-115759478D01*
X211937310Y-115919514D01*
X211777274Y-116050852D01*
X211594691Y-116148444D01*
X211396577Y-116208542D01*
X211273055Y-116220708D01*
X211242176Y-116223749D01*
X211138914Y-116223749D01*
X211108035Y-116220708D01*
X210984513Y-116208542D01*
X210786399Y-116148444D01*
X210603816Y-116050852D01*
X210443780Y-115919514D01*
X210312442Y-115759478D01*
X210214850Y-115576895D01*
X210154752Y-115378781D01*
X210134460Y-115172749D01*
X210154752Y-114966717D01*
X210214850Y-114768603D01*
X210219366Y-114760155D01*
X210221586Y-114756000D01*
X210312442Y-114586020D01*
X210443780Y-114425984D01*
X210603816Y-114294646D01*
X210786399Y-114197054D01*
X210984513Y-114136956D01*
X211108035Y-114124790D01*
X211138914Y-114121749D01*
X211242176Y-114121749D01*
X211273055Y-114124790D01*
X211273055Y-114124790D01*
G37*
G36*
X190953055Y-114124790D02*
X191076577Y-114136956D01*
X191274691Y-114197054D01*
X191457274Y-114294646D01*
X191617310Y-114425984D01*
X191748648Y-114586020D01*
X191839504Y-114756000D01*
X191841725Y-114760155D01*
X191846240Y-114768603D01*
X191906338Y-114966717D01*
X191926630Y-115172749D01*
X191906338Y-115378781D01*
X191846240Y-115576895D01*
X191748648Y-115759478D01*
X191617310Y-115919514D01*
X191457274Y-116050852D01*
X191274691Y-116148444D01*
X191076577Y-116208542D01*
X190953055Y-116220708D01*
X190922176Y-116223749D01*
X190818914Y-116223749D01*
X190788035Y-116220708D01*
X190664513Y-116208542D01*
X190466399Y-116148444D01*
X190283816Y-116050852D01*
X190123780Y-115919514D01*
X189992442Y-115759478D01*
X189894850Y-115576895D01*
X189834752Y-115378781D01*
X189814460Y-115172749D01*
X189834752Y-114966717D01*
X189894850Y-114768603D01*
X189899366Y-114760155D01*
X189901586Y-114756000D01*
X189992442Y-114586020D01*
X190123780Y-114425984D01*
X190283816Y-114294646D01*
X190466399Y-114197054D01*
X190664513Y-114136956D01*
X190788035Y-114124790D01*
X190818914Y-114121749D01*
X190922176Y-114121749D01*
X190953055Y-114124790D01*
X190953055Y-114124790D01*
G37*
G36*
X151816705Y-111617117D02*
X151816707Y-111617118D01*
X151816708Y-111617118D01*
X151913122Y-111657054D01*
X152126271Y-111745343D01*
X152404872Y-111931498D01*
X152641796Y-112168422D01*
X152827951Y-112447023D01*
X152956177Y-112756589D01*
X153021545Y-113085214D01*
X153021545Y-113420284D01*
X152956177Y-113748909D01*
X152827951Y-114058475D01*
X152641796Y-114337076D01*
X152404872Y-114574000D01*
X152126271Y-114760155D01*
X151931059Y-114841014D01*
X151816708Y-114888380D01*
X151816707Y-114888380D01*
X151816705Y-114888381D01*
X151488080Y-114953749D01*
X151153010Y-114953749D01*
X150824385Y-114888381D01*
X150824383Y-114888380D01*
X150824382Y-114888380D01*
X150710031Y-114841014D01*
X150514819Y-114760155D01*
X150236218Y-114574000D01*
X149999294Y-114337076D01*
X149813139Y-114058475D01*
X149684913Y-113748909D01*
X149619545Y-113420284D01*
X149619545Y-113085214D01*
X149684913Y-112756589D01*
X149813139Y-112447023D01*
X149999294Y-112168422D01*
X150236218Y-111931498D01*
X150514819Y-111745343D01*
X150727968Y-111657054D01*
X150824382Y-111617118D01*
X150824383Y-111617118D01*
X150824385Y-111617117D01*
X151153010Y-111551749D01*
X151488080Y-111551749D01*
X151816705Y-111617117D01*
X151816705Y-111617117D01*
G37*
G36*
X190953055Y-111584790D02*
X191076577Y-111596956D01*
X191274691Y-111657054D01*
X191457274Y-111754646D01*
X191617310Y-111885984D01*
X191748648Y-112046020D01*
X191846240Y-112228603D01*
X191906338Y-112426717D01*
X191926630Y-112632749D01*
X191906338Y-112838781D01*
X191846240Y-113036895D01*
X191748648Y-113219478D01*
X191617310Y-113379514D01*
X191457274Y-113510852D01*
X191274691Y-113608444D01*
X191076577Y-113668542D01*
X190953055Y-113680708D01*
X190922176Y-113683749D01*
X190818914Y-113683749D01*
X190788035Y-113680708D01*
X190664513Y-113668542D01*
X190466399Y-113608444D01*
X190283816Y-113510852D01*
X190123780Y-113379514D01*
X189992442Y-113219478D01*
X189894850Y-113036895D01*
X189834752Y-112838781D01*
X189814460Y-112632749D01*
X189834752Y-112426717D01*
X189894850Y-112228603D01*
X189992442Y-112046020D01*
X190123780Y-111885984D01*
X190283816Y-111754646D01*
X190466399Y-111657054D01*
X190664513Y-111596956D01*
X190788035Y-111584790D01*
X190818914Y-111581749D01*
X190922176Y-111581749D01*
X190953055Y-111584790D01*
X190953055Y-111584790D01*
G37*
G36*
X211273055Y-111584790D02*
X211396577Y-111596956D01*
X211594691Y-111657054D01*
X211777274Y-111754646D01*
X211937310Y-111885984D01*
X212068648Y-112046020D01*
X212166240Y-112228603D01*
X212226338Y-112426717D01*
X212246630Y-112632749D01*
X212226338Y-112838781D01*
X212166240Y-113036895D01*
X212068648Y-113219478D01*
X211937310Y-113379514D01*
X211777274Y-113510852D01*
X211594691Y-113608444D01*
X211396577Y-113668542D01*
X211273055Y-113680708D01*
X211242176Y-113683749D01*
X211138914Y-113683749D01*
X211108035Y-113680708D01*
X210984513Y-113668542D01*
X210786399Y-113608444D01*
X210603816Y-113510852D01*
X210443780Y-113379514D01*
X210312442Y-113219478D01*
X210214850Y-113036895D01*
X210154752Y-112838781D01*
X210134460Y-112632749D01*
X210154752Y-112426717D01*
X210214850Y-112228603D01*
X210312442Y-112046020D01*
X210443780Y-111885984D01*
X210603816Y-111754646D01*
X210786399Y-111657054D01*
X210984513Y-111596956D01*
X211108035Y-111584790D01*
X211138914Y-111581749D01*
X211242176Y-111581749D01*
X211273055Y-111584790D01*
X211273055Y-111584790D01*
G37*
G36*
X163278773Y-111864452D02*
X163433645Y-111928602D01*
X163573026Y-112021734D01*
X163691560Y-112140268D01*
X163784692Y-112279649D01*
X163848842Y-112434521D01*
X163881545Y-112598933D01*
X163881545Y-112766565D01*
X163848842Y-112930977D01*
X163784692Y-113085849D01*
X163691560Y-113225230D01*
X163573026Y-113343764D01*
X163433645Y-113436896D01*
X163278773Y-113501046D01*
X163114361Y-113533749D01*
X162946729Y-113533749D01*
X162782317Y-113501046D01*
X162627445Y-113436896D01*
X162488064Y-113343764D01*
X162369530Y-113225230D01*
X162276398Y-113085849D01*
X162212248Y-112930977D01*
X162179545Y-112766565D01*
X162179545Y-112598933D01*
X162212248Y-112434521D01*
X162276398Y-112279649D01*
X162369530Y-112140268D01*
X162488064Y-112021734D01*
X162627445Y-111928602D01*
X162782317Y-111864452D01*
X162946729Y-111831749D01*
X163114361Y-111831749D01*
X163278773Y-111864452D01*
X163278773Y-111864452D01*
G37*
G36*
X174575784Y-108849850D02*
X174811598Y-108921383D01*
X175028926Y-109037548D01*
X175219416Y-109193878D01*
X175375746Y-109384368D01*
X175491911Y-109601696D01*
X175563444Y-109837510D01*
X175587598Y-110082749D01*
X175563444Y-110327988D01*
X175491911Y-110563802D01*
X175375746Y-110781130D01*
X175219416Y-110971620D01*
X175028926Y-111127950D01*
X174811598Y-111244115D01*
X174575784Y-111315648D01*
X174392002Y-111333749D01*
X174269088Y-111333749D01*
X174085306Y-111315648D01*
X173849492Y-111244115D01*
X173632164Y-111127950D01*
X173441674Y-110971620D01*
X173285344Y-110781130D01*
X173169179Y-110563802D01*
X173097646Y-110327988D01*
X173073492Y-110082749D01*
X173097646Y-109837510D01*
X173169179Y-109601696D01*
X173285344Y-109384368D01*
X173441674Y-109193878D01*
X173632164Y-109037548D01*
X173849492Y-108921383D01*
X174085306Y-108849850D01*
X174269088Y-108831749D01*
X174392002Y-108831749D01*
X174575784Y-108849850D01*
X174575784Y-108849850D01*
G37*
G36*
X154322526Y-109220217D02*
X154504695Y-109295674D01*
X154668648Y-109405224D01*
X154808070Y-109544646D01*
X154917620Y-109708599D01*
X154993077Y-109890768D01*
X155031545Y-110084159D01*
X155031545Y-110281339D01*
X154993077Y-110474730D01*
X154917620Y-110656899D01*
X154808070Y-110820852D01*
X154668648Y-110960274D01*
X154504695Y-111069824D01*
X154362937Y-111128542D01*
X154322526Y-111145281D01*
X154129135Y-111183749D01*
X153931955Y-111183749D01*
X153738564Y-111145281D01*
X153698153Y-111128542D01*
X153556395Y-111069824D01*
X153392442Y-110960274D01*
X153253020Y-110820852D01*
X153143470Y-110656899D01*
X153068013Y-110474730D01*
X153029545Y-110281339D01*
X153029545Y-110084159D01*
X153068013Y-109890768D01*
X153143470Y-109708599D01*
X153253020Y-109544646D01*
X153392442Y-109405224D01*
X153556395Y-109295674D01*
X153738564Y-109220217D01*
X153931955Y-109181749D01*
X154129135Y-109181749D01*
X154322526Y-109220217D01*
X154322526Y-109220217D01*
G37*
G36*
X211273055Y-109044790D02*
X211396577Y-109056956D01*
X211594691Y-109117054D01*
X211777274Y-109214646D01*
X211937310Y-109345984D01*
X212068648Y-109506020D01*
X212166240Y-109688603D01*
X212226338Y-109886717D01*
X212246630Y-110092749D01*
X212226338Y-110298781D01*
X212166240Y-110496895D01*
X212068648Y-110679478D01*
X211937310Y-110839514D01*
X211777274Y-110970852D01*
X211594691Y-111068444D01*
X211396577Y-111128542D01*
X211273055Y-111140708D01*
X211242176Y-111143749D01*
X211138914Y-111143749D01*
X211108035Y-111140708D01*
X210984513Y-111128542D01*
X210786399Y-111068444D01*
X210603816Y-110970852D01*
X210443780Y-110839514D01*
X210312442Y-110679478D01*
X210214850Y-110496895D01*
X210154752Y-110298781D01*
X210134460Y-110092749D01*
X210154752Y-109886717D01*
X210214850Y-109688603D01*
X210312442Y-109506020D01*
X210443780Y-109345984D01*
X210603816Y-109214646D01*
X210786399Y-109117054D01*
X210984513Y-109056956D01*
X211108035Y-109044790D01*
X211138914Y-109041749D01*
X211242176Y-109041749D01*
X211273055Y-109044790D01*
X211273055Y-109044790D01*
G37*
G36*
X190953055Y-109044790D02*
X191076577Y-109056956D01*
X191274691Y-109117054D01*
X191457274Y-109214646D01*
X191617310Y-109345984D01*
X191748648Y-109506020D01*
X191846240Y-109688603D01*
X191906338Y-109886717D01*
X191926630Y-110092749D01*
X191906338Y-110298781D01*
X191846240Y-110496895D01*
X191748648Y-110679478D01*
X191617310Y-110839514D01*
X191457274Y-110970852D01*
X191274691Y-111068444D01*
X191076577Y-111128542D01*
X190953055Y-111140708D01*
X190922176Y-111143749D01*
X190818914Y-111143749D01*
X190788035Y-111140708D01*
X190664513Y-111128542D01*
X190466399Y-111068444D01*
X190283816Y-110970852D01*
X190123780Y-110839514D01*
X189992442Y-110679478D01*
X189894850Y-110496895D01*
X189834752Y-110298781D01*
X189814460Y-110092749D01*
X189834752Y-109886717D01*
X189894850Y-109688603D01*
X189992442Y-109506020D01*
X190123780Y-109345984D01*
X190283816Y-109214646D01*
X190466399Y-109117054D01*
X190664513Y-109056956D01*
X190788035Y-109044790D01*
X190818914Y-109041749D01*
X190922176Y-109041749D01*
X190953055Y-109044790D01*
X190953055Y-109044790D01*
G37*
G36*
X163881545Y-111033749D02*
X162179545Y-111033749D01*
X162179545Y-109331749D01*
X163881545Y-109331749D01*
X163881545Y-111033749D01*
X163881545Y-111033749D01*
G37*
G36*
X179275784Y-106249850D02*
X179511598Y-106321383D01*
X179728926Y-106437548D01*
X179919416Y-106593878D01*
X180075746Y-106784368D01*
X180191911Y-107001696D01*
X180263444Y-107237510D01*
X180287598Y-107482749D01*
X180263444Y-107727988D01*
X180191911Y-107963802D01*
X180075746Y-108181130D01*
X179919416Y-108371620D01*
X179728926Y-108527950D01*
X179511598Y-108644115D01*
X179275784Y-108715648D01*
X179092002Y-108733749D01*
X178969088Y-108733749D01*
X178785306Y-108715648D01*
X178549492Y-108644115D01*
X178332164Y-108527950D01*
X178141674Y-108371620D01*
X177985344Y-108181130D01*
X177869179Y-107963802D01*
X177797646Y-107727988D01*
X177773492Y-107482749D01*
X177797646Y-107237510D01*
X177869179Y-107001696D01*
X177985344Y-106784368D01*
X178141674Y-106593878D01*
X178332164Y-106437548D01*
X178549492Y-106321383D01*
X178785306Y-106249850D01*
X178969088Y-106231749D01*
X179092002Y-106231749D01*
X179275784Y-106249850D01*
X179275784Y-106249850D01*
G37*
G36*
X190953055Y-106504790D02*
X191076577Y-106516956D01*
X191274691Y-106577054D01*
X191274693Y-106577055D01*
X191287217Y-106583749D01*
X191457274Y-106674646D01*
X191617310Y-106805984D01*
X191748648Y-106966020D01*
X191846240Y-107148603D01*
X191906338Y-107346717D01*
X191926630Y-107552749D01*
X191906338Y-107758781D01*
X191846240Y-107956895D01*
X191748648Y-108139478D01*
X191617310Y-108299514D01*
X191457274Y-108430852D01*
X191274691Y-108528444D01*
X191076577Y-108588542D01*
X190953055Y-108600708D01*
X190922176Y-108603749D01*
X190818914Y-108603749D01*
X190788035Y-108600708D01*
X190664513Y-108588542D01*
X190466399Y-108528444D01*
X190283816Y-108430852D01*
X190123780Y-108299514D01*
X189992442Y-108139478D01*
X189894850Y-107956895D01*
X189834752Y-107758781D01*
X189814460Y-107552749D01*
X189834752Y-107346717D01*
X189894850Y-107148603D01*
X189992442Y-106966020D01*
X190123780Y-106805984D01*
X190283816Y-106674646D01*
X190453873Y-106583749D01*
X190466397Y-106577055D01*
X190466399Y-106577054D01*
X190664513Y-106516956D01*
X190788035Y-106504790D01*
X190818914Y-106501749D01*
X190922176Y-106501749D01*
X190953055Y-106504790D01*
X190953055Y-106504790D01*
G37*
G36*
X211273055Y-106504790D02*
X211396577Y-106516956D01*
X211594691Y-106577054D01*
X211594693Y-106577055D01*
X211607217Y-106583749D01*
X211777274Y-106674646D01*
X211937310Y-106805984D01*
X212068648Y-106966020D01*
X212166240Y-107148603D01*
X212226338Y-107346717D01*
X212246630Y-107552749D01*
X212226338Y-107758781D01*
X212166240Y-107956895D01*
X212068648Y-108139478D01*
X211937310Y-108299514D01*
X211777274Y-108430852D01*
X211594691Y-108528444D01*
X211396577Y-108588542D01*
X211273055Y-108600708D01*
X211242176Y-108603749D01*
X211138914Y-108603749D01*
X211108035Y-108600708D01*
X210984513Y-108588542D01*
X210786399Y-108528444D01*
X210603816Y-108430852D01*
X210443780Y-108299514D01*
X210312442Y-108139478D01*
X210214850Y-107956895D01*
X210154752Y-107758781D01*
X210134460Y-107552749D01*
X210154752Y-107346717D01*
X210214850Y-107148603D01*
X210312442Y-106966020D01*
X210443780Y-106805984D01*
X210603816Y-106674646D01*
X210773873Y-106583749D01*
X210786397Y-106577055D01*
X210786399Y-106577054D01*
X210984513Y-106516956D01*
X211108035Y-106504790D01*
X211138914Y-106501749D01*
X211242176Y-106501749D01*
X211273055Y-106504790D01*
X211273055Y-106504790D01*
G37*
G36*
X154293357Y-104816373D02*
X154457329Y-104884293D01*
X154604899Y-104982896D01*
X154730398Y-105108395D01*
X154829001Y-105255965D01*
X154896921Y-105419937D01*
X154931545Y-105594008D01*
X154931545Y-105771490D01*
X154896921Y-105945561D01*
X154829001Y-106109533D01*
X154730398Y-106257103D01*
X154604899Y-106382602D01*
X154457329Y-106481205D01*
X154293357Y-106549125D01*
X154237912Y-106560153D01*
X154214471Y-106567264D01*
X154192860Y-106578816D01*
X154173918Y-106594361D01*
X154158373Y-106613303D01*
X154146822Y-106634914D01*
X154139709Y-106658363D01*
X154137307Y-106682749D01*
X154139709Y-106707136D01*
X154146822Y-106730585D01*
X154158374Y-106752196D01*
X154173919Y-106771138D01*
X154192861Y-106786683D01*
X154214472Y-106798234D01*
X154237912Y-106805345D01*
X154293357Y-106816373D01*
X154457329Y-106884293D01*
X154604899Y-106982896D01*
X154730398Y-107108395D01*
X154829001Y-107255965D01*
X154896921Y-107419937D01*
X154931545Y-107594008D01*
X154931545Y-107771490D01*
X154896921Y-107945561D01*
X154829001Y-108109533D01*
X154730398Y-108257103D01*
X154604899Y-108382602D01*
X154457329Y-108481205D01*
X154293357Y-108549125D01*
X154119286Y-108583749D01*
X153941804Y-108583749D01*
X153767733Y-108549125D01*
X153603761Y-108481205D01*
X153456191Y-108382602D01*
X153330692Y-108257103D01*
X153232089Y-108109533D01*
X153164169Y-107945561D01*
X153129545Y-107771490D01*
X153129545Y-107594008D01*
X153164169Y-107419937D01*
X153232089Y-107255965D01*
X153330692Y-107108395D01*
X153456191Y-106982896D01*
X153603761Y-106884293D01*
X153767733Y-106816373D01*
X153823178Y-106805345D01*
X153846619Y-106798234D01*
X153868230Y-106786682D01*
X153887172Y-106771137D01*
X153902717Y-106752195D01*
X153914268Y-106730584D01*
X153921381Y-106707135D01*
X153923783Y-106682749D01*
X153921381Y-106658362D01*
X153914268Y-106634913D01*
X153902716Y-106613302D01*
X153887171Y-106594360D01*
X153868229Y-106578815D01*
X153846618Y-106567264D01*
X153823178Y-106560153D01*
X153767733Y-106549125D01*
X153603761Y-106481205D01*
X153456191Y-106382602D01*
X153330692Y-106257103D01*
X153232089Y-106109533D01*
X153164169Y-105945561D01*
X153129545Y-105771490D01*
X153129545Y-105594008D01*
X153164169Y-105419937D01*
X153232089Y-105255965D01*
X153330692Y-105108395D01*
X153456191Y-104982896D01*
X153603761Y-104884293D01*
X153767733Y-104816373D01*
X153941804Y-104781749D01*
X154119286Y-104781749D01*
X154293357Y-104816373D01*
X154293357Y-104816373D01*
G37*
G36*
X183475784Y-103749850D02*
X183711598Y-103821383D01*
X183928926Y-103937548D01*
X184119416Y-104093878D01*
X184275746Y-104284368D01*
X184391911Y-104501696D01*
X184463444Y-104737510D01*
X184487598Y-104982749D01*
X184463444Y-105227988D01*
X184391911Y-105463802D01*
X184275746Y-105681130D01*
X184119416Y-105871620D01*
X183928926Y-106027950D01*
X183711598Y-106144115D01*
X183475784Y-106215648D01*
X183292002Y-106233749D01*
X183169088Y-106233749D01*
X182985306Y-106215648D01*
X182749492Y-106144115D01*
X182532164Y-106027950D01*
X182341674Y-105871620D01*
X182185344Y-105681130D01*
X182069179Y-105463802D01*
X181997646Y-105227988D01*
X181973492Y-104982749D01*
X181997646Y-104737510D01*
X182069179Y-104501696D01*
X182185344Y-104284368D01*
X182341674Y-104093878D01*
X182532164Y-103937548D01*
X182749492Y-103821383D01*
X182985306Y-103749850D01*
X183169088Y-103731749D01*
X183292002Y-103731749D01*
X183475784Y-103749850D01*
X183475784Y-103749850D01*
G37*
G36*
X211273055Y-103964790D02*
X211396577Y-103976956D01*
X211594691Y-104037054D01*
X211777274Y-104134646D01*
X211937310Y-104265984D01*
X212068648Y-104426020D01*
X212166240Y-104608603D01*
X212226338Y-104806717D01*
X212246630Y-105012749D01*
X212226338Y-105218781D01*
X212166240Y-105416895D01*
X212068648Y-105599478D01*
X211937310Y-105759514D01*
X211777274Y-105890852D01*
X211594691Y-105988444D01*
X211396577Y-106048542D01*
X211273055Y-106060708D01*
X211242176Y-106063749D01*
X211138914Y-106063749D01*
X211108035Y-106060708D01*
X210984513Y-106048542D01*
X210786399Y-105988444D01*
X210603816Y-105890852D01*
X210443780Y-105759514D01*
X210312442Y-105599478D01*
X210214850Y-105416895D01*
X210154752Y-105218781D01*
X210134460Y-105012749D01*
X210154752Y-104806717D01*
X210214850Y-104608603D01*
X210312442Y-104426020D01*
X210443780Y-104265984D01*
X210603816Y-104134646D01*
X210786399Y-104037054D01*
X210984513Y-103976956D01*
X211108035Y-103964790D01*
X211138914Y-103961749D01*
X211242176Y-103961749D01*
X211273055Y-103964790D01*
X211273055Y-103964790D01*
G37*
G36*
X190953055Y-103964790D02*
X191076577Y-103976956D01*
X191274691Y-104037054D01*
X191457274Y-104134646D01*
X191617310Y-104265984D01*
X191748648Y-104426020D01*
X191846240Y-104608603D01*
X191906338Y-104806717D01*
X191926630Y-105012749D01*
X191906338Y-105218781D01*
X191846240Y-105416895D01*
X191748648Y-105599478D01*
X191617310Y-105759514D01*
X191457274Y-105890852D01*
X191274691Y-105988444D01*
X191076577Y-106048542D01*
X190953055Y-106060708D01*
X190922176Y-106063749D01*
X190818914Y-106063749D01*
X190788035Y-106060708D01*
X190664513Y-106048542D01*
X190466399Y-105988444D01*
X190283816Y-105890852D01*
X190123780Y-105759514D01*
X189992442Y-105599478D01*
X189894850Y-105416895D01*
X189834752Y-105218781D01*
X189814460Y-105012749D01*
X189834752Y-104806717D01*
X189894850Y-104608603D01*
X189992442Y-104426020D01*
X190123780Y-104265984D01*
X190283816Y-104134646D01*
X190466399Y-104037054D01*
X190664513Y-103976956D01*
X190788035Y-103964790D01*
X190818914Y-103961749D01*
X190922176Y-103961749D01*
X190953055Y-103964790D01*
X190953055Y-103964790D01*
G37*
G36*
X229740988Y-104088268D02*
X229807172Y-104094786D01*
X229920398Y-104129133D01*
X229977012Y-104146306D01*
X230115632Y-104220401D01*
X230133536Y-104229971D01*
X230169274Y-104259301D01*
X230270731Y-104342563D01*
X230339221Y-104426020D01*
X230383323Y-104479758D01*
X230383324Y-104479760D01*
X230466988Y-104636282D01*
X230466988Y-104636283D01*
X230518508Y-104806122D01*
X230535904Y-104982749D01*
X230518508Y-105159376D01*
X230497696Y-105227984D01*
X230466988Y-105329216D01*
X230420122Y-105416895D01*
X230383323Y-105485740D01*
X230353993Y-105521478D01*
X230270731Y-105622935D01*
X230169274Y-105706197D01*
X230133536Y-105735527D01*
X230133534Y-105735528D01*
X229977012Y-105819192D01*
X229920398Y-105836365D01*
X229807172Y-105870712D01*
X229740987Y-105877231D01*
X229674805Y-105883749D01*
X229586285Y-105883749D01*
X229520103Y-105877231D01*
X229453918Y-105870712D01*
X229340692Y-105836365D01*
X229284078Y-105819192D01*
X229127556Y-105735528D01*
X229127554Y-105735527D01*
X229091816Y-105706197D01*
X228990359Y-105622935D01*
X228907097Y-105521478D01*
X228877767Y-105485740D01*
X228840968Y-105416895D01*
X228794102Y-105329216D01*
X228763394Y-105227984D01*
X228742582Y-105159376D01*
X228725186Y-104982749D01*
X228742582Y-104806122D01*
X228794102Y-104636283D01*
X228794102Y-104636282D01*
X228877766Y-104479760D01*
X228877767Y-104479758D01*
X228921869Y-104426020D01*
X228990359Y-104342563D01*
X229091816Y-104259301D01*
X229127554Y-104229971D01*
X229145458Y-104220401D01*
X229284078Y-104146306D01*
X229340692Y-104129133D01*
X229453918Y-104094786D01*
X229520103Y-104088267D01*
X229586285Y-104081749D01*
X229674805Y-104081749D01*
X229740988Y-104088268D01*
X229740988Y-104088268D01*
G37*
G36*
X154322526Y-102220217D02*
X154504695Y-102295674D01*
X154668648Y-102405224D01*
X154808070Y-102544646D01*
X154917620Y-102708599D01*
X154993077Y-102890768D01*
X155031545Y-103084159D01*
X155031545Y-103281339D01*
X154993077Y-103474730D01*
X154917620Y-103656899D01*
X154808070Y-103820852D01*
X154668648Y-103960274D01*
X154504695Y-104069824D01*
X154348201Y-104134646D01*
X154322526Y-104145281D01*
X154129135Y-104183749D01*
X153931955Y-104183749D01*
X153738564Y-104145281D01*
X153712889Y-104134646D01*
X153556395Y-104069824D01*
X153392442Y-103960274D01*
X153253020Y-103820852D01*
X153143470Y-103656899D01*
X153068013Y-103474730D01*
X153029545Y-103281339D01*
X153029545Y-103084159D01*
X153068013Y-102890768D01*
X153143470Y-102708599D01*
X153253020Y-102544646D01*
X153392442Y-102405224D01*
X153556395Y-102295674D01*
X153738564Y-102220217D01*
X153931955Y-102181749D01*
X154129135Y-102181749D01*
X154322526Y-102220217D01*
X154322526Y-102220217D01*
G37*
G36*
X211273055Y-101424790D02*
X211396577Y-101436956D01*
X211594691Y-101497054D01*
X211777274Y-101594646D01*
X211937310Y-101725984D01*
X212068648Y-101886020D01*
X212166240Y-102068603D01*
X212226338Y-102266717D01*
X212246630Y-102472749D01*
X212226338Y-102678781D01*
X212166240Y-102876895D01*
X212068648Y-103059478D01*
X211937310Y-103219514D01*
X211777274Y-103350852D01*
X211594691Y-103448444D01*
X211396577Y-103508542D01*
X211273055Y-103520708D01*
X211242176Y-103523749D01*
X211138914Y-103523749D01*
X211108035Y-103520708D01*
X210984513Y-103508542D01*
X210786399Y-103448444D01*
X210603816Y-103350852D01*
X210443780Y-103219514D01*
X210312442Y-103059478D01*
X210214850Y-102876895D01*
X210154752Y-102678781D01*
X210134460Y-102472749D01*
X210154752Y-102266717D01*
X210214850Y-102068603D01*
X210312442Y-101886020D01*
X210443780Y-101725984D01*
X210603816Y-101594646D01*
X210786399Y-101497054D01*
X210984513Y-101436956D01*
X211108035Y-101424790D01*
X211138914Y-101421749D01*
X211242176Y-101421749D01*
X211273055Y-101424790D01*
X211273055Y-101424790D01*
G37*
G36*
X190953055Y-101424790D02*
X191076577Y-101436956D01*
X191274691Y-101497054D01*
X191457274Y-101594646D01*
X191617310Y-101725984D01*
X191748648Y-101886020D01*
X191846240Y-102068603D01*
X191906338Y-102266717D01*
X191926630Y-102472749D01*
X191906338Y-102678781D01*
X191846240Y-102876895D01*
X191748648Y-103059478D01*
X191617310Y-103219514D01*
X191457274Y-103350852D01*
X191274691Y-103448444D01*
X191076577Y-103508542D01*
X190953055Y-103520708D01*
X190922176Y-103523749D01*
X190818914Y-103523749D01*
X190788035Y-103520708D01*
X190664513Y-103508542D01*
X190466399Y-103448444D01*
X190283816Y-103350852D01*
X190123780Y-103219514D01*
X189992442Y-103059478D01*
X189894850Y-102876895D01*
X189834752Y-102678781D01*
X189814460Y-102472749D01*
X189834752Y-102266717D01*
X189894850Y-102068603D01*
X189992442Y-101886020D01*
X190123780Y-101725984D01*
X190283816Y-101594646D01*
X190466399Y-101497054D01*
X190664513Y-101436956D01*
X190788035Y-101424790D01*
X190818914Y-101421749D01*
X190922176Y-101421749D01*
X190953055Y-101424790D01*
X190953055Y-101424790D01*
G37*
G36*
X229740988Y-101548268D02*
X229807172Y-101554786D01*
X229920398Y-101589133D01*
X229977012Y-101606306D01*
X230115632Y-101680401D01*
X230133536Y-101689971D01*
X230169274Y-101719301D01*
X230270731Y-101802563D01*
X230339221Y-101886020D01*
X230383323Y-101939758D01*
X230383324Y-101939760D01*
X230466988Y-102096282D01*
X230466988Y-102096283D01*
X230518508Y-102266122D01*
X230535904Y-102442749D01*
X230518508Y-102619376D01*
X230484161Y-102732602D01*
X230466988Y-102789216D01*
X230392893Y-102927836D01*
X230383323Y-102945740D01*
X230353993Y-102981478D01*
X230270731Y-103082935D01*
X230169274Y-103166197D01*
X230133536Y-103195527D01*
X230133534Y-103195528D01*
X229977012Y-103279192D01*
X229920398Y-103296365D01*
X229807172Y-103330712D01*
X229740988Y-103337230D01*
X229674805Y-103343749D01*
X229586285Y-103343749D01*
X229520102Y-103337230D01*
X229453918Y-103330712D01*
X229340692Y-103296365D01*
X229284078Y-103279192D01*
X229127556Y-103195528D01*
X229127554Y-103195527D01*
X229091816Y-103166197D01*
X228990359Y-103082935D01*
X228907097Y-102981478D01*
X228877767Y-102945740D01*
X228868197Y-102927836D01*
X228794102Y-102789216D01*
X228776929Y-102732602D01*
X228742582Y-102619376D01*
X228725186Y-102442749D01*
X228742582Y-102266122D01*
X228794102Y-102096283D01*
X228794102Y-102096282D01*
X228877766Y-101939760D01*
X228877767Y-101939758D01*
X228921869Y-101886020D01*
X228990359Y-101802563D01*
X229091816Y-101719301D01*
X229127554Y-101689971D01*
X229145458Y-101680401D01*
X229284078Y-101606306D01*
X229340692Y-101589133D01*
X229453918Y-101554786D01*
X229520102Y-101548268D01*
X229586285Y-101541749D01*
X229674805Y-101541749D01*
X229740988Y-101548268D01*
X229740988Y-101548268D01*
G37*
G36*
X151816705Y-98477117D02*
X151816707Y-98477118D01*
X151816708Y-98477118D01*
X151931059Y-98524484D01*
X152126271Y-98605343D01*
X152404872Y-98791498D01*
X152641796Y-99028422D01*
X152827951Y-99307023D01*
X152956177Y-99616589D01*
X153021545Y-99945214D01*
X153021545Y-100280284D01*
X152956177Y-100608909D01*
X152827951Y-100918475D01*
X152641796Y-101197076D01*
X152404872Y-101434000D01*
X152126271Y-101620155D01*
X151957722Y-101689970D01*
X151816708Y-101748380D01*
X151816707Y-101748380D01*
X151816705Y-101748381D01*
X151488080Y-101813749D01*
X151153010Y-101813749D01*
X150824385Y-101748381D01*
X150824383Y-101748380D01*
X150824382Y-101748380D01*
X150683368Y-101689970D01*
X150514819Y-101620155D01*
X150236218Y-101434000D01*
X149999294Y-101197076D01*
X149813139Y-100918475D01*
X149684913Y-100608909D01*
X149619545Y-100280284D01*
X149619545Y-99945214D01*
X149684913Y-99616589D01*
X149813139Y-99307023D01*
X149999294Y-99028422D01*
X150236218Y-98791498D01*
X150514819Y-98605343D01*
X150710031Y-98524484D01*
X150824382Y-98477118D01*
X150824383Y-98477118D01*
X150824385Y-98477117D01*
X151153010Y-98411749D01*
X151488080Y-98411749D01*
X151816705Y-98477117D01*
X151816705Y-98477117D01*
G37*
G36*
X211273055Y-98884790D02*
X211396577Y-98896956D01*
X211594691Y-98957054D01*
X211777274Y-99054646D01*
X211937310Y-99185984D01*
X212068648Y-99346020D01*
X212166240Y-99528603D01*
X212226338Y-99726717D01*
X212246630Y-99932749D01*
X212226338Y-100138781D01*
X212166240Y-100336895D01*
X212068648Y-100519478D01*
X211937310Y-100679514D01*
X211777274Y-100810852D01*
X211594691Y-100908444D01*
X211396577Y-100968542D01*
X211273055Y-100980708D01*
X211242176Y-100983749D01*
X211138914Y-100983749D01*
X211108035Y-100980708D01*
X210984513Y-100968542D01*
X210786399Y-100908444D01*
X210603816Y-100810852D01*
X210443780Y-100679514D01*
X210312442Y-100519478D01*
X210214850Y-100336895D01*
X210154752Y-100138781D01*
X210134460Y-99932749D01*
X210154752Y-99726717D01*
X210214850Y-99528603D01*
X210312442Y-99346020D01*
X210443780Y-99185984D01*
X210603816Y-99054646D01*
X210786399Y-98957054D01*
X210984513Y-98896956D01*
X211108035Y-98884790D01*
X211138914Y-98881749D01*
X211242176Y-98881749D01*
X211273055Y-98884790D01*
X211273055Y-98884790D01*
G37*
G36*
X190953055Y-98884790D02*
X191076577Y-98896956D01*
X191274691Y-98957054D01*
X191457274Y-99054646D01*
X191617310Y-99185984D01*
X191748648Y-99346020D01*
X191846240Y-99528603D01*
X191906338Y-99726717D01*
X191926630Y-99932749D01*
X191906338Y-100138781D01*
X191846240Y-100336895D01*
X191748648Y-100519478D01*
X191617310Y-100679514D01*
X191457274Y-100810852D01*
X191274691Y-100908444D01*
X191076577Y-100968542D01*
X190953055Y-100980708D01*
X190922176Y-100983749D01*
X190818914Y-100983749D01*
X190788035Y-100980708D01*
X190664513Y-100968542D01*
X190466399Y-100908444D01*
X190283816Y-100810852D01*
X190123780Y-100679514D01*
X189992442Y-100519478D01*
X189894850Y-100336895D01*
X189834752Y-100138781D01*
X189814460Y-99932749D01*
X189834752Y-99726717D01*
X189894850Y-99528603D01*
X189992442Y-99346020D01*
X190123780Y-99185984D01*
X190283816Y-99054646D01*
X190466399Y-98957054D01*
X190664513Y-98896956D01*
X190788035Y-98884790D01*
X190818914Y-98881749D01*
X190922176Y-98881749D01*
X190953055Y-98884790D01*
X190953055Y-98884790D01*
G37*
G36*
X230531545Y-100803749D02*
X228729545Y-100803749D01*
X228729545Y-99001749D01*
X230531545Y-99001749D01*
X230531545Y-100803749D01*
X230531545Y-100803749D01*
G37*
G36*
X174514181Y-96143768D02*
X174695448Y-96179824D01*
X174923116Y-96274127D01*
X175069217Y-96371749D01*
X175128014Y-96411036D01*
X175302258Y-96585280D01*
X175302260Y-96585283D01*
X175439167Y-96790178D01*
X175533470Y-97017846D01*
X175581545Y-97259536D01*
X175581545Y-97505962D01*
X175533470Y-97747652D01*
X175439167Y-97975320D01*
X175312083Y-98165514D01*
X175302258Y-98180218D01*
X175128014Y-98354462D01*
X175128011Y-98354464D01*
X174923116Y-98491371D01*
X174695448Y-98585674D01*
X174514181Y-98621730D01*
X174453759Y-98633749D01*
X174207331Y-98633749D01*
X174146909Y-98621730D01*
X173965642Y-98585674D01*
X173737974Y-98491371D01*
X173533079Y-98354464D01*
X173533076Y-98354462D01*
X173358832Y-98180218D01*
X173349007Y-98165514D01*
X173221923Y-97975320D01*
X173127620Y-97747652D01*
X173079545Y-97505962D01*
X173079545Y-97259536D01*
X173127620Y-97017846D01*
X173221923Y-96790178D01*
X173358830Y-96585283D01*
X173358832Y-96585280D01*
X173533076Y-96411036D01*
X173591873Y-96371749D01*
X173737974Y-96274127D01*
X173965642Y-96179824D01*
X174146910Y-96143768D01*
X174207331Y-96131749D01*
X174453759Y-96131749D01*
X174514181Y-96143768D01*
X174514181Y-96143768D01*
G37*
G36*
X211273055Y-96344790D02*
X211396577Y-96356956D01*
X211594691Y-96417054D01*
X211777274Y-96514646D01*
X211937310Y-96645984D01*
X212068648Y-96806020D01*
X212166240Y-96988603D01*
X212226338Y-97186717D01*
X212246630Y-97392749D01*
X212226338Y-97598781D01*
X212166240Y-97796895D01*
X212068648Y-97979478D01*
X211937310Y-98139514D01*
X211777274Y-98270852D01*
X211594691Y-98368444D01*
X211396577Y-98428542D01*
X211273055Y-98440708D01*
X211242176Y-98443749D01*
X211138914Y-98443749D01*
X211108035Y-98440708D01*
X210984513Y-98428542D01*
X210786399Y-98368444D01*
X210603816Y-98270852D01*
X210443780Y-98139514D01*
X210312442Y-97979478D01*
X210214850Y-97796895D01*
X210154752Y-97598781D01*
X210134460Y-97392749D01*
X210154752Y-97186717D01*
X210214850Y-96988603D01*
X210312442Y-96806020D01*
X210443780Y-96645984D01*
X210603816Y-96514646D01*
X210786399Y-96417054D01*
X210984513Y-96356956D01*
X211108035Y-96344790D01*
X211138914Y-96341749D01*
X211242176Y-96341749D01*
X211273055Y-96344790D01*
X211273055Y-96344790D01*
G37*
G36*
X190953055Y-96344790D02*
X191076577Y-96356956D01*
X191274691Y-96417054D01*
X191457274Y-96514646D01*
X191617310Y-96645984D01*
X191748648Y-96806020D01*
X191846240Y-96988603D01*
X191906338Y-97186717D01*
X191926630Y-97392749D01*
X191906338Y-97598781D01*
X191846240Y-97796895D01*
X191748648Y-97979478D01*
X191617310Y-98139514D01*
X191457274Y-98270852D01*
X191274691Y-98368444D01*
X191076577Y-98428542D01*
X190953055Y-98440708D01*
X190922176Y-98443749D01*
X190818914Y-98443749D01*
X190788035Y-98440708D01*
X190664513Y-98428542D01*
X190466399Y-98368444D01*
X190283816Y-98270852D01*
X190123780Y-98139514D01*
X189992442Y-97979478D01*
X189894850Y-97796895D01*
X189834752Y-97598781D01*
X189814460Y-97392749D01*
X189834752Y-97186717D01*
X189894850Y-96988603D01*
X189992442Y-96806020D01*
X190123780Y-96645984D01*
X190283816Y-96514646D01*
X190466399Y-96417054D01*
X190664513Y-96356956D01*
X190788035Y-96344790D01*
X190818914Y-96341749D01*
X190922176Y-96341749D01*
X190953055Y-96344790D01*
X190953055Y-96344790D01*
G37*
G36*
X167607941Y-96408295D02*
X167781011Y-96479983D01*
X167936775Y-96584061D01*
X168069233Y-96716519D01*
X168173311Y-96872283D01*
X168244999Y-97045353D01*
X168281545Y-97229082D01*
X168281545Y-97416416D01*
X168244999Y-97600145D01*
X168173311Y-97773215D01*
X168069233Y-97928979D01*
X167936775Y-98061437D01*
X167781011Y-98165515D01*
X167607941Y-98237203D01*
X167424212Y-98273749D01*
X167236878Y-98273749D01*
X167053149Y-98237203D01*
X166880079Y-98165515D01*
X166724315Y-98061437D01*
X166591857Y-97928979D01*
X166487779Y-97773215D01*
X166416091Y-97600145D01*
X166379545Y-97416416D01*
X166379545Y-97229082D01*
X166416091Y-97045353D01*
X166487779Y-96872283D01*
X166591857Y-96716519D01*
X166724315Y-96584061D01*
X166880079Y-96479983D01*
X167053149Y-96408295D01*
X167236878Y-96371749D01*
X167424212Y-96371749D01*
X167607941Y-96408295D01*
X167607941Y-96408295D01*
G37*
G36*
X179214180Y-93543768D02*
X179395448Y-93579824D01*
X179623116Y-93674127D01*
X179814115Y-93801749D01*
X179828014Y-93811036D01*
X180002258Y-93985280D01*
X180002260Y-93985283D01*
X180139167Y-94190178D01*
X180233470Y-94417846D01*
X180281545Y-94659536D01*
X180281545Y-94905962D01*
X180233470Y-95147652D01*
X180139167Y-95375320D01*
X180096296Y-95439480D01*
X180002258Y-95580218D01*
X179828014Y-95754462D01*
X179828011Y-95754464D01*
X179623116Y-95891371D01*
X179395448Y-95985674D01*
X179214180Y-96021730D01*
X179153759Y-96033749D01*
X178907331Y-96033749D01*
X178846910Y-96021730D01*
X178665642Y-95985674D01*
X178437974Y-95891371D01*
X178233079Y-95754464D01*
X178233076Y-95754462D01*
X178058832Y-95580218D01*
X177964794Y-95439480D01*
X177921923Y-95375320D01*
X177827620Y-95147652D01*
X177779545Y-94905962D01*
X177779545Y-94659536D01*
X177827620Y-94417846D01*
X177921923Y-94190178D01*
X178058830Y-93985283D01*
X178058832Y-93985280D01*
X178233076Y-93811036D01*
X178246975Y-93801749D01*
X178437974Y-93674127D01*
X178665642Y-93579824D01*
X178846909Y-93543768D01*
X178907331Y-93531749D01*
X179153759Y-93531749D01*
X179214180Y-93543768D01*
X179214180Y-93543768D01*
G37*
G36*
X190953055Y-93804790D02*
X191076577Y-93816956D01*
X191274691Y-93877054D01*
X191457274Y-93974646D01*
X191617310Y-94105984D01*
X191748648Y-94266020D01*
X191846240Y-94448603D01*
X191906338Y-94646717D01*
X191926630Y-94852749D01*
X191906338Y-95058781D01*
X191846240Y-95256895D01*
X191748648Y-95439478D01*
X191617310Y-95599514D01*
X191457274Y-95730852D01*
X191274691Y-95828444D01*
X191076577Y-95888542D01*
X190953055Y-95900708D01*
X190922176Y-95903749D01*
X190818914Y-95903749D01*
X190788035Y-95900708D01*
X190664513Y-95888542D01*
X190466399Y-95828444D01*
X190283816Y-95730852D01*
X190123780Y-95599514D01*
X189992442Y-95439478D01*
X189894850Y-95256895D01*
X189834752Y-95058781D01*
X189814460Y-94852749D01*
X189834752Y-94646717D01*
X189894850Y-94448603D01*
X189992442Y-94266020D01*
X190123780Y-94105984D01*
X190283816Y-93974646D01*
X190466399Y-93877054D01*
X190664513Y-93816956D01*
X190788035Y-93804790D01*
X190818914Y-93801749D01*
X190922176Y-93801749D01*
X190953055Y-93804790D01*
X190953055Y-93804790D01*
G37*
G36*
X211273055Y-93804790D02*
X211396577Y-93816956D01*
X211594691Y-93877054D01*
X211777274Y-93974646D01*
X211937310Y-94105984D01*
X212068648Y-94266020D01*
X212166240Y-94448603D01*
X212226338Y-94646717D01*
X212246630Y-94852749D01*
X212226338Y-95058781D01*
X212166240Y-95256895D01*
X212068648Y-95439478D01*
X211937310Y-95599514D01*
X211777274Y-95730852D01*
X211594691Y-95828444D01*
X211396577Y-95888542D01*
X211273055Y-95900708D01*
X211242176Y-95903749D01*
X211138914Y-95903749D01*
X211108035Y-95900708D01*
X210984513Y-95888542D01*
X210786399Y-95828444D01*
X210603816Y-95730852D01*
X210443780Y-95599514D01*
X210312442Y-95439478D01*
X210214850Y-95256895D01*
X210154752Y-95058781D01*
X210134460Y-94852749D01*
X210154752Y-94646717D01*
X210214850Y-94448603D01*
X210312442Y-94266020D01*
X210443780Y-94105984D01*
X210603816Y-93974646D01*
X210786399Y-93877054D01*
X210984513Y-93816956D01*
X211108035Y-93804790D01*
X211138914Y-93801749D01*
X211242176Y-93801749D01*
X211273055Y-93804790D01*
X211273055Y-93804790D01*
G37*
G36*
X168281545Y-95733749D02*
X166379545Y-95733749D01*
X166379545Y-93831749D01*
X168281545Y-93831749D01*
X168281545Y-95733749D01*
X168281545Y-95733749D01*
G37*
G36*
X183414181Y-91043768D02*
X183595448Y-91079824D01*
X183823116Y-91174127D01*
X183954251Y-91261749D01*
X184028014Y-91311036D01*
X184202258Y-91485280D01*
X184202260Y-91485283D01*
X184339167Y-91690178D01*
X184433470Y-91917846D01*
X184481545Y-92159536D01*
X184481545Y-92405962D01*
X184433470Y-92647652D01*
X184339167Y-92875320D01*
X184216092Y-93059514D01*
X184202258Y-93080218D01*
X184028014Y-93254462D01*
X184028011Y-93254464D01*
X183823116Y-93391371D01*
X183595448Y-93485674D01*
X183414180Y-93521730D01*
X183353759Y-93533749D01*
X183107331Y-93533749D01*
X183046910Y-93521730D01*
X182865642Y-93485674D01*
X182637974Y-93391371D01*
X182433079Y-93254464D01*
X182433076Y-93254462D01*
X182258832Y-93080218D01*
X182244998Y-93059514D01*
X182121923Y-92875320D01*
X182027620Y-92647652D01*
X181979545Y-92405962D01*
X181979545Y-92159536D01*
X182027620Y-91917846D01*
X182121923Y-91690178D01*
X182258830Y-91485283D01*
X182258832Y-91485280D01*
X182433076Y-91311036D01*
X182506839Y-91261749D01*
X182637974Y-91174127D01*
X182865642Y-91079824D01*
X183046909Y-91043768D01*
X183107331Y-91031749D01*
X183353759Y-91031749D01*
X183414181Y-91043768D01*
X183414181Y-91043768D01*
G37*
G36*
X190953055Y-91264790D02*
X191076577Y-91276956D01*
X191274691Y-91337054D01*
X191457274Y-91434646D01*
X191617310Y-91565984D01*
X191748648Y-91726020D01*
X191846240Y-91908603D01*
X191906338Y-92106717D01*
X191926630Y-92312749D01*
X191906338Y-92518781D01*
X191846240Y-92716895D01*
X191748648Y-92899478D01*
X191617310Y-93059514D01*
X191457274Y-93190852D01*
X191274691Y-93288444D01*
X191076577Y-93348542D01*
X190953055Y-93360708D01*
X190922176Y-93363749D01*
X190818914Y-93363749D01*
X190788035Y-93360708D01*
X190664513Y-93348542D01*
X190466399Y-93288444D01*
X190283816Y-93190852D01*
X190123780Y-93059514D01*
X189992442Y-92899478D01*
X189894850Y-92716895D01*
X189834752Y-92518781D01*
X189814460Y-92312749D01*
X189834752Y-92106717D01*
X189894850Y-91908603D01*
X189992442Y-91726020D01*
X190123780Y-91565984D01*
X190283816Y-91434646D01*
X190466399Y-91337054D01*
X190664513Y-91276956D01*
X190788035Y-91264790D01*
X190818914Y-91261749D01*
X190922176Y-91261749D01*
X190953055Y-91264790D01*
X190953055Y-91264790D01*
G37*
G36*
X211273055Y-91264790D02*
X211396577Y-91276956D01*
X211594691Y-91337054D01*
X211777274Y-91434646D01*
X211937310Y-91565984D01*
X212068648Y-91726020D01*
X212166240Y-91908603D01*
X212226338Y-92106717D01*
X212246630Y-92312749D01*
X212226338Y-92518781D01*
X212166240Y-92716895D01*
X212068648Y-92899478D01*
X211937310Y-93059514D01*
X211777274Y-93190852D01*
X211594691Y-93288444D01*
X211396577Y-93348542D01*
X211273055Y-93360708D01*
X211242176Y-93363749D01*
X211138914Y-93363749D01*
X211108035Y-93360708D01*
X210984513Y-93348542D01*
X210786399Y-93288444D01*
X210603816Y-93190852D01*
X210443780Y-93059514D01*
X210312442Y-92899478D01*
X210214850Y-92716895D01*
X210154752Y-92518781D01*
X210134460Y-92312749D01*
X210154752Y-92106717D01*
X210214850Y-91908603D01*
X210312442Y-91726020D01*
X210443780Y-91565984D01*
X210603816Y-91434646D01*
X210786399Y-91337054D01*
X210984513Y-91276956D01*
X211108035Y-91264790D01*
X211138914Y-91261749D01*
X211242176Y-91261749D01*
X211273055Y-91264790D01*
X211273055Y-91264790D01*
G37*
G36*
X190953055Y-88724790D02*
X191076577Y-88736956D01*
X191274691Y-88797054D01*
X191457274Y-88894646D01*
X191617310Y-89025984D01*
X191748648Y-89186020D01*
X191846240Y-89368603D01*
X191906338Y-89566717D01*
X191926630Y-89772749D01*
X191906338Y-89978781D01*
X191846240Y-90176895D01*
X191748648Y-90359478D01*
X191617310Y-90519514D01*
X191457274Y-90650852D01*
X191274691Y-90748444D01*
X191076577Y-90808542D01*
X190953055Y-90820708D01*
X190922176Y-90823749D01*
X190818914Y-90823749D01*
X190788035Y-90820708D01*
X190664513Y-90808542D01*
X190466399Y-90748444D01*
X190283816Y-90650852D01*
X190123780Y-90519514D01*
X189992442Y-90359478D01*
X189894850Y-90176895D01*
X189834752Y-89978781D01*
X189814460Y-89772749D01*
X189834752Y-89566717D01*
X189894850Y-89368603D01*
X189992442Y-89186020D01*
X190123780Y-89025984D01*
X190283816Y-88894646D01*
X190466399Y-88797054D01*
X190664513Y-88736956D01*
X190788035Y-88724790D01*
X190818914Y-88721749D01*
X190922176Y-88721749D01*
X190953055Y-88724790D01*
X190953055Y-88724790D01*
G37*
G36*
X211273055Y-88724790D02*
X211396577Y-88736956D01*
X211594691Y-88797054D01*
X211777274Y-88894646D01*
X211937310Y-89025984D01*
X212068648Y-89186020D01*
X212166240Y-89368603D01*
X212226338Y-89566717D01*
X212246630Y-89772749D01*
X212226338Y-89978781D01*
X212166240Y-90176895D01*
X212068648Y-90359478D01*
X211937310Y-90519514D01*
X211777274Y-90650852D01*
X211594691Y-90748444D01*
X211396577Y-90808542D01*
X211273055Y-90820708D01*
X211242176Y-90823749D01*
X211138914Y-90823749D01*
X211108035Y-90820708D01*
X210984513Y-90808542D01*
X210786399Y-90748444D01*
X210603816Y-90650852D01*
X210443780Y-90519514D01*
X210312442Y-90359478D01*
X210214850Y-90176895D01*
X210154752Y-89978781D01*
X210134460Y-89772749D01*
X210154752Y-89566717D01*
X210214850Y-89368603D01*
X210312442Y-89186020D01*
X210443780Y-89025984D01*
X210603816Y-88894646D01*
X210786399Y-88797054D01*
X210984513Y-88736956D01*
X211108035Y-88724790D01*
X211138914Y-88721749D01*
X211242176Y-88721749D01*
X211273055Y-88724790D01*
X211273055Y-88724790D01*
G37*
G36*
X211273055Y-86184790D02*
X211396577Y-86196956D01*
X211594691Y-86257054D01*
X211777274Y-86354646D01*
X211937310Y-86485984D01*
X212068648Y-86646020D01*
X212166240Y-86828603D01*
X212226338Y-87026717D01*
X212246630Y-87232749D01*
X212226338Y-87438781D01*
X212166240Y-87636895D01*
X212068648Y-87819478D01*
X211937310Y-87979514D01*
X211777274Y-88110852D01*
X211594691Y-88208444D01*
X211396577Y-88268542D01*
X211273055Y-88280708D01*
X211242176Y-88283749D01*
X211138914Y-88283749D01*
X211108035Y-88280708D01*
X210984513Y-88268542D01*
X210786399Y-88208444D01*
X210603816Y-88110852D01*
X210443780Y-87979514D01*
X210312442Y-87819478D01*
X210214850Y-87636895D01*
X210154752Y-87438781D01*
X210134460Y-87232749D01*
X210154752Y-87026717D01*
X210214850Y-86828603D01*
X210312442Y-86646020D01*
X210443780Y-86485984D01*
X210603816Y-86354646D01*
X210786399Y-86257054D01*
X210984513Y-86196956D01*
X211108035Y-86184790D01*
X211138914Y-86181749D01*
X211242176Y-86181749D01*
X211273055Y-86184790D01*
X211273055Y-86184790D01*
G37*
G36*
X190953055Y-86184790D02*
X191076577Y-86196956D01*
X191274691Y-86257054D01*
X191457274Y-86354646D01*
X191617310Y-86485984D01*
X191748648Y-86646020D01*
X191846240Y-86828603D01*
X191906338Y-87026717D01*
X191926630Y-87232749D01*
X191906338Y-87438781D01*
X191846240Y-87636895D01*
X191748648Y-87819478D01*
X191617310Y-87979514D01*
X191457274Y-88110852D01*
X191274691Y-88208444D01*
X191076577Y-88268542D01*
X190953055Y-88280708D01*
X190922176Y-88283749D01*
X190818914Y-88283749D01*
X190788035Y-88280708D01*
X190664513Y-88268542D01*
X190466399Y-88208444D01*
X190283816Y-88110852D01*
X190123780Y-87979514D01*
X189992442Y-87819478D01*
X189894850Y-87636895D01*
X189834752Y-87438781D01*
X189814460Y-87232749D01*
X189834752Y-87026717D01*
X189894850Y-86828603D01*
X189992442Y-86646020D01*
X190123780Y-86485984D01*
X190283816Y-86354646D01*
X190466399Y-86257054D01*
X190664513Y-86196956D01*
X190788035Y-86184790D01*
X190818914Y-86181749D01*
X190922176Y-86181749D01*
X190953055Y-86184790D01*
X190953055Y-86184790D01*
G37*
G36*
X179714181Y-84843768D02*
X179895448Y-84879824D01*
X180123116Y-84974127D01*
X180327087Y-85110417D01*
X180328014Y-85111036D01*
X180502258Y-85285280D01*
X180502260Y-85285283D01*
X180639167Y-85490178D01*
X180733470Y-85717846D01*
X180781545Y-85959536D01*
X180781545Y-86205962D01*
X180733470Y-86447652D01*
X180639167Y-86675320D01*
X180536746Y-86828603D01*
X180502258Y-86880218D01*
X180328014Y-87054462D01*
X180328011Y-87054464D01*
X180123116Y-87191371D01*
X179895448Y-87285674D01*
X179744758Y-87315648D01*
X179653759Y-87333749D01*
X179407331Y-87333749D01*
X179316332Y-87315648D01*
X179165642Y-87285674D01*
X178937974Y-87191371D01*
X178733079Y-87054464D01*
X178733076Y-87054462D01*
X178558832Y-86880218D01*
X178524344Y-86828603D01*
X178421923Y-86675320D01*
X178327620Y-86447652D01*
X178279545Y-86205962D01*
X178279545Y-85959536D01*
X178327620Y-85717846D01*
X178421923Y-85490178D01*
X178558830Y-85285283D01*
X178558832Y-85285280D01*
X178733076Y-85111036D01*
X178734003Y-85110417D01*
X178937974Y-84974127D01*
X179165642Y-84879824D01*
X179346909Y-84843768D01*
X179407331Y-84831749D01*
X179653759Y-84831749D01*
X179714181Y-84843768D01*
X179714181Y-84843768D01*
G37*
G36*
X167075784Y-84849850D02*
X167311598Y-84921383D01*
X167528926Y-85037548D01*
X167719416Y-85193878D01*
X167875746Y-85384368D01*
X167991911Y-85601696D01*
X168063444Y-85837510D01*
X168087598Y-86082749D01*
X168063444Y-86327988D01*
X167991911Y-86563802D01*
X167875746Y-86781130D01*
X167719416Y-86971620D01*
X167528926Y-87127950D01*
X167311598Y-87244115D01*
X167075784Y-87315648D01*
X166892002Y-87333749D01*
X166769088Y-87333749D01*
X166585306Y-87315648D01*
X166349492Y-87244115D01*
X166132164Y-87127950D01*
X165941674Y-86971620D01*
X165785344Y-86781130D01*
X165669179Y-86563802D01*
X165597646Y-86327988D01*
X165573492Y-86082749D01*
X165597646Y-85837510D01*
X165669179Y-85601696D01*
X165785344Y-85384368D01*
X165941674Y-85193878D01*
X166132164Y-85037548D01*
X166349492Y-84921383D01*
X166585306Y-84849850D01*
X166769088Y-84831749D01*
X166892002Y-84831749D01*
X167075784Y-84849850D01*
X167075784Y-84849850D01*
G37*
G36*
X190953055Y-83644790D02*
X191076577Y-83656956D01*
X191274691Y-83717054D01*
X191457274Y-83814646D01*
X191617310Y-83945984D01*
X191748648Y-84106020D01*
X191846240Y-84288603D01*
X191906338Y-84486717D01*
X191926630Y-84692749D01*
X191906338Y-84898781D01*
X191846240Y-85096895D01*
X191748648Y-85279478D01*
X191617310Y-85439514D01*
X191457274Y-85570852D01*
X191274691Y-85668444D01*
X191076577Y-85728542D01*
X190953055Y-85740708D01*
X190922176Y-85743749D01*
X190818914Y-85743749D01*
X190788035Y-85740708D01*
X190664513Y-85728542D01*
X190466399Y-85668444D01*
X190283816Y-85570852D01*
X190123780Y-85439514D01*
X189992442Y-85279478D01*
X189894850Y-85096895D01*
X189834752Y-84898781D01*
X189814460Y-84692749D01*
X189834752Y-84486717D01*
X189894850Y-84288603D01*
X189992442Y-84106020D01*
X190123780Y-83945984D01*
X190283816Y-83814646D01*
X190466399Y-83717054D01*
X190664513Y-83656956D01*
X190788035Y-83644790D01*
X190818914Y-83641749D01*
X190922176Y-83641749D01*
X190953055Y-83644790D01*
X190953055Y-83644790D01*
G37*
G36*
X211273055Y-83644790D02*
X211396577Y-83656956D01*
X211594691Y-83717054D01*
X211777274Y-83814646D01*
X211937310Y-83945984D01*
X212068648Y-84106020D01*
X212166240Y-84288603D01*
X212226338Y-84486717D01*
X212246630Y-84692749D01*
X212226338Y-84898781D01*
X212166240Y-85096895D01*
X212068648Y-85279478D01*
X211937310Y-85439514D01*
X211777274Y-85570852D01*
X211594691Y-85668444D01*
X211396577Y-85728542D01*
X211273055Y-85740708D01*
X211242176Y-85743749D01*
X211138914Y-85743749D01*
X211108035Y-85740708D01*
X210984513Y-85728542D01*
X210786399Y-85668444D01*
X210603816Y-85570852D01*
X210443780Y-85439514D01*
X210312442Y-85279478D01*
X210214850Y-85096895D01*
X210154752Y-84898781D01*
X210134460Y-84692749D01*
X210154752Y-84486717D01*
X210214850Y-84288603D01*
X210312442Y-84106020D01*
X210443780Y-83945984D01*
X210603816Y-83814646D01*
X210786399Y-83717054D01*
X210984513Y-83656956D01*
X211108035Y-83644790D01*
X211138914Y-83641749D01*
X211242176Y-83641749D01*
X211273055Y-83644790D01*
X211273055Y-83644790D01*
G37*
G36*
X179714181Y-80743768D02*
X179895448Y-80779824D01*
X180123116Y-80874127D01*
X180218033Y-80937549D01*
X180328014Y-81011036D01*
X180502258Y-81185280D01*
X180502260Y-81185283D01*
X180639167Y-81390178D01*
X180733470Y-81617846D01*
X180781545Y-81859536D01*
X180781545Y-82105962D01*
X180733470Y-82347652D01*
X180639167Y-82575320D01*
X180568466Y-82681131D01*
X180502258Y-82780218D01*
X180328014Y-82954462D01*
X180328011Y-82954464D01*
X180123116Y-83091371D01*
X179895448Y-83185674D01*
X179744758Y-83215648D01*
X179653759Y-83233749D01*
X179407331Y-83233749D01*
X179316332Y-83215648D01*
X179165642Y-83185674D01*
X178937974Y-83091371D01*
X178733079Y-82954464D01*
X178733076Y-82954462D01*
X178558832Y-82780218D01*
X178492624Y-82681131D01*
X178421923Y-82575320D01*
X178327620Y-82347652D01*
X178279545Y-82105962D01*
X178279545Y-81859536D01*
X178327620Y-81617846D01*
X178421923Y-81390178D01*
X178558830Y-81185283D01*
X178558832Y-81185280D01*
X178733076Y-81011036D01*
X178843057Y-80937549D01*
X178937974Y-80874127D01*
X179165642Y-80779824D01*
X179346909Y-80743768D01*
X179407331Y-80731749D01*
X179653759Y-80731749D01*
X179714181Y-80743768D01*
X179714181Y-80743768D01*
G37*
G36*
X167075784Y-80749850D02*
X167311598Y-80821383D01*
X167528926Y-80937548D01*
X167719416Y-81093878D01*
X167875746Y-81284368D01*
X167991911Y-81501696D01*
X168063444Y-81737510D01*
X168087598Y-81982749D01*
X168063444Y-82227988D01*
X167991911Y-82463802D01*
X167875746Y-82681130D01*
X167719416Y-82871620D01*
X167528926Y-83027950D01*
X167311598Y-83144115D01*
X167075784Y-83215648D01*
X166892002Y-83233749D01*
X166769088Y-83233749D01*
X166585306Y-83215648D01*
X166349492Y-83144115D01*
X166132164Y-83027950D01*
X165941674Y-82871620D01*
X165785344Y-82681130D01*
X165669179Y-82463802D01*
X165597646Y-82227988D01*
X165573492Y-81982749D01*
X165597646Y-81737510D01*
X165669179Y-81501696D01*
X165785344Y-81284368D01*
X165941674Y-81093878D01*
X166132164Y-80937548D01*
X166349492Y-80821383D01*
X166585306Y-80749850D01*
X166769088Y-80731749D01*
X166892002Y-80731749D01*
X167075784Y-80749850D01*
X167075784Y-80749850D01*
G37*
G36*
X211273055Y-81104790D02*
X211396577Y-81116956D01*
X211594691Y-81177054D01*
X211777274Y-81274646D01*
X211937310Y-81405984D01*
X212068648Y-81566020D01*
X212166240Y-81748603D01*
X212226338Y-81946717D01*
X212246630Y-82152749D01*
X212226338Y-82358781D01*
X212166240Y-82556895D01*
X212068648Y-82739478D01*
X211937310Y-82899514D01*
X211777274Y-83030852D01*
X211594691Y-83128444D01*
X211396577Y-83188542D01*
X211273055Y-83200708D01*
X211242176Y-83203749D01*
X211138914Y-83203749D01*
X211108035Y-83200708D01*
X210984513Y-83188542D01*
X210786399Y-83128444D01*
X210603816Y-83030852D01*
X210443780Y-82899514D01*
X210312442Y-82739478D01*
X210214850Y-82556895D01*
X210154752Y-82358781D01*
X210134460Y-82152749D01*
X210154752Y-81946717D01*
X210214850Y-81748603D01*
X210312442Y-81566020D01*
X210443780Y-81405984D01*
X210603816Y-81274646D01*
X210786399Y-81177054D01*
X210984513Y-81116956D01*
X211108035Y-81104790D01*
X211138914Y-81101749D01*
X211242176Y-81101749D01*
X211273055Y-81104790D01*
X211273055Y-81104790D01*
G37*
G36*
X190953055Y-81104790D02*
X191076577Y-81116956D01*
X191274691Y-81177054D01*
X191457274Y-81274646D01*
X191617310Y-81405984D01*
X191748648Y-81566020D01*
X191846240Y-81748603D01*
X191906338Y-81946717D01*
X191926630Y-82152749D01*
X191906338Y-82358781D01*
X191846240Y-82556895D01*
X191748648Y-82739478D01*
X191617310Y-82899514D01*
X191457274Y-83030852D01*
X191274691Y-83128444D01*
X191076577Y-83188542D01*
X190953055Y-83200708D01*
X190922176Y-83203749D01*
X190818914Y-83203749D01*
X190788035Y-83200708D01*
X190664513Y-83188542D01*
X190466399Y-83128444D01*
X190283816Y-83030852D01*
X190123780Y-82899514D01*
X189992442Y-82739478D01*
X189894850Y-82556895D01*
X189834752Y-82358781D01*
X189814460Y-82152749D01*
X189834752Y-81946717D01*
X189894850Y-81748603D01*
X189992442Y-81566020D01*
X190123780Y-81405984D01*
X190283816Y-81274646D01*
X190466399Y-81177054D01*
X190664513Y-81116956D01*
X190788035Y-81104790D01*
X190818914Y-81101749D01*
X190922176Y-81101749D01*
X190953055Y-81104790D01*
X190953055Y-81104790D01*
G37*
G36*
X211273055Y-78564790D02*
X211396577Y-78576956D01*
X211594691Y-78637054D01*
X211777274Y-78734646D01*
X211937310Y-78865984D01*
X212068648Y-79026020D01*
X212166240Y-79208603D01*
X212226338Y-79406717D01*
X212246630Y-79612749D01*
X212226338Y-79818781D01*
X212166240Y-80016895D01*
X212068648Y-80199478D01*
X211937310Y-80359514D01*
X211777274Y-80490852D01*
X211594691Y-80588444D01*
X211396577Y-80648542D01*
X211273055Y-80660708D01*
X211242176Y-80663749D01*
X211138914Y-80663749D01*
X211108035Y-80660708D01*
X210984513Y-80648542D01*
X210786399Y-80588444D01*
X210603816Y-80490852D01*
X210443780Y-80359514D01*
X210312442Y-80199478D01*
X210214850Y-80016895D01*
X210154752Y-79818781D01*
X210134460Y-79612749D01*
X210154752Y-79406717D01*
X210214850Y-79208603D01*
X210312442Y-79026020D01*
X210443780Y-78865984D01*
X210603816Y-78734646D01*
X210786399Y-78637054D01*
X210984513Y-78576956D01*
X211108035Y-78564790D01*
X211138914Y-78561749D01*
X211242176Y-78561749D01*
X211273055Y-78564790D01*
X211273055Y-78564790D01*
G37*
G36*
X190953055Y-78564790D02*
X191076577Y-78576956D01*
X191274691Y-78637054D01*
X191457274Y-78734646D01*
X191617310Y-78865984D01*
X191748648Y-79026020D01*
X191846240Y-79208603D01*
X191906338Y-79406717D01*
X191926630Y-79612749D01*
X191906338Y-79818781D01*
X191846240Y-80016895D01*
X191748648Y-80199478D01*
X191617310Y-80359514D01*
X191457274Y-80490852D01*
X191274691Y-80588444D01*
X191076577Y-80648542D01*
X190953055Y-80660708D01*
X190922176Y-80663749D01*
X190818914Y-80663749D01*
X190788035Y-80660708D01*
X190664513Y-80648542D01*
X190466399Y-80588444D01*
X190283816Y-80490852D01*
X190123780Y-80359514D01*
X189992442Y-80199478D01*
X189894850Y-80016895D01*
X189834752Y-79818781D01*
X189814460Y-79612749D01*
X189834752Y-79406717D01*
X189894850Y-79208603D01*
X189992442Y-79026020D01*
X190123780Y-78865984D01*
X190283816Y-78734646D01*
X190466399Y-78637054D01*
X190664513Y-78576956D01*
X190788035Y-78564790D01*
X190818914Y-78561749D01*
X190922176Y-78561749D01*
X190953055Y-78564790D01*
X190953055Y-78564790D01*
G37*
G36*
X211273055Y-76024790D02*
X211396577Y-76036956D01*
X211594691Y-76097054D01*
X211777274Y-76194646D01*
X211937310Y-76325984D01*
X212068648Y-76486020D01*
X212166240Y-76668603D01*
X212226338Y-76866717D01*
X212246630Y-77072749D01*
X212226338Y-77278781D01*
X212166240Y-77476895D01*
X212068648Y-77659478D01*
X211937310Y-77819514D01*
X211777274Y-77950852D01*
X211594691Y-78048444D01*
X211396577Y-78108542D01*
X211273055Y-78120708D01*
X211242176Y-78123749D01*
X211138914Y-78123749D01*
X211108035Y-78120708D01*
X210984513Y-78108542D01*
X210786399Y-78048444D01*
X210603816Y-77950852D01*
X210443780Y-77819514D01*
X210312442Y-77659478D01*
X210214850Y-77476895D01*
X210154752Y-77278781D01*
X210134460Y-77072749D01*
X210154752Y-76866717D01*
X210214850Y-76668603D01*
X210312442Y-76486020D01*
X210443780Y-76325984D01*
X210603816Y-76194646D01*
X210786399Y-76097054D01*
X210984513Y-76036956D01*
X211108035Y-76024790D01*
X211138914Y-76021749D01*
X211242176Y-76021749D01*
X211273055Y-76024790D01*
X211273055Y-76024790D01*
G37*
G36*
X190953055Y-76024790D02*
X191076577Y-76036956D01*
X191274691Y-76097054D01*
X191457274Y-76194646D01*
X191617310Y-76325984D01*
X191748648Y-76486020D01*
X191846240Y-76668603D01*
X191906338Y-76866717D01*
X191926630Y-77072749D01*
X191906338Y-77278781D01*
X191846240Y-77476895D01*
X191748648Y-77659478D01*
X191617310Y-77819514D01*
X191457274Y-77950852D01*
X191274691Y-78048444D01*
X191076577Y-78108542D01*
X190953055Y-78120708D01*
X190922176Y-78123749D01*
X190818914Y-78123749D01*
X190788035Y-78120708D01*
X190664513Y-78108542D01*
X190466399Y-78048444D01*
X190283816Y-77950852D01*
X190123780Y-77819514D01*
X189992442Y-77659478D01*
X189894850Y-77476895D01*
X189834752Y-77278781D01*
X189814460Y-77072749D01*
X189834752Y-76866717D01*
X189894850Y-76668603D01*
X189992442Y-76486020D01*
X190123780Y-76325984D01*
X190283816Y-76194646D01*
X190466399Y-76097054D01*
X190664513Y-76036956D01*
X190788035Y-76024790D01*
X190818914Y-76021749D01*
X190922176Y-76021749D01*
X190953055Y-76024790D01*
X190953055Y-76024790D01*
G37*
G36*
X217514181Y-74343768D02*
X217695448Y-74379824D01*
X217923116Y-74474127D01*
X218120420Y-74605962D01*
X218128014Y-74611036D01*
X218302258Y-74785280D01*
X218302260Y-74785283D01*
X218439167Y-74990178D01*
X218533470Y-75217846D01*
X218564057Y-75371619D01*
X218581545Y-75459535D01*
X218581545Y-75705963D01*
X218576018Y-75733749D01*
X218533470Y-75947652D01*
X218439167Y-76175320D01*
X218338496Y-76325984D01*
X218302258Y-76380218D01*
X218128014Y-76554462D01*
X218128011Y-76554464D01*
X217923116Y-76691371D01*
X217695448Y-76785674D01*
X217514181Y-76821730D01*
X217453759Y-76833749D01*
X217207331Y-76833749D01*
X217146909Y-76821730D01*
X216965642Y-76785674D01*
X216737974Y-76691371D01*
X216533079Y-76554464D01*
X216533076Y-76554462D01*
X216358832Y-76380218D01*
X216322594Y-76325984D01*
X216221923Y-76175320D01*
X216127620Y-75947652D01*
X216085072Y-75733749D01*
X216079545Y-75705963D01*
X216079545Y-75459535D01*
X216097033Y-75371619D01*
X216127620Y-75217846D01*
X216221923Y-74990178D01*
X216358830Y-74785283D01*
X216358832Y-74785280D01*
X216533076Y-74611036D01*
X216540670Y-74605962D01*
X216737974Y-74474127D01*
X216965642Y-74379824D01*
X217146909Y-74343768D01*
X217207331Y-74331749D01*
X217453759Y-74331749D01*
X217514181Y-74343768D01*
X217514181Y-74343768D01*
G37*
G36*
X179714181Y-73243768D02*
X179895448Y-73279824D01*
X180123116Y-73374127D01*
X180218033Y-73437549D01*
X180328014Y-73511036D01*
X180502258Y-73685280D01*
X180502260Y-73685283D01*
X180639167Y-73890178D01*
X180733470Y-74117846D01*
X180781545Y-74359536D01*
X180781545Y-74605962D01*
X180733470Y-74847652D01*
X180639167Y-75075320D01*
X180502877Y-75279291D01*
X180502258Y-75280218D01*
X180328014Y-75454462D01*
X180328011Y-75454464D01*
X180123116Y-75591371D01*
X179895448Y-75685674D01*
X179744758Y-75715648D01*
X179653759Y-75733749D01*
X179407331Y-75733749D01*
X179316332Y-75715648D01*
X179165642Y-75685674D01*
X178937974Y-75591371D01*
X178733079Y-75454464D01*
X178733076Y-75454462D01*
X178558832Y-75280218D01*
X178558213Y-75279291D01*
X178421923Y-75075320D01*
X178327620Y-74847652D01*
X178279545Y-74605962D01*
X178279545Y-74359536D01*
X178327620Y-74117846D01*
X178421923Y-73890178D01*
X178558830Y-73685283D01*
X178558832Y-73685280D01*
X178733076Y-73511036D01*
X178843057Y-73437549D01*
X178937974Y-73374127D01*
X179165642Y-73279824D01*
X179346909Y-73243768D01*
X179407331Y-73231749D01*
X179653759Y-73231749D01*
X179714181Y-73243768D01*
X179714181Y-73243768D01*
G37*
G36*
X167075784Y-73249850D02*
X167311598Y-73321383D01*
X167528926Y-73437548D01*
X167719416Y-73593878D01*
X167875746Y-73784368D01*
X167991911Y-74001696D01*
X168063444Y-74237510D01*
X168087598Y-74482749D01*
X168063444Y-74727988D01*
X167991911Y-74963802D01*
X167875746Y-75181130D01*
X167719416Y-75371620D01*
X167528926Y-75527950D01*
X167311598Y-75644115D01*
X167075784Y-75715648D01*
X166892002Y-75733749D01*
X166769088Y-75733749D01*
X166585306Y-75715648D01*
X166349492Y-75644115D01*
X166132164Y-75527950D01*
X165941674Y-75371620D01*
X165785344Y-75181130D01*
X165669179Y-74963802D01*
X165597646Y-74727988D01*
X165573492Y-74482749D01*
X165597646Y-74237510D01*
X165669179Y-74001696D01*
X165785344Y-73784368D01*
X165941674Y-73593878D01*
X166132164Y-73437548D01*
X166349492Y-73321383D01*
X166585306Y-73249850D01*
X166769088Y-73231749D01*
X166892002Y-73231749D01*
X167075784Y-73249850D01*
X167075784Y-73249850D01*
G37*
G36*
X190953055Y-73484790D02*
X191076577Y-73496956D01*
X191274691Y-73557054D01*
X191457274Y-73654646D01*
X191617310Y-73785984D01*
X191748648Y-73946020D01*
X191846240Y-74128603D01*
X191906338Y-74326717D01*
X191926630Y-74532749D01*
X191906338Y-74738781D01*
X191846240Y-74936895D01*
X191748648Y-75119478D01*
X191617310Y-75279514D01*
X191457274Y-75410852D01*
X191274691Y-75508444D01*
X191076577Y-75568542D01*
X190953055Y-75580708D01*
X190922176Y-75583749D01*
X190818914Y-75583749D01*
X190788035Y-75580708D01*
X190664513Y-75568542D01*
X190466399Y-75508444D01*
X190283816Y-75410852D01*
X190123780Y-75279514D01*
X189992442Y-75119478D01*
X189894850Y-74936895D01*
X189834752Y-74738781D01*
X189814460Y-74532749D01*
X189834752Y-74326717D01*
X189894850Y-74128603D01*
X189992442Y-73946020D01*
X190123780Y-73785984D01*
X190283816Y-73654646D01*
X190466399Y-73557054D01*
X190664513Y-73496956D01*
X190788035Y-73484790D01*
X190818914Y-73481749D01*
X190922176Y-73481749D01*
X190953055Y-73484790D01*
X190953055Y-73484790D01*
G37*
G36*
X211273055Y-73484790D02*
X211396577Y-73496956D01*
X211594691Y-73557054D01*
X211777274Y-73654646D01*
X211937310Y-73785984D01*
X212068648Y-73946020D01*
X212166240Y-74128603D01*
X212226338Y-74326717D01*
X212246630Y-74532749D01*
X212226338Y-74738781D01*
X212166240Y-74936895D01*
X212068648Y-75119478D01*
X211937310Y-75279514D01*
X211777274Y-75410852D01*
X211594691Y-75508444D01*
X211396577Y-75568542D01*
X211273055Y-75580708D01*
X211242176Y-75583749D01*
X211138914Y-75583749D01*
X211108035Y-75580708D01*
X210984513Y-75568542D01*
X210786399Y-75508444D01*
X210603816Y-75410852D01*
X210443780Y-75279514D01*
X210312442Y-75119478D01*
X210214850Y-74936895D01*
X210154752Y-74738781D01*
X210134460Y-74532749D01*
X210154752Y-74326717D01*
X210214850Y-74128603D01*
X210312442Y-73946020D01*
X210443780Y-73785984D01*
X210603816Y-73654646D01*
X210786399Y-73557054D01*
X210984513Y-73496956D01*
X211108035Y-73484790D01*
X211138914Y-73481749D01*
X211242176Y-73481749D01*
X211273055Y-73484790D01*
X211273055Y-73484790D01*
G37*
G36*
X152358797Y-69310567D02*
X152358799Y-69310568D01*
X152358800Y-69310568D01*
X152732058Y-69465176D01*
X152800689Y-69511034D01*
X153067984Y-69689635D01*
X153353659Y-69975310D01*
X153353661Y-69975313D01*
X153578118Y-70311236D01*
X153732726Y-70684494D01*
X153732727Y-70684497D01*
X153811545Y-71080742D01*
X153811545Y-71484756D01*
X153765618Y-71715648D01*
X153732726Y-71881004D01*
X153578118Y-72254262D01*
X153578117Y-72254263D01*
X153353659Y-72590188D01*
X153067984Y-72875863D01*
X153067981Y-72875865D01*
X152732058Y-73100322D01*
X152358800Y-73254930D01*
X152358799Y-73254930D01*
X152358797Y-73254931D01*
X151962552Y-73333749D01*
X151558538Y-73333749D01*
X151162293Y-73254931D01*
X151162291Y-73254930D01*
X151162290Y-73254930D01*
X150789032Y-73100322D01*
X150453109Y-72875865D01*
X150453106Y-72875863D01*
X150167431Y-72590188D01*
X149942973Y-72254263D01*
X149942972Y-72254262D01*
X149788364Y-71881004D01*
X149755473Y-71715648D01*
X149709545Y-71484756D01*
X149709545Y-71080742D01*
X149788363Y-70684497D01*
X149788364Y-70684494D01*
X149942972Y-70311236D01*
X150167429Y-69975313D01*
X150167431Y-69975310D01*
X150453106Y-69689635D01*
X150720401Y-69511034D01*
X150789032Y-69465176D01*
X151162290Y-69310568D01*
X151162291Y-69310568D01*
X151162293Y-69310567D01*
X151558538Y-69231749D01*
X151962552Y-69231749D01*
X152358797Y-69310567D01*
X152358797Y-69310567D01*
G37*
G36*
X190953055Y-70944790D02*
X191076577Y-70956956D01*
X191274691Y-71017054D01*
X191457274Y-71114646D01*
X191617310Y-71245984D01*
X191748648Y-71406020D01*
X191846240Y-71588603D01*
X191906338Y-71786717D01*
X191926630Y-71992749D01*
X191906338Y-72198781D01*
X191846240Y-72396895D01*
X191748648Y-72579478D01*
X191617310Y-72739514D01*
X191457274Y-72870852D01*
X191274691Y-72968444D01*
X191076577Y-73028542D01*
X190953055Y-73040708D01*
X190922176Y-73043749D01*
X190818914Y-73043749D01*
X190788035Y-73040708D01*
X190664513Y-73028542D01*
X190466399Y-72968444D01*
X190283816Y-72870852D01*
X190123780Y-72739514D01*
X189992442Y-72579478D01*
X189894850Y-72396895D01*
X189834752Y-72198781D01*
X189814460Y-71992749D01*
X189834752Y-71786717D01*
X189894850Y-71588603D01*
X189992442Y-71406020D01*
X190123780Y-71245984D01*
X190283816Y-71114646D01*
X190466399Y-71017054D01*
X190664513Y-70956956D01*
X190788035Y-70944790D01*
X190818914Y-70941749D01*
X190922176Y-70941749D01*
X190953055Y-70944790D01*
X190953055Y-70944790D01*
G37*
G36*
X211273055Y-70944790D02*
X211396577Y-70956956D01*
X211594691Y-71017054D01*
X211777274Y-71114646D01*
X211937310Y-71245984D01*
X212068648Y-71406020D01*
X212166240Y-71588603D01*
X212226338Y-71786717D01*
X212246630Y-71992749D01*
X212226338Y-72198781D01*
X212166240Y-72396895D01*
X212068648Y-72579478D01*
X211937310Y-72739514D01*
X211777274Y-72870852D01*
X211594691Y-72968444D01*
X211396577Y-73028542D01*
X211273055Y-73040708D01*
X211242176Y-73043749D01*
X211138914Y-73043749D01*
X211108035Y-73040708D01*
X210984513Y-73028542D01*
X210786399Y-72968444D01*
X210603816Y-72870852D01*
X210443780Y-72739514D01*
X210312442Y-72579478D01*
X210214850Y-72396895D01*
X210154752Y-72198781D01*
X210134460Y-71992749D01*
X210154752Y-71786717D01*
X210214850Y-71588603D01*
X210312442Y-71406020D01*
X210443780Y-71245984D01*
X210603816Y-71114646D01*
X210786399Y-71017054D01*
X210984513Y-70956956D01*
X211108035Y-70944790D01*
X211138914Y-70941749D01*
X211242176Y-70941749D01*
X211273055Y-70944790D01*
X211273055Y-70944790D01*
G37*
G36*
X179714181Y-69243768D02*
X179895448Y-69279824D01*
X180123116Y-69374127D01*
X180259381Y-69465177D01*
X180328014Y-69511036D01*
X180502258Y-69685280D01*
X180502260Y-69685283D01*
X180639167Y-69890178D01*
X180733470Y-70117846D01*
X180757273Y-70237514D01*
X180775840Y-70330852D01*
X180781545Y-70359536D01*
X180781545Y-70605962D01*
X180733470Y-70847652D01*
X180639167Y-71075320D01*
X180502877Y-71279291D01*
X180502258Y-71280218D01*
X180328014Y-71454462D01*
X180328011Y-71454464D01*
X180123116Y-71591371D01*
X179895448Y-71685674D01*
X179744758Y-71715648D01*
X179653759Y-71733749D01*
X179407331Y-71733749D01*
X179316332Y-71715648D01*
X179165642Y-71685674D01*
X178937974Y-71591371D01*
X178733079Y-71454464D01*
X178733076Y-71454462D01*
X178558832Y-71280218D01*
X178558213Y-71279291D01*
X178421923Y-71075320D01*
X178327620Y-70847652D01*
X178279545Y-70605962D01*
X178279545Y-70359536D01*
X178285251Y-70330852D01*
X178303817Y-70237514D01*
X178327620Y-70117846D01*
X178421923Y-69890178D01*
X178558830Y-69685283D01*
X178558832Y-69685280D01*
X178733076Y-69511036D01*
X178801709Y-69465177D01*
X178937974Y-69374127D01*
X179165642Y-69279824D01*
X179346909Y-69243768D01*
X179407331Y-69231749D01*
X179653759Y-69231749D01*
X179714181Y-69243768D01*
X179714181Y-69243768D01*
G37*
G36*
X167075784Y-69249850D02*
X167311598Y-69321383D01*
X167528926Y-69437548D01*
X167719416Y-69593878D01*
X167875746Y-69784368D01*
X167991911Y-70001696D01*
X168063444Y-70237510D01*
X168087598Y-70482749D01*
X168063444Y-70727988D01*
X167991911Y-70963802D01*
X167875746Y-71181130D01*
X167719416Y-71371620D01*
X167528926Y-71527950D01*
X167311598Y-71644115D01*
X167075784Y-71715648D01*
X166892002Y-71733749D01*
X166769088Y-71733749D01*
X166585306Y-71715648D01*
X166349492Y-71644115D01*
X166132164Y-71527950D01*
X165941674Y-71371620D01*
X165785344Y-71181130D01*
X165669179Y-70963802D01*
X165597646Y-70727988D01*
X165573492Y-70482749D01*
X165597646Y-70237510D01*
X165669179Y-70001696D01*
X165785344Y-69784368D01*
X165941674Y-69593878D01*
X166132164Y-69437548D01*
X166349492Y-69321383D01*
X166585306Y-69249850D01*
X166769088Y-69231749D01*
X166892002Y-69231749D01*
X167075784Y-69249850D01*
X167075784Y-69249850D01*
G37*
G36*
X190953055Y-68404790D02*
X191076577Y-68416956D01*
X191274691Y-68477054D01*
X191457274Y-68574646D01*
X191617310Y-68705984D01*
X191748648Y-68866020D01*
X191846240Y-69048603D01*
X191906338Y-69246717D01*
X191926630Y-69452749D01*
X191906338Y-69658781D01*
X191846240Y-69856895D01*
X191748648Y-70039478D01*
X191617310Y-70199514D01*
X191457274Y-70330852D01*
X191274691Y-70428444D01*
X191076577Y-70488542D01*
X190953055Y-70500708D01*
X190922176Y-70503749D01*
X190818914Y-70503749D01*
X190788035Y-70500708D01*
X190664513Y-70488542D01*
X190466399Y-70428444D01*
X190283816Y-70330852D01*
X190123780Y-70199514D01*
X189992442Y-70039478D01*
X189894850Y-69856895D01*
X189834752Y-69658781D01*
X189814460Y-69452749D01*
X189834752Y-69246717D01*
X189894850Y-69048603D01*
X189992442Y-68866020D01*
X190123780Y-68705984D01*
X190283816Y-68574646D01*
X190466399Y-68477054D01*
X190664513Y-68416956D01*
X190788035Y-68404790D01*
X190818914Y-68401749D01*
X190922176Y-68401749D01*
X190953055Y-68404790D01*
X190953055Y-68404790D01*
G37*
G36*
X211273055Y-68404790D02*
X211396577Y-68416956D01*
X211594691Y-68477054D01*
X211777274Y-68574646D01*
X211937310Y-68705984D01*
X212068648Y-68866020D01*
X212166240Y-69048603D01*
X212226338Y-69246717D01*
X212246630Y-69452749D01*
X212226338Y-69658781D01*
X212166240Y-69856895D01*
X212068648Y-70039478D01*
X211937310Y-70199514D01*
X211777274Y-70330852D01*
X211594691Y-70428444D01*
X211396577Y-70488542D01*
X211273055Y-70500708D01*
X211242176Y-70503749D01*
X211138914Y-70503749D01*
X211108035Y-70500708D01*
X210984513Y-70488542D01*
X210786399Y-70428444D01*
X210603816Y-70330852D01*
X210443780Y-70199514D01*
X210312442Y-70039478D01*
X210214850Y-69856895D01*
X210154752Y-69658781D01*
X210134460Y-69452749D01*
X210154752Y-69246717D01*
X210214850Y-69048603D01*
X210312442Y-68866020D01*
X210443780Y-68705984D01*
X210603816Y-68574646D01*
X210786399Y-68477054D01*
X210984513Y-68416956D01*
X211108035Y-68404790D01*
X211138914Y-68401749D01*
X211242176Y-68401749D01*
X211273055Y-68404790D01*
X211273055Y-68404790D01*
G37*
G36*
X227367941Y-67968295D02*
X227541011Y-68039983D01*
X227696775Y-68144061D01*
X227829233Y-68276519D01*
X227933311Y-68432283D01*
X228004999Y-68605353D01*
X228041545Y-68789082D01*
X228041545Y-68976416D01*
X228004999Y-69160145D01*
X227933311Y-69333215D01*
X227829233Y-69488979D01*
X227696775Y-69621437D01*
X227541011Y-69725515D01*
X227367941Y-69797203D01*
X227184212Y-69833749D01*
X226996878Y-69833749D01*
X226813149Y-69797203D01*
X226640079Y-69725515D01*
X226484315Y-69621437D01*
X226351857Y-69488979D01*
X226247779Y-69333215D01*
X226176091Y-69160145D01*
X226139545Y-68976416D01*
X226139545Y-68789082D01*
X226176091Y-68605353D01*
X226247779Y-68432283D01*
X226351857Y-68276519D01*
X226484315Y-68144061D01*
X226640079Y-68039983D01*
X226813149Y-67968295D01*
X226996878Y-67931749D01*
X227184212Y-67931749D01*
X227367941Y-67968295D01*
X227367941Y-67968295D01*
G37*
G36*
X230581545Y-69833749D02*
X228679545Y-69833749D01*
X228679545Y-67931749D01*
X230581545Y-67931749D01*
X230581545Y-69833749D01*
X230581545Y-69833749D01*
G37*
G36*
X211273055Y-65864790D02*
X211396577Y-65876956D01*
X211594691Y-65937054D01*
X211777274Y-66034646D01*
X211937310Y-66165984D01*
X212068648Y-66326020D01*
X212166240Y-66508603D01*
X212226338Y-66706717D01*
X212246630Y-66912749D01*
X212226338Y-67118781D01*
X212166240Y-67316895D01*
X212068648Y-67499478D01*
X211937310Y-67659514D01*
X211777274Y-67790852D01*
X211594691Y-67888444D01*
X211396577Y-67948542D01*
X211273055Y-67960708D01*
X211242176Y-67963749D01*
X211138914Y-67963749D01*
X211108035Y-67960708D01*
X210984513Y-67948542D01*
X210786399Y-67888444D01*
X210603816Y-67790852D01*
X210443780Y-67659514D01*
X210312442Y-67499478D01*
X210214850Y-67316895D01*
X210154752Y-67118781D01*
X210134460Y-66912749D01*
X210154752Y-66706717D01*
X210214850Y-66508603D01*
X210312442Y-66326020D01*
X210443780Y-66165984D01*
X210603816Y-66034646D01*
X210786399Y-65937054D01*
X210984513Y-65876956D01*
X211108035Y-65864790D01*
X211138914Y-65861749D01*
X211242176Y-65861749D01*
X211273055Y-65864790D01*
X211273055Y-65864790D01*
G37*
G36*
X190953055Y-65864790D02*
X191076577Y-65876956D01*
X191274691Y-65937054D01*
X191457274Y-66034646D01*
X191617310Y-66165984D01*
X191748648Y-66326020D01*
X191846240Y-66508603D01*
X191906338Y-66706717D01*
X191926630Y-66912749D01*
X191906338Y-67118781D01*
X191846240Y-67316895D01*
X191748648Y-67499478D01*
X191617310Y-67659514D01*
X191457274Y-67790852D01*
X191274691Y-67888444D01*
X191076577Y-67948542D01*
X190953055Y-67960708D01*
X190922176Y-67963749D01*
X190818914Y-67963749D01*
X190788035Y-67960708D01*
X190664513Y-67948542D01*
X190466399Y-67888444D01*
X190283816Y-67790852D01*
X190123780Y-67659514D01*
X189992442Y-67499478D01*
X189894850Y-67316895D01*
X189834752Y-67118781D01*
X189814460Y-66912749D01*
X189834752Y-66706717D01*
X189894850Y-66508603D01*
X189992442Y-66326020D01*
X190123780Y-66165984D01*
X190283816Y-66034646D01*
X190466399Y-65937054D01*
X190664513Y-65876956D01*
X190788035Y-65864790D01*
X190818914Y-65861749D01*
X190922176Y-65861749D01*
X190953055Y-65864790D01*
X190953055Y-65864790D01*
G37*
G36*
X179714180Y-65243768D02*
X179895448Y-65279824D01*
X180123116Y-65374127D01*
X180218033Y-65437549D01*
X180328014Y-65511036D01*
X180502258Y-65685280D01*
X180502260Y-65685283D01*
X180639167Y-65890178D01*
X180733470Y-66117846D01*
X180781545Y-66359536D01*
X180781545Y-66605962D01*
X180733470Y-66847652D01*
X180639167Y-67075320D01*
X180568466Y-67181131D01*
X180502258Y-67280218D01*
X180328014Y-67454462D01*
X180328011Y-67454464D01*
X180123116Y-67591371D01*
X179895448Y-67685674D01*
X179744758Y-67715648D01*
X179653759Y-67733749D01*
X179407331Y-67733749D01*
X179316332Y-67715648D01*
X179165642Y-67685674D01*
X178937974Y-67591371D01*
X178733079Y-67454464D01*
X178733076Y-67454462D01*
X178558832Y-67280218D01*
X178492624Y-67181131D01*
X178421923Y-67075320D01*
X178327620Y-66847652D01*
X178279545Y-66605962D01*
X178279545Y-66359536D01*
X178327620Y-66117846D01*
X178421923Y-65890178D01*
X178558830Y-65685283D01*
X178558832Y-65685280D01*
X178733076Y-65511036D01*
X178843057Y-65437549D01*
X178937974Y-65374127D01*
X179165642Y-65279824D01*
X179346910Y-65243768D01*
X179407331Y-65231749D01*
X179653759Y-65231749D01*
X179714180Y-65243768D01*
X179714180Y-65243768D01*
G37*
G36*
X167075784Y-65249850D02*
X167311598Y-65321383D01*
X167528926Y-65437548D01*
X167719416Y-65593878D01*
X167875746Y-65784368D01*
X167991911Y-66001696D01*
X168063444Y-66237510D01*
X168087598Y-66482749D01*
X168063444Y-66727988D01*
X167991911Y-66963802D01*
X167875746Y-67181130D01*
X167719416Y-67371620D01*
X167528926Y-67527950D01*
X167311598Y-67644115D01*
X167075784Y-67715648D01*
X166892002Y-67733749D01*
X166769088Y-67733749D01*
X166585306Y-67715648D01*
X166349492Y-67644115D01*
X166132164Y-67527950D01*
X165941674Y-67371620D01*
X165785344Y-67181130D01*
X165669179Y-66963802D01*
X165597646Y-66727988D01*
X165573492Y-66482749D01*
X165597646Y-66237510D01*
X165669179Y-66001696D01*
X165785344Y-65784368D01*
X165941674Y-65593878D01*
X166132164Y-65437548D01*
X166349492Y-65321383D01*
X166585306Y-65249850D01*
X166769088Y-65231749D01*
X166892002Y-65231749D01*
X167075784Y-65249850D01*
X167075784Y-65249850D01*
G37*
G36*
X211273055Y-63324790D02*
X211396577Y-63336956D01*
X211594691Y-63397054D01*
X211777274Y-63494646D01*
X211937310Y-63625984D01*
X212068648Y-63786020D01*
X212166240Y-63968603D01*
X212226338Y-64166717D01*
X212246630Y-64372749D01*
X212226338Y-64578781D01*
X212166240Y-64776895D01*
X212068648Y-64959478D01*
X211937310Y-65119514D01*
X211777274Y-65250852D01*
X211594691Y-65348444D01*
X211396577Y-65408542D01*
X211273055Y-65420708D01*
X211242176Y-65423749D01*
X211138914Y-65423749D01*
X211108035Y-65420708D01*
X210984513Y-65408542D01*
X210786399Y-65348444D01*
X210603816Y-65250852D01*
X210443780Y-65119514D01*
X210312442Y-64959478D01*
X210214850Y-64776895D01*
X210154752Y-64578781D01*
X210134460Y-64372749D01*
X210154752Y-64166717D01*
X210214850Y-63968603D01*
X210312442Y-63786020D01*
X210443780Y-63625984D01*
X210603816Y-63494646D01*
X210786399Y-63397054D01*
X210984513Y-63336956D01*
X211108035Y-63324790D01*
X211138914Y-63321749D01*
X211242176Y-63321749D01*
X211273055Y-63324790D01*
X211273055Y-63324790D01*
G37*
G36*
X190953055Y-63324790D02*
X191076577Y-63336956D01*
X191274691Y-63397054D01*
X191457274Y-63494646D01*
X191617310Y-63625984D01*
X191748648Y-63786020D01*
X191846240Y-63968603D01*
X191906338Y-64166717D01*
X191926630Y-64372749D01*
X191906338Y-64578781D01*
X191846240Y-64776895D01*
X191748648Y-64959478D01*
X191617310Y-65119514D01*
X191457274Y-65250852D01*
X191274691Y-65348444D01*
X191076577Y-65408542D01*
X190953055Y-65420708D01*
X190922176Y-65423749D01*
X190818914Y-65423749D01*
X190788035Y-65420708D01*
X190664513Y-65408542D01*
X190466399Y-65348444D01*
X190283816Y-65250852D01*
X190123780Y-65119514D01*
X189992442Y-64959478D01*
X189894850Y-64776895D01*
X189834752Y-64578781D01*
X189814460Y-64372749D01*
X189834752Y-64166717D01*
X189894850Y-63968603D01*
X189992442Y-63786020D01*
X190123780Y-63625984D01*
X190283816Y-63494646D01*
X190466399Y-63397054D01*
X190664513Y-63336956D01*
X190788035Y-63324790D01*
X190818914Y-63321749D01*
X190922176Y-63321749D01*
X190953055Y-63324790D01*
X190953055Y-63324790D01*
G37*
G36*
X150098773Y-62809452D02*
X150253645Y-62873602D01*
X150393026Y-62966734D01*
X150511560Y-63085268D01*
X150604692Y-63224649D01*
X150668842Y-63379521D01*
X150701545Y-63543933D01*
X150701545Y-63711565D01*
X150668842Y-63875977D01*
X150604692Y-64030849D01*
X150511560Y-64170230D01*
X150393026Y-64288764D01*
X150253645Y-64381896D01*
X150098773Y-64446046D01*
X149934361Y-64478749D01*
X149766729Y-64478749D01*
X149602317Y-64446046D01*
X149447445Y-64381896D01*
X149308064Y-64288764D01*
X149189530Y-64170230D01*
X149096398Y-64030849D01*
X149032248Y-63875977D01*
X148999545Y-63711565D01*
X148999545Y-63543933D01*
X149032248Y-63379521D01*
X149096398Y-63224649D01*
X149189530Y-63085268D01*
X149308064Y-62966734D01*
X149447445Y-62873602D01*
X149602317Y-62809452D01*
X149766729Y-62776749D01*
X149934361Y-62776749D01*
X150098773Y-62809452D01*
X150098773Y-62809452D01*
G37*
G36*
X154058773Y-62809452D02*
X154213645Y-62873602D01*
X154353026Y-62966734D01*
X154471560Y-63085268D01*
X154564692Y-63224649D01*
X154628842Y-63379521D01*
X154661545Y-63543933D01*
X154661545Y-63711565D01*
X154628842Y-63875977D01*
X154564692Y-64030849D01*
X154471560Y-64170230D01*
X154353026Y-64288764D01*
X154213645Y-64381896D01*
X154058773Y-64446046D01*
X153894361Y-64478749D01*
X153726729Y-64478749D01*
X153562317Y-64446046D01*
X153407445Y-64381896D01*
X153268064Y-64288764D01*
X153149530Y-64170230D01*
X153056398Y-64030849D01*
X152992248Y-63875977D01*
X152959545Y-63711565D01*
X152959545Y-63543933D01*
X152992248Y-63379521D01*
X153056398Y-63224649D01*
X153149530Y-63085268D01*
X153268064Y-62966734D01*
X153407445Y-62873602D01*
X153562317Y-62809452D01*
X153726729Y-62776749D01*
X153894361Y-62776749D01*
X154058773Y-62809452D01*
X154058773Y-62809452D01*
G37*
G36*
X217575784Y-61649850D02*
X217811598Y-61721383D01*
X218028926Y-61837548D01*
X218219416Y-61993878D01*
X218375746Y-62184368D01*
X218491911Y-62401696D01*
X218563444Y-62637510D01*
X218587598Y-62882749D01*
X218563444Y-63127988D01*
X218491911Y-63363802D01*
X218375746Y-63581130D01*
X218219416Y-63771620D01*
X218028926Y-63927950D01*
X217811598Y-64044115D01*
X217575784Y-64115648D01*
X217392002Y-64133749D01*
X217269088Y-64133749D01*
X217085306Y-64115648D01*
X216849492Y-64044115D01*
X216632164Y-63927950D01*
X216441674Y-63771620D01*
X216285344Y-63581130D01*
X216169179Y-63363802D01*
X216097646Y-63127988D01*
X216073492Y-62882749D01*
X216097646Y-62637510D01*
X216169179Y-62401696D01*
X216285344Y-62184368D01*
X216441674Y-61993878D01*
X216632164Y-61837548D01*
X216849492Y-61721383D01*
X217085306Y-61649850D01*
X217269088Y-61631749D01*
X217392002Y-61631749D01*
X217575784Y-61649850D01*
X217575784Y-61649850D01*
G37*
G36*
X167075784Y-61249850D02*
X167311598Y-61321383D01*
X167528926Y-61437548D01*
X167719416Y-61593878D01*
X167875746Y-61784368D01*
X167991911Y-62001696D01*
X168063444Y-62237510D01*
X168087598Y-62482749D01*
X168063444Y-62727988D01*
X167991911Y-62963802D01*
X167875746Y-63181130D01*
X167719416Y-63371620D01*
X167528926Y-63527950D01*
X167311598Y-63644115D01*
X167075784Y-63715648D01*
X166892002Y-63733749D01*
X166769088Y-63733749D01*
X166585306Y-63715648D01*
X166349492Y-63644115D01*
X166132164Y-63527950D01*
X165941674Y-63371620D01*
X165785344Y-63181130D01*
X165669179Y-62963802D01*
X165597646Y-62727988D01*
X165573492Y-62482749D01*
X165597646Y-62237510D01*
X165669179Y-62001696D01*
X165785344Y-61784368D01*
X165941674Y-61593878D01*
X166132164Y-61437548D01*
X166349492Y-61321383D01*
X166585306Y-61249850D01*
X166769088Y-61231749D01*
X166892002Y-61231749D01*
X167075784Y-61249850D01*
X167075784Y-61249850D01*
G37*
G36*
X179714180Y-61243768D02*
X179895448Y-61279824D01*
X180123116Y-61374127D01*
X180218033Y-61437549D01*
X180328014Y-61511036D01*
X180502258Y-61685280D01*
X180502260Y-61685283D01*
X180639167Y-61890178D01*
X180733470Y-62117846D01*
X180781545Y-62359536D01*
X180781545Y-62605962D01*
X180733470Y-62847652D01*
X180639167Y-63075320D01*
X180531205Y-63236896D01*
X180502258Y-63280218D01*
X180328014Y-63454462D01*
X180328011Y-63454464D01*
X180123116Y-63591371D01*
X179895448Y-63685674D01*
X179744758Y-63715648D01*
X179653759Y-63733749D01*
X179407331Y-63733749D01*
X179316332Y-63715648D01*
X179165642Y-63685674D01*
X178937974Y-63591371D01*
X178733079Y-63454464D01*
X178733076Y-63454462D01*
X178558832Y-63280218D01*
X178529885Y-63236896D01*
X178421923Y-63075320D01*
X178327620Y-62847652D01*
X178279545Y-62605962D01*
X178279545Y-62359536D01*
X178327620Y-62117846D01*
X178421923Y-61890178D01*
X178558830Y-61685283D01*
X178558832Y-61685280D01*
X178733076Y-61511036D01*
X178843057Y-61437549D01*
X178937974Y-61374127D01*
X179165642Y-61279824D01*
X179346910Y-61243768D01*
X179407331Y-61231749D01*
X179653759Y-61231749D01*
X179714180Y-61243768D01*
X179714180Y-61243768D01*
G37*
G36*
X152078773Y-61664452D02*
X152233645Y-61728602D01*
X152373026Y-61821734D01*
X152491560Y-61940268D01*
X152584692Y-62079649D01*
X152648842Y-62234521D01*
X152681545Y-62398933D01*
X152681545Y-62566565D01*
X152648842Y-62730977D01*
X152584692Y-62885849D01*
X152491560Y-63025230D01*
X152373026Y-63143764D01*
X152233645Y-63236896D01*
X152078773Y-63301046D01*
X151914361Y-63333749D01*
X151746729Y-63333749D01*
X151582317Y-63301046D01*
X151427445Y-63236896D01*
X151288064Y-63143764D01*
X151169530Y-63025230D01*
X151076398Y-62885849D01*
X151012248Y-62730977D01*
X150979545Y-62566565D01*
X150979545Y-62398933D01*
X151012248Y-62234521D01*
X151076398Y-62079649D01*
X151169530Y-61940268D01*
X151288064Y-61821734D01*
X151427445Y-61728602D01*
X151582317Y-61664452D01*
X151746729Y-61631749D01*
X151914361Y-61631749D01*
X152078773Y-61664452D01*
X152078773Y-61664452D01*
G37*
G36*
X211273055Y-60784790D02*
X211396577Y-60796956D01*
X211594691Y-60857054D01*
X211777274Y-60954646D01*
X211937310Y-61085984D01*
X212068648Y-61246020D01*
X212166240Y-61428603D01*
X212226338Y-61626717D01*
X212246630Y-61832749D01*
X212226338Y-62038781D01*
X212166240Y-62236895D01*
X212068648Y-62419478D01*
X211937310Y-62579514D01*
X211777274Y-62710852D01*
X211594691Y-62808444D01*
X211396577Y-62868542D01*
X211273055Y-62880708D01*
X211242176Y-62883749D01*
X211138914Y-62883749D01*
X211108035Y-62880708D01*
X210984513Y-62868542D01*
X210786399Y-62808444D01*
X210603816Y-62710852D01*
X210443780Y-62579514D01*
X210312442Y-62419478D01*
X210214850Y-62236895D01*
X210154752Y-62038781D01*
X210134460Y-61832749D01*
X210154752Y-61626717D01*
X210214850Y-61428603D01*
X210312442Y-61246020D01*
X210443780Y-61085984D01*
X210603816Y-60954646D01*
X210786399Y-60857054D01*
X210984513Y-60796956D01*
X211108035Y-60784790D01*
X211138914Y-60781749D01*
X211242176Y-60781749D01*
X211273055Y-60784790D01*
X211273055Y-60784790D01*
G37*
G36*
X190953055Y-60784790D02*
X191076577Y-60796956D01*
X191274691Y-60857054D01*
X191457274Y-60954646D01*
X191617310Y-61085984D01*
X191748648Y-61246020D01*
X191846240Y-61428603D01*
X191906338Y-61626717D01*
X191926630Y-61832749D01*
X191906338Y-62038781D01*
X191846240Y-62236895D01*
X191748648Y-62419478D01*
X191617310Y-62579514D01*
X191457274Y-62710852D01*
X191274691Y-62808444D01*
X191076577Y-62868542D01*
X190953055Y-62880708D01*
X190922176Y-62883749D01*
X190818914Y-62883749D01*
X190788035Y-62880708D01*
X190664513Y-62868542D01*
X190466399Y-62808444D01*
X190283816Y-62710852D01*
X190123780Y-62579514D01*
X189992442Y-62419478D01*
X189894850Y-62236895D01*
X189834752Y-62038781D01*
X189814460Y-61832749D01*
X189834752Y-61626717D01*
X189894850Y-61428603D01*
X189992442Y-61246020D01*
X190123780Y-61085984D01*
X190283816Y-60954646D01*
X190466399Y-60857054D01*
X190664513Y-60796956D01*
X190788035Y-60784790D01*
X190818914Y-60781749D01*
X190922176Y-60781749D01*
X190953055Y-60784790D01*
X190953055Y-60784790D01*
G37*
G36*
X154058773Y-60519452D02*
X154213645Y-60583602D01*
X154353026Y-60676734D01*
X154471560Y-60795268D01*
X154564692Y-60934649D01*
X154628842Y-61089521D01*
X154661545Y-61253933D01*
X154661545Y-61421565D01*
X154628842Y-61585977D01*
X154564692Y-61740849D01*
X154471560Y-61880230D01*
X154353026Y-61998764D01*
X154213645Y-62091896D01*
X154058773Y-62156046D01*
X153894361Y-62188749D01*
X153726729Y-62188749D01*
X153562317Y-62156046D01*
X153407445Y-62091896D01*
X153268064Y-61998764D01*
X153149530Y-61880230D01*
X153056398Y-61740849D01*
X152992248Y-61585977D01*
X152959545Y-61421565D01*
X152959545Y-61253933D01*
X152992248Y-61089521D01*
X153056398Y-60934649D01*
X153149530Y-60795268D01*
X153268064Y-60676734D01*
X153407445Y-60583602D01*
X153562317Y-60519452D01*
X153726729Y-60486749D01*
X153894361Y-60486749D01*
X154058773Y-60519452D01*
X154058773Y-60519452D01*
G37*
G36*
X150098773Y-60519452D02*
X150253645Y-60583602D01*
X150393026Y-60676734D01*
X150511560Y-60795268D01*
X150604692Y-60934649D01*
X150668842Y-61089521D01*
X150701545Y-61253933D01*
X150701545Y-61421565D01*
X150668842Y-61585977D01*
X150604692Y-61740849D01*
X150511560Y-61880230D01*
X150393026Y-61998764D01*
X150253645Y-62091896D01*
X150098773Y-62156046D01*
X149934361Y-62188749D01*
X149766729Y-62188749D01*
X149602317Y-62156046D01*
X149447445Y-62091896D01*
X149308064Y-61998764D01*
X149189530Y-61880230D01*
X149096398Y-61740849D01*
X149032248Y-61585977D01*
X148999545Y-61421565D01*
X148999545Y-61253933D01*
X149032248Y-61089521D01*
X149096398Y-60934649D01*
X149189530Y-60795268D01*
X149308064Y-60676734D01*
X149447445Y-60583602D01*
X149602317Y-60519452D01*
X149766729Y-60486749D01*
X149934361Y-60486749D01*
X150098773Y-60519452D01*
X150098773Y-60519452D01*
G37*
G36*
X230531545Y-61683749D02*
X228729545Y-61683749D01*
X228729545Y-59881749D01*
X230531545Y-59881749D01*
X230531545Y-61683749D01*
X230531545Y-61683749D01*
G37*
G36*
X152078773Y-59374452D02*
X152233645Y-59438602D01*
X152373026Y-59531734D01*
X152491560Y-59650268D01*
X152584692Y-59789649D01*
X152648842Y-59944521D01*
X152681545Y-60108933D01*
X152681545Y-60276565D01*
X152648842Y-60440977D01*
X152584692Y-60595849D01*
X152491560Y-60735230D01*
X152373026Y-60853764D01*
X152233645Y-60946896D01*
X152078773Y-61011046D01*
X151914361Y-61043749D01*
X151746729Y-61043749D01*
X151582317Y-61011046D01*
X151427445Y-60946896D01*
X151288064Y-60853764D01*
X151169530Y-60735230D01*
X151076398Y-60595849D01*
X151012248Y-60440977D01*
X150979545Y-60276565D01*
X150979545Y-60108933D01*
X151012248Y-59944521D01*
X151076398Y-59789649D01*
X151169530Y-59650268D01*
X151288064Y-59531734D01*
X151427445Y-59438602D01*
X151582317Y-59374452D01*
X151746729Y-59341749D01*
X151914361Y-59341749D01*
X152078773Y-59374452D01*
X152078773Y-59374452D01*
G37*
G36*
X190953055Y-58244790D02*
X191076577Y-58256956D01*
X191274691Y-58317054D01*
X191457274Y-58414646D01*
X191617310Y-58545984D01*
X191748648Y-58706020D01*
X191846240Y-58888603D01*
X191906338Y-59086717D01*
X191926630Y-59292749D01*
X191906338Y-59498781D01*
X191846240Y-59696895D01*
X191748648Y-59879478D01*
X191617310Y-60039514D01*
X191457274Y-60170852D01*
X191274691Y-60268444D01*
X191076577Y-60328542D01*
X190953055Y-60340708D01*
X190922176Y-60343749D01*
X190818914Y-60343749D01*
X190788035Y-60340708D01*
X190664513Y-60328542D01*
X190466399Y-60268444D01*
X190283816Y-60170852D01*
X190123780Y-60039514D01*
X189992442Y-59879478D01*
X189894850Y-59696895D01*
X189834752Y-59498781D01*
X189814460Y-59292749D01*
X189834752Y-59086717D01*
X189894850Y-58888603D01*
X189992442Y-58706020D01*
X190123780Y-58545984D01*
X190283816Y-58414646D01*
X190466399Y-58317054D01*
X190664513Y-58256956D01*
X190788035Y-58244790D01*
X190818914Y-58241749D01*
X190922176Y-58241749D01*
X190953055Y-58244790D01*
X190953055Y-58244790D01*
G37*
G36*
X211273055Y-58244790D02*
X211396577Y-58256956D01*
X211594691Y-58317054D01*
X211777274Y-58414646D01*
X211937310Y-58545984D01*
X212068648Y-58706020D01*
X212166240Y-58888603D01*
X212226338Y-59086717D01*
X212246630Y-59292749D01*
X212226338Y-59498781D01*
X212166240Y-59696895D01*
X212068648Y-59879478D01*
X211937310Y-60039514D01*
X211777274Y-60170852D01*
X211594691Y-60268444D01*
X211396577Y-60328542D01*
X211273055Y-60340708D01*
X211242176Y-60343749D01*
X211138914Y-60343749D01*
X211108035Y-60340708D01*
X210984513Y-60328542D01*
X210786399Y-60268444D01*
X210603816Y-60170852D01*
X210443780Y-60039514D01*
X210312442Y-59879478D01*
X210214850Y-59696895D01*
X210154752Y-59498781D01*
X210134460Y-59292749D01*
X210154752Y-59086717D01*
X210214850Y-58888603D01*
X210312442Y-58706020D01*
X210443780Y-58545984D01*
X210603816Y-58414646D01*
X210786399Y-58317054D01*
X210984513Y-58256956D01*
X211108035Y-58244790D01*
X211138914Y-58241749D01*
X211242176Y-58241749D01*
X211273055Y-58244790D01*
X211273055Y-58244790D01*
G37*
G36*
X150098773Y-58229452D02*
X150253645Y-58293602D01*
X150393026Y-58386734D01*
X150511560Y-58505268D01*
X150604692Y-58644649D01*
X150668842Y-58799521D01*
X150701545Y-58963933D01*
X150701545Y-59131565D01*
X150668842Y-59295977D01*
X150604692Y-59450849D01*
X150511560Y-59590230D01*
X150393026Y-59708764D01*
X150253645Y-59801896D01*
X150098773Y-59866046D01*
X149934361Y-59898749D01*
X149766729Y-59898749D01*
X149602317Y-59866046D01*
X149447445Y-59801896D01*
X149308064Y-59708764D01*
X149189530Y-59590230D01*
X149096398Y-59450849D01*
X149032248Y-59295977D01*
X148999545Y-59131565D01*
X148999545Y-58963933D01*
X149032248Y-58799521D01*
X149096398Y-58644649D01*
X149189530Y-58505268D01*
X149308064Y-58386734D01*
X149447445Y-58293602D01*
X149602317Y-58229452D01*
X149766729Y-58196749D01*
X149934361Y-58196749D01*
X150098773Y-58229452D01*
X150098773Y-58229452D01*
G37*
G36*
X154058773Y-58229452D02*
X154213645Y-58293602D01*
X154353026Y-58386734D01*
X154471560Y-58505268D01*
X154564692Y-58644649D01*
X154628842Y-58799521D01*
X154661545Y-58963933D01*
X154661545Y-59131565D01*
X154628842Y-59295977D01*
X154564692Y-59450849D01*
X154471560Y-59590230D01*
X154353026Y-59708764D01*
X154213645Y-59801896D01*
X154058773Y-59866046D01*
X153894361Y-59898749D01*
X153726729Y-59898749D01*
X153562317Y-59866046D01*
X153407445Y-59801896D01*
X153268064Y-59708764D01*
X153149530Y-59590230D01*
X153056398Y-59450849D01*
X152992248Y-59295977D01*
X152959545Y-59131565D01*
X152959545Y-58963933D01*
X152992248Y-58799521D01*
X153056398Y-58644649D01*
X153149530Y-58505268D01*
X153268064Y-58386734D01*
X153407445Y-58293602D01*
X153562317Y-58229452D01*
X153726729Y-58196749D01*
X153894361Y-58196749D01*
X154058773Y-58229452D01*
X154058773Y-58229452D01*
G37*
G36*
X179703956Y-57241734D02*
X179895448Y-57279824D01*
X180123116Y-57374127D01*
X180296488Y-57489971D01*
X180328014Y-57511036D01*
X180502258Y-57685280D01*
X180502260Y-57685283D01*
X180639167Y-57890178D01*
X180733470Y-58117846D01*
X180781545Y-58359536D01*
X180781545Y-58605962D01*
X180733470Y-58847652D01*
X180639167Y-59075320D01*
X180568466Y-59181131D01*
X180502258Y-59280218D01*
X180328014Y-59454462D01*
X180328011Y-59454464D01*
X180123116Y-59591371D01*
X179895448Y-59685674D01*
X179744758Y-59715648D01*
X179653759Y-59733749D01*
X179407331Y-59733749D01*
X179316332Y-59715648D01*
X179165642Y-59685674D01*
X178937974Y-59591371D01*
X178733079Y-59454464D01*
X178733076Y-59454462D01*
X178558832Y-59280218D01*
X178492624Y-59181131D01*
X178421923Y-59075320D01*
X178327620Y-58847652D01*
X178279545Y-58605962D01*
X178279545Y-58359536D01*
X178327620Y-58117846D01*
X178421923Y-57890178D01*
X178558830Y-57685283D01*
X178558832Y-57685280D01*
X178733076Y-57511036D01*
X178764602Y-57489971D01*
X178937974Y-57374127D01*
X179165642Y-57279824D01*
X179357134Y-57241734D01*
X179407331Y-57231749D01*
X179653759Y-57231749D01*
X179703956Y-57241734D01*
X179703956Y-57241734D01*
G37*
G36*
X167075784Y-57249850D02*
X167311598Y-57321383D01*
X167528926Y-57437548D01*
X167719416Y-57593878D01*
X167875746Y-57784368D01*
X167991911Y-58001696D01*
X168063444Y-58237510D01*
X168087598Y-58482749D01*
X168063444Y-58727988D01*
X167991911Y-58963802D01*
X167875746Y-59181130D01*
X167719416Y-59371620D01*
X167528926Y-59527950D01*
X167311598Y-59644115D01*
X167075784Y-59715648D01*
X166892002Y-59733749D01*
X166769088Y-59733749D01*
X166585306Y-59715648D01*
X166349492Y-59644115D01*
X166132164Y-59527950D01*
X165941674Y-59371620D01*
X165785344Y-59181130D01*
X165669179Y-58963802D01*
X165597646Y-58727988D01*
X165573492Y-58482749D01*
X165597646Y-58237510D01*
X165669179Y-58001696D01*
X165785344Y-57784368D01*
X165941674Y-57593878D01*
X166132164Y-57437548D01*
X166349492Y-57321383D01*
X166585306Y-57249850D01*
X166769088Y-57231749D01*
X166892002Y-57231749D01*
X167075784Y-57249850D01*
X167075784Y-57249850D01*
G37*
G36*
X229740987Y-57348267D02*
X229807172Y-57354786D01*
X229920398Y-57389133D01*
X229977012Y-57406306D01*
X230115632Y-57480401D01*
X230133536Y-57489971D01*
X230169274Y-57519301D01*
X230270731Y-57602563D01*
X230353993Y-57704020D01*
X230383323Y-57739758D01*
X230383324Y-57739760D01*
X230466988Y-57896282D01*
X230466988Y-57896283D01*
X230518508Y-58066122D01*
X230535904Y-58242749D01*
X230518508Y-58419376D01*
X230510665Y-58445230D01*
X230466988Y-58589216D01*
X230404555Y-58706018D01*
X230383323Y-58745740D01*
X230376750Y-58753749D01*
X230270731Y-58882935D01*
X230172193Y-58963802D01*
X230133536Y-58995527D01*
X230133534Y-58995528D01*
X229977012Y-59079192D01*
X229920398Y-59096365D01*
X229807172Y-59130712D01*
X229740988Y-59137230D01*
X229674805Y-59143749D01*
X229586285Y-59143749D01*
X229520102Y-59137230D01*
X229453918Y-59130712D01*
X229340692Y-59096365D01*
X229284078Y-59079192D01*
X229127556Y-58995528D01*
X229127554Y-58995527D01*
X229088897Y-58963802D01*
X228990359Y-58882935D01*
X228884340Y-58753749D01*
X228877767Y-58745740D01*
X228856535Y-58706018D01*
X228794102Y-58589216D01*
X228750425Y-58445230D01*
X228742582Y-58419376D01*
X228725186Y-58242749D01*
X228742582Y-58066122D01*
X228794102Y-57896283D01*
X228794102Y-57896282D01*
X228877766Y-57739760D01*
X228877767Y-57739758D01*
X228907097Y-57704020D01*
X228990359Y-57602563D01*
X229091816Y-57519301D01*
X229127554Y-57489971D01*
X229145458Y-57480401D01*
X229284078Y-57406306D01*
X229340692Y-57389133D01*
X229453918Y-57354786D01*
X229520103Y-57348267D01*
X229586285Y-57341749D01*
X229674805Y-57341749D01*
X229740987Y-57348267D01*
X229740987Y-57348267D01*
G37*
G36*
X152078773Y-57084452D02*
X152233645Y-57148602D01*
X152373026Y-57241734D01*
X152491560Y-57360268D01*
X152584692Y-57499649D01*
X152648842Y-57654521D01*
X152681545Y-57818933D01*
X152681545Y-57986565D01*
X152648842Y-58150977D01*
X152584692Y-58305849D01*
X152491560Y-58445230D01*
X152373026Y-58563764D01*
X152233645Y-58656896D01*
X152078773Y-58721046D01*
X151914361Y-58753749D01*
X151746729Y-58753749D01*
X151582317Y-58721046D01*
X151427445Y-58656896D01*
X151288064Y-58563764D01*
X151169530Y-58445230D01*
X151076398Y-58305849D01*
X151012248Y-58150977D01*
X150979545Y-57986565D01*
X150979545Y-57818933D01*
X151012248Y-57654521D01*
X151076398Y-57499649D01*
X151169530Y-57360268D01*
X151288064Y-57241734D01*
X151427445Y-57148602D01*
X151582317Y-57084452D01*
X151746729Y-57051749D01*
X151914361Y-57051749D01*
X152078773Y-57084452D01*
X152078773Y-57084452D01*
G37*
G36*
X211273055Y-55704790D02*
X211396577Y-55716956D01*
X211594691Y-55777054D01*
X211777274Y-55874646D01*
X211937310Y-56005984D01*
X212068648Y-56166020D01*
X212166240Y-56348603D01*
X212226338Y-56546717D01*
X212246630Y-56752749D01*
X212226338Y-56958781D01*
X212166240Y-57156895D01*
X212068648Y-57339478D01*
X211937310Y-57499514D01*
X211777274Y-57630852D01*
X211594691Y-57728444D01*
X211396577Y-57788542D01*
X211273055Y-57800708D01*
X211242176Y-57803749D01*
X211138914Y-57803749D01*
X211108035Y-57800708D01*
X210984513Y-57788542D01*
X210786399Y-57728444D01*
X210603816Y-57630852D01*
X210443780Y-57499514D01*
X210312442Y-57339478D01*
X210214850Y-57156895D01*
X210154752Y-56958781D01*
X210134460Y-56752749D01*
X210154752Y-56546717D01*
X210214850Y-56348603D01*
X210312442Y-56166020D01*
X210443780Y-56005984D01*
X210603816Y-55874646D01*
X210786399Y-55777054D01*
X210984513Y-55716956D01*
X211108035Y-55704790D01*
X211138914Y-55701749D01*
X211242176Y-55701749D01*
X211273055Y-55704790D01*
X211273055Y-55704790D01*
G37*
G36*
X190953055Y-55704790D02*
X191076577Y-55716956D01*
X191274691Y-55777054D01*
X191457274Y-55874646D01*
X191617310Y-56005984D01*
X191748648Y-56166020D01*
X191846240Y-56348603D01*
X191906338Y-56546717D01*
X191926630Y-56752749D01*
X191906338Y-56958781D01*
X191846240Y-57156895D01*
X191748648Y-57339478D01*
X191617310Y-57499514D01*
X191457274Y-57630852D01*
X191274691Y-57728444D01*
X191076577Y-57788542D01*
X190953055Y-57800708D01*
X190922176Y-57803749D01*
X190818914Y-57803749D01*
X190788035Y-57800708D01*
X190664513Y-57788542D01*
X190466399Y-57728444D01*
X190283816Y-57630852D01*
X190123780Y-57499514D01*
X189992442Y-57339478D01*
X189894850Y-57156895D01*
X189834752Y-56958781D01*
X189814460Y-56752749D01*
X189834752Y-56546717D01*
X189894850Y-56348603D01*
X189992442Y-56166020D01*
X190123780Y-56005984D01*
X190283816Y-55874646D01*
X190466399Y-55777054D01*
X190664513Y-55716956D01*
X190788035Y-55704790D01*
X190818914Y-55701749D01*
X190922176Y-55701749D01*
X190953055Y-55704790D01*
X190953055Y-55704790D01*
G37*
G36*
X150098773Y-55939452D02*
X150253645Y-56003602D01*
X150393026Y-56096734D01*
X150511560Y-56215268D01*
X150604692Y-56354649D01*
X150668842Y-56509521D01*
X150701545Y-56673933D01*
X150701545Y-56841565D01*
X150668842Y-57005977D01*
X150604692Y-57160849D01*
X150511560Y-57300230D01*
X150393026Y-57418764D01*
X150253645Y-57511896D01*
X150098773Y-57576046D01*
X149934361Y-57608749D01*
X149766729Y-57608749D01*
X149602317Y-57576046D01*
X149447445Y-57511896D01*
X149308064Y-57418764D01*
X149189530Y-57300230D01*
X149096398Y-57160849D01*
X149032248Y-57005977D01*
X148999545Y-56841565D01*
X148999545Y-56673933D01*
X149032248Y-56509521D01*
X149096398Y-56354649D01*
X149189530Y-56215268D01*
X149308064Y-56096734D01*
X149447445Y-56003602D01*
X149602317Y-55939452D01*
X149766729Y-55906749D01*
X149934361Y-55906749D01*
X150098773Y-55939452D01*
X150098773Y-55939452D01*
G37*
G36*
X154058773Y-55939452D02*
X154213645Y-56003602D01*
X154353026Y-56096734D01*
X154471560Y-56215268D01*
X154564692Y-56354649D01*
X154628842Y-56509521D01*
X154661545Y-56673933D01*
X154661545Y-56841565D01*
X154628842Y-57005977D01*
X154564692Y-57160849D01*
X154471560Y-57300230D01*
X154353026Y-57418764D01*
X154213645Y-57511896D01*
X154058773Y-57576046D01*
X153894361Y-57608749D01*
X153726729Y-57608749D01*
X153562317Y-57576046D01*
X153407445Y-57511896D01*
X153268064Y-57418764D01*
X153149530Y-57300230D01*
X153056398Y-57160849D01*
X152992248Y-57005977D01*
X152959545Y-56841565D01*
X152959545Y-56673933D01*
X152992248Y-56509521D01*
X153056398Y-56354649D01*
X153149530Y-56215268D01*
X153268064Y-56096734D01*
X153407445Y-56003602D01*
X153562317Y-55939452D01*
X153726729Y-55906749D01*
X153894361Y-55906749D01*
X154058773Y-55939452D01*
X154058773Y-55939452D01*
G37*
G36*
X229740988Y-54808268D02*
X229807172Y-54814786D01*
X229915507Y-54847649D01*
X229977012Y-54866306D01*
X230007729Y-54882725D01*
X230133536Y-54949971D01*
X230135685Y-54951735D01*
X230270731Y-55062563D01*
X230353993Y-55164020D01*
X230383323Y-55199758D01*
X230383324Y-55199760D01*
X230466988Y-55356282D01*
X230484161Y-55412896D01*
X230518508Y-55526122D01*
X230535904Y-55702749D01*
X230518508Y-55879376D01*
X230500284Y-55939452D01*
X230466988Y-56049216D01*
X230441588Y-56096735D01*
X230383323Y-56205740D01*
X230353993Y-56241478D01*
X230270731Y-56342935D01*
X230169274Y-56426197D01*
X230133536Y-56455527D01*
X230133534Y-56455528D01*
X229977012Y-56539192D01*
X229920398Y-56556365D01*
X229807172Y-56590712D01*
X229740987Y-56597231D01*
X229674805Y-56603749D01*
X229586285Y-56603749D01*
X229520103Y-56597231D01*
X229453918Y-56590712D01*
X229340692Y-56556365D01*
X229284078Y-56539192D01*
X229127556Y-56455528D01*
X229127554Y-56455527D01*
X229091816Y-56426197D01*
X228990359Y-56342935D01*
X228907097Y-56241478D01*
X228877767Y-56205740D01*
X228819502Y-56096735D01*
X228794102Y-56049216D01*
X228760806Y-55939452D01*
X228742582Y-55879376D01*
X228725186Y-55702749D01*
X228742582Y-55526122D01*
X228776929Y-55412896D01*
X228794102Y-55356282D01*
X228877766Y-55199760D01*
X228877767Y-55199758D01*
X228907097Y-55164020D01*
X228990359Y-55062563D01*
X229125405Y-54951735D01*
X229127554Y-54949971D01*
X229253361Y-54882725D01*
X229284078Y-54866306D01*
X229345583Y-54847649D01*
X229453918Y-54814786D01*
X229520102Y-54808268D01*
X229586285Y-54801749D01*
X229674805Y-54801749D01*
X229740988Y-54808268D01*
X229740988Y-54808268D01*
G37*
G36*
X152078773Y-54794452D02*
X152233645Y-54858602D01*
X152373026Y-54951734D01*
X152491560Y-55070268D01*
X152584692Y-55209649D01*
X152648842Y-55364521D01*
X152681545Y-55528933D01*
X152681545Y-55696565D01*
X152648842Y-55860977D01*
X152584692Y-56015849D01*
X152491560Y-56155230D01*
X152373026Y-56273764D01*
X152233645Y-56366896D01*
X152078773Y-56431046D01*
X151914361Y-56463749D01*
X151746729Y-56463749D01*
X151582317Y-56431046D01*
X151427445Y-56366896D01*
X151288064Y-56273764D01*
X151169530Y-56155230D01*
X151076398Y-56015849D01*
X151012248Y-55860977D01*
X150979545Y-55696565D01*
X150979545Y-55528933D01*
X151012248Y-55364521D01*
X151076398Y-55209649D01*
X151169530Y-55070268D01*
X151288064Y-54951734D01*
X151427445Y-54858602D01*
X151582317Y-54794452D01*
X151746729Y-54761749D01*
X151914361Y-54761749D01*
X152078773Y-54794452D01*
X152078773Y-54794452D01*
G37*
G36*
X167075784Y-53249850D02*
X167311598Y-53321383D01*
X167528926Y-53437548D01*
X167719416Y-53593878D01*
X167875746Y-53784368D01*
X167991911Y-54001696D01*
X168063444Y-54237510D01*
X168087598Y-54482749D01*
X168063444Y-54727988D01*
X167991911Y-54963802D01*
X167875746Y-55181130D01*
X167719416Y-55371620D01*
X167528926Y-55527950D01*
X167311598Y-55644115D01*
X167075784Y-55715648D01*
X166892002Y-55733749D01*
X166769088Y-55733749D01*
X166585306Y-55715648D01*
X166349492Y-55644115D01*
X166132164Y-55527950D01*
X165941674Y-55371620D01*
X165785344Y-55181130D01*
X165669179Y-54963802D01*
X165597646Y-54727988D01*
X165573492Y-54482749D01*
X165597646Y-54237510D01*
X165669179Y-54001696D01*
X165785344Y-53784368D01*
X165941674Y-53593878D01*
X166132164Y-53437548D01*
X166349492Y-53321383D01*
X166585306Y-53249850D01*
X166769088Y-53231749D01*
X166892002Y-53231749D01*
X167075784Y-53249850D01*
X167075784Y-53249850D01*
G37*
G36*
X179689875Y-53238933D02*
X179895448Y-53279824D01*
X180123116Y-53374127D01*
X180218033Y-53437549D01*
X180328014Y-53511036D01*
X180502258Y-53685280D01*
X180502260Y-53685283D01*
X180639167Y-53890178D01*
X180733470Y-54117846D01*
X180757273Y-54237514D01*
X180772938Y-54316263D01*
X180781545Y-54359536D01*
X180781545Y-54605962D01*
X180733470Y-54847652D01*
X180639167Y-55075320D01*
X180540250Y-55223359D01*
X180502258Y-55280218D01*
X180328014Y-55454462D01*
X180328011Y-55454464D01*
X180123116Y-55591371D01*
X179895448Y-55685674D01*
X179744758Y-55715648D01*
X179653759Y-55733749D01*
X179407331Y-55733749D01*
X179316332Y-55715648D01*
X179165642Y-55685674D01*
X178937974Y-55591371D01*
X178733079Y-55454464D01*
X178733076Y-55454462D01*
X178558832Y-55280218D01*
X178520840Y-55223359D01*
X178421923Y-55075320D01*
X178327620Y-54847652D01*
X178279545Y-54605962D01*
X178279545Y-54359536D01*
X178288153Y-54316263D01*
X178303817Y-54237514D01*
X178327620Y-54117846D01*
X178421923Y-53890178D01*
X178558830Y-53685283D01*
X178558832Y-53685280D01*
X178733076Y-53511036D01*
X178843057Y-53437549D01*
X178937974Y-53374127D01*
X179165642Y-53279824D01*
X179371215Y-53238933D01*
X179407331Y-53231749D01*
X179653759Y-53231749D01*
X179689875Y-53238933D01*
X179689875Y-53238933D01*
G37*
G36*
X150098773Y-53649452D02*
X150253645Y-53713602D01*
X150393026Y-53806734D01*
X150511560Y-53925268D01*
X150604692Y-54064649D01*
X150668842Y-54219521D01*
X150701545Y-54383933D01*
X150701545Y-54551565D01*
X150668842Y-54715977D01*
X150604692Y-54870849D01*
X150511560Y-55010230D01*
X150393026Y-55128764D01*
X150253645Y-55221896D01*
X150098773Y-55286046D01*
X149934361Y-55318749D01*
X149766729Y-55318749D01*
X149602317Y-55286046D01*
X149447445Y-55221896D01*
X149308064Y-55128764D01*
X149189530Y-55010230D01*
X149096398Y-54870849D01*
X149032248Y-54715977D01*
X148999545Y-54551565D01*
X148999545Y-54383933D01*
X149032248Y-54219521D01*
X149096398Y-54064649D01*
X149189530Y-53925268D01*
X149308064Y-53806734D01*
X149447445Y-53713602D01*
X149602317Y-53649452D01*
X149766729Y-53616749D01*
X149934361Y-53616749D01*
X150098773Y-53649452D01*
X150098773Y-53649452D01*
G37*
G36*
X154661545Y-55318749D02*
X152959545Y-55318749D01*
X152959545Y-53616749D01*
X154661545Y-53616749D01*
X154661545Y-55318749D01*
X154661545Y-55318749D01*
G37*
G36*
X190953055Y-53164790D02*
X191076577Y-53176956D01*
X191274691Y-53237054D01*
X191457274Y-53334646D01*
X191617310Y-53465984D01*
X191748648Y-53626020D01*
X191846240Y-53808603D01*
X191906338Y-54006717D01*
X191926630Y-54212749D01*
X191906338Y-54418781D01*
X191846240Y-54616895D01*
X191748648Y-54799478D01*
X191617310Y-54959514D01*
X191457274Y-55090852D01*
X191274691Y-55188444D01*
X191076577Y-55248542D01*
X190953055Y-55260708D01*
X190922176Y-55263749D01*
X190818914Y-55263749D01*
X190788035Y-55260708D01*
X190664513Y-55248542D01*
X190466399Y-55188444D01*
X190283816Y-55090852D01*
X190123780Y-54959514D01*
X189992442Y-54799478D01*
X189894850Y-54616895D01*
X189834752Y-54418781D01*
X189814460Y-54212749D01*
X189834752Y-54006717D01*
X189894850Y-53808603D01*
X189992442Y-53626020D01*
X190123780Y-53465984D01*
X190283816Y-53334646D01*
X190466399Y-53237054D01*
X190664513Y-53176956D01*
X190788035Y-53164790D01*
X190818914Y-53161749D01*
X190922176Y-53161749D01*
X190953055Y-53164790D01*
X190953055Y-53164790D01*
G37*
G36*
X211497110Y-53202138D02*
X211688379Y-53281364D01*
X211860521Y-53396386D01*
X212006908Y-53542773D01*
X212121930Y-53714915D01*
X212201156Y-53906184D01*
X212241545Y-54109233D01*
X212241545Y-54316265D01*
X212201156Y-54519314D01*
X212121930Y-54710583D01*
X212006908Y-54882725D01*
X211860521Y-55029112D01*
X211688379Y-55144134D01*
X211497110Y-55223360D01*
X211294061Y-55263749D01*
X211087029Y-55263749D01*
X210883980Y-55223360D01*
X210692711Y-55144134D01*
X210520569Y-55029112D01*
X210374182Y-54882725D01*
X210259160Y-54710583D01*
X210179934Y-54519314D01*
X210139545Y-54316265D01*
X210139545Y-54109233D01*
X210179934Y-53906184D01*
X210259160Y-53714915D01*
X210374182Y-53542773D01*
X210520569Y-53396386D01*
X210692711Y-53281364D01*
X210883980Y-53202138D01*
X211087029Y-53161749D01*
X211294061Y-53161749D01*
X211497110Y-53202138D01*
X211497110Y-53202138D01*
G37*
G36*
X152078773Y-52504452D02*
X152233645Y-52568602D01*
X152373026Y-52661734D01*
X152491560Y-52780268D01*
X152584692Y-52919649D01*
X152648842Y-53074521D01*
X152681545Y-53238933D01*
X152681545Y-53406565D01*
X152648842Y-53570977D01*
X152584692Y-53725849D01*
X152491560Y-53865230D01*
X152373026Y-53983764D01*
X152233645Y-54076896D01*
X152078773Y-54141046D01*
X151914361Y-54173749D01*
X151746729Y-54173749D01*
X151582317Y-54141046D01*
X151427445Y-54076896D01*
X151288064Y-53983764D01*
X151169530Y-53865230D01*
X151076398Y-53725849D01*
X151012248Y-53570977D01*
X150979545Y-53406565D01*
X150979545Y-53238933D01*
X151012248Y-53074521D01*
X151076398Y-52919649D01*
X151169530Y-52780268D01*
X151288064Y-52661734D01*
X151427445Y-52568602D01*
X151582317Y-52504452D01*
X151746729Y-52471749D01*
X151914361Y-52471749D01*
X152078773Y-52504452D01*
X152078773Y-52504452D01*
G37*
G36*
X229740988Y-52268268D02*
X229807172Y-52274786D01*
X229920398Y-52309133D01*
X229977012Y-52326306D01*
X230007729Y-52342725D01*
X230133536Y-52409971D01*
X230145164Y-52419514D01*
X230270731Y-52522563D01*
X230353993Y-52624020D01*
X230383323Y-52659758D01*
X230383324Y-52659760D01*
X230466988Y-52816282D01*
X230466988Y-52816283D01*
X230518508Y-52986122D01*
X230535904Y-53162749D01*
X230518508Y-53339376D01*
X230507966Y-53374127D01*
X230466988Y-53509216D01*
X230404555Y-53626018D01*
X230383323Y-53665740D01*
X230367287Y-53685280D01*
X230270731Y-53802935D01*
X230194823Y-53865230D01*
X230133536Y-53915527D01*
X230133534Y-53915528D01*
X229977012Y-53999192D01*
X229920398Y-54016365D01*
X229807172Y-54050712D01*
X229740987Y-54057231D01*
X229674805Y-54063749D01*
X229586285Y-54063749D01*
X229520103Y-54057231D01*
X229453918Y-54050712D01*
X229340692Y-54016365D01*
X229284078Y-53999192D01*
X229127556Y-53915528D01*
X229127554Y-53915527D01*
X229066267Y-53865230D01*
X228990359Y-53802935D01*
X228893803Y-53685280D01*
X228877767Y-53665740D01*
X228856535Y-53626018D01*
X228794102Y-53509216D01*
X228753124Y-53374127D01*
X228742582Y-53339376D01*
X228725186Y-53162749D01*
X228742582Y-52986122D01*
X228794102Y-52816283D01*
X228794102Y-52816282D01*
X228877766Y-52659760D01*
X228877767Y-52659758D01*
X228907097Y-52624020D01*
X228990359Y-52522563D01*
X229115926Y-52419514D01*
X229127554Y-52409971D01*
X229253361Y-52342725D01*
X229284078Y-52326306D01*
X229340692Y-52309133D01*
X229453918Y-52274786D01*
X229520102Y-52268268D01*
X229586285Y-52261749D01*
X229674805Y-52261749D01*
X229740988Y-52268268D01*
X229740988Y-52268268D01*
G37*
G36*
X190953055Y-50624790D02*
X191076577Y-50636956D01*
X191274691Y-50697054D01*
X191457274Y-50794646D01*
X191617310Y-50925984D01*
X191748648Y-51086020D01*
X191846240Y-51268603D01*
X191906338Y-51466717D01*
X191926630Y-51672749D01*
X191906338Y-51878781D01*
X191846240Y-52076895D01*
X191748648Y-52259478D01*
X191617310Y-52419514D01*
X191457274Y-52550852D01*
X191274691Y-52648444D01*
X191076577Y-52708542D01*
X190953055Y-52720708D01*
X190922176Y-52723749D01*
X190818914Y-52723749D01*
X190788035Y-52720708D01*
X190664513Y-52708542D01*
X190466399Y-52648444D01*
X190283816Y-52550852D01*
X190123780Y-52419514D01*
X189992442Y-52259478D01*
X189894850Y-52076895D01*
X189834752Y-51878781D01*
X189814460Y-51672749D01*
X189834752Y-51466717D01*
X189894850Y-51268603D01*
X189992442Y-51086020D01*
X190123780Y-50925984D01*
X190283816Y-50794646D01*
X190466399Y-50697054D01*
X190664513Y-50636956D01*
X190788035Y-50624790D01*
X190818914Y-50621749D01*
X190922176Y-50621749D01*
X190953055Y-50624790D01*
X190953055Y-50624790D01*
G37*
G36*
X211497110Y-50662138D02*
X211688379Y-50741364D01*
X211860521Y-50856386D01*
X212006908Y-51002773D01*
X212121930Y-51174915D01*
X212201156Y-51366184D01*
X212241545Y-51569233D01*
X212241545Y-51776265D01*
X212201156Y-51979314D01*
X212121930Y-52170583D01*
X212006908Y-52342725D01*
X211860521Y-52489112D01*
X211688379Y-52604134D01*
X211497110Y-52683360D01*
X211294061Y-52723749D01*
X211087029Y-52723749D01*
X210883980Y-52683360D01*
X210692711Y-52604134D01*
X210520569Y-52489112D01*
X210374182Y-52342725D01*
X210259160Y-52170583D01*
X210179934Y-51979314D01*
X210139545Y-51776265D01*
X210139545Y-51569233D01*
X210179934Y-51366184D01*
X210259160Y-51174915D01*
X210374182Y-51002773D01*
X210520569Y-50856386D01*
X210692711Y-50741364D01*
X210883980Y-50662138D01*
X211087029Y-50621749D01*
X211294061Y-50621749D01*
X211497110Y-50662138D01*
X211497110Y-50662138D01*
G37*
G36*
X167075784Y-49249850D02*
X167311598Y-49321383D01*
X167528926Y-49437548D01*
X167719416Y-49593878D01*
X167875746Y-49784368D01*
X167991911Y-50001696D01*
X168063444Y-50237510D01*
X168087598Y-50482749D01*
X168063444Y-50727988D01*
X167991911Y-50963802D01*
X167875746Y-51181130D01*
X167719416Y-51371620D01*
X167528926Y-51527950D01*
X167311598Y-51644115D01*
X167075784Y-51715648D01*
X166892002Y-51733749D01*
X166769088Y-51733749D01*
X166585306Y-51715648D01*
X166349492Y-51644115D01*
X166132164Y-51527950D01*
X165941674Y-51371620D01*
X165785344Y-51181130D01*
X165669179Y-50963802D01*
X165597646Y-50727988D01*
X165573492Y-50482749D01*
X165597646Y-50237510D01*
X165669179Y-50001696D01*
X165785344Y-49784368D01*
X165941674Y-49593878D01*
X166132164Y-49437548D01*
X166349492Y-49321383D01*
X166585306Y-49249850D01*
X166769088Y-49231749D01*
X166892002Y-49231749D01*
X167075784Y-49249850D01*
X167075784Y-49249850D01*
G37*
G36*
X179676462Y-49236265D02*
X179895448Y-49279824D01*
X180123116Y-49374127D01*
X180327087Y-49510417D01*
X180328014Y-49511036D01*
X180502258Y-49685280D01*
X180502260Y-49685283D01*
X180639167Y-49890178D01*
X180733470Y-50117846D01*
X180781545Y-50359536D01*
X180781545Y-50605962D01*
X180733470Y-50847652D01*
X180639167Y-51075320D01*
X180568466Y-51181131D01*
X180502258Y-51280218D01*
X180328014Y-51454462D01*
X180328011Y-51454464D01*
X180123116Y-51591371D01*
X179895448Y-51685674D01*
X179744758Y-51715648D01*
X179653759Y-51733749D01*
X179407331Y-51733749D01*
X179316332Y-51715648D01*
X179165642Y-51685674D01*
X178937974Y-51591371D01*
X178733079Y-51454464D01*
X178733076Y-51454462D01*
X178558832Y-51280218D01*
X178492624Y-51181131D01*
X178421923Y-51075320D01*
X178327620Y-50847652D01*
X178279545Y-50605962D01*
X178279545Y-50359536D01*
X178327620Y-50117846D01*
X178421923Y-49890178D01*
X178558830Y-49685283D01*
X178558832Y-49685280D01*
X178733076Y-49511036D01*
X178734003Y-49510417D01*
X178937974Y-49374127D01*
X179165642Y-49279824D01*
X179384628Y-49236265D01*
X179407331Y-49231749D01*
X179653759Y-49231749D01*
X179676462Y-49236265D01*
X179676462Y-49236265D01*
G37*
G36*
X229740988Y-49728268D02*
X229807172Y-49734786D01*
X229920398Y-49769133D01*
X229977012Y-49786306D01*
X230007729Y-49802725D01*
X230133536Y-49869971D01*
X230158158Y-49890178D01*
X230270731Y-49982563D01*
X230353993Y-50084020D01*
X230383323Y-50119758D01*
X230383324Y-50119760D01*
X230466988Y-50276282D01*
X230466988Y-50276283D01*
X230518508Y-50446122D01*
X230535904Y-50622749D01*
X230518508Y-50799376D01*
X230501215Y-50856384D01*
X230466988Y-50969216D01*
X230410273Y-51075320D01*
X230383323Y-51125740D01*
X230353993Y-51161478D01*
X230270731Y-51262935D01*
X230169274Y-51346197D01*
X230133536Y-51375527D01*
X230133534Y-51375528D01*
X229977012Y-51459192D01*
X229920398Y-51476365D01*
X229807172Y-51510712D01*
X229740988Y-51517230D01*
X229674805Y-51523749D01*
X229586285Y-51523749D01*
X229520102Y-51517230D01*
X229453918Y-51510712D01*
X229340692Y-51476365D01*
X229284078Y-51459192D01*
X229127556Y-51375528D01*
X229127554Y-51375527D01*
X229091816Y-51346197D01*
X228990359Y-51262935D01*
X228907097Y-51161478D01*
X228877767Y-51125740D01*
X228850817Y-51075320D01*
X228794102Y-50969216D01*
X228759875Y-50856384D01*
X228742582Y-50799376D01*
X228725186Y-50622749D01*
X228742582Y-50446122D01*
X228794102Y-50276283D01*
X228794102Y-50276282D01*
X228877766Y-50119760D01*
X228877767Y-50119758D01*
X228907097Y-50084020D01*
X228990359Y-49982563D01*
X229102932Y-49890178D01*
X229127554Y-49869971D01*
X229253361Y-49802725D01*
X229284078Y-49786306D01*
X229340692Y-49769133D01*
X229453918Y-49734786D01*
X229520102Y-49728268D01*
X229586285Y-49721749D01*
X229674805Y-49721749D01*
X229740988Y-49728268D01*
X229740988Y-49728268D01*
G37*
G36*
X212241545Y-50183749D02*
X210139545Y-50183749D01*
X210139545Y-48081749D01*
X212241545Y-48081749D01*
X212241545Y-50183749D01*
X212241545Y-50183749D01*
G37*
G36*
X191177110Y-48122138D02*
X191368379Y-48201364D01*
X191540521Y-48316386D01*
X191686908Y-48462773D01*
X191801930Y-48634915D01*
X191881156Y-48826184D01*
X191921545Y-49029233D01*
X191921545Y-49236265D01*
X191881156Y-49439314D01*
X191801930Y-49630583D01*
X191686908Y-49802725D01*
X191540521Y-49949112D01*
X191368379Y-50064134D01*
X191177110Y-50143360D01*
X190974061Y-50183749D01*
X190767029Y-50183749D01*
X190563980Y-50143360D01*
X190372711Y-50064134D01*
X190200569Y-49949112D01*
X190054182Y-49802725D01*
X189939160Y-49630583D01*
X189859934Y-49439314D01*
X189819545Y-49236265D01*
X189819545Y-49029233D01*
X189859934Y-48826184D01*
X189939160Y-48634915D01*
X190054182Y-48462773D01*
X190200569Y-48316386D01*
X190372711Y-48201364D01*
X190563980Y-48122138D01*
X190767029Y-48081749D01*
X190974061Y-48081749D01*
X191177110Y-48122138D01*
X191177110Y-48122138D01*
G37*
G36*
X229740988Y-47188268D02*
X229807172Y-47194786D01*
X229920398Y-47229133D01*
X229977012Y-47246306D01*
X230115632Y-47320401D01*
X230133536Y-47329971D01*
X230169274Y-47359301D01*
X230270731Y-47442563D01*
X230340804Y-47527949D01*
X230383323Y-47579758D01*
X230383324Y-47579760D01*
X230466988Y-47736282D01*
X230466988Y-47736283D01*
X230518508Y-47906122D01*
X230535904Y-48082749D01*
X230518508Y-48259376D01*
X230501215Y-48316384D01*
X230466988Y-48429216D01*
X230392893Y-48567836D01*
X230383323Y-48585740D01*
X230353993Y-48621478D01*
X230270731Y-48722935D01*
X230169274Y-48806197D01*
X230133536Y-48835527D01*
X230133534Y-48835528D01*
X229977012Y-48919192D01*
X229920398Y-48936365D01*
X229807172Y-48970712D01*
X229740988Y-48977230D01*
X229674805Y-48983749D01*
X229586285Y-48983749D01*
X229520102Y-48977230D01*
X229453918Y-48970712D01*
X229340692Y-48936365D01*
X229284078Y-48919192D01*
X229127556Y-48835528D01*
X229127554Y-48835527D01*
X229091816Y-48806197D01*
X228990359Y-48722935D01*
X228907097Y-48621478D01*
X228877767Y-48585740D01*
X228868197Y-48567836D01*
X228794102Y-48429216D01*
X228759875Y-48316384D01*
X228742582Y-48259376D01*
X228725186Y-48082749D01*
X228742582Y-47906122D01*
X228794102Y-47736283D01*
X228794102Y-47736282D01*
X228877766Y-47579760D01*
X228877767Y-47579758D01*
X228920286Y-47527949D01*
X228990359Y-47442563D01*
X229091816Y-47359301D01*
X229127554Y-47329971D01*
X229145458Y-47320401D01*
X229284078Y-47246306D01*
X229340692Y-47229133D01*
X229453918Y-47194786D01*
X229520103Y-47188267D01*
X229586285Y-47181749D01*
X229674805Y-47181749D01*
X229740988Y-47188268D01*
X229740988Y-47188268D01*
G37*
G36*
X152358797Y-44310567D02*
X152358799Y-44310568D01*
X152358800Y-44310568D01*
X152732058Y-44465176D01*
X152732059Y-44465177D01*
X153067984Y-44689635D01*
X153353659Y-44975310D01*
X153353661Y-44975313D01*
X153578118Y-45311236D01*
X153695192Y-45593879D01*
X153732727Y-45684497D01*
X153811545Y-46080742D01*
X153811545Y-46484756D01*
X153739361Y-46847652D01*
X153732726Y-46881004D01*
X153578118Y-47254262D01*
X153527531Y-47329970D01*
X153353659Y-47590188D01*
X153067984Y-47875863D01*
X153067981Y-47875865D01*
X152732058Y-48100322D01*
X152358800Y-48254930D01*
X152358799Y-48254930D01*
X152358797Y-48254931D01*
X151962552Y-48333749D01*
X151558538Y-48333749D01*
X151162293Y-48254931D01*
X151162291Y-48254930D01*
X151162290Y-48254930D01*
X150789032Y-48100322D01*
X150453109Y-47875865D01*
X150453106Y-47875863D01*
X150167431Y-47590188D01*
X149993559Y-47329970D01*
X149942972Y-47254262D01*
X149788364Y-46881004D01*
X149781730Y-46847652D01*
X149709545Y-46484756D01*
X149709545Y-46080742D01*
X149788363Y-45684497D01*
X149825898Y-45593879D01*
X149942972Y-45311236D01*
X150167429Y-44975313D01*
X150167431Y-44975310D01*
X150453106Y-44689635D01*
X150789031Y-44465177D01*
X150789032Y-44465176D01*
X151162290Y-44310568D01*
X151162291Y-44310568D01*
X151162293Y-44310567D01*
X151558538Y-44231749D01*
X151962552Y-44231749D01*
X152358797Y-44310567D01*
X152358797Y-44310567D01*
G37*
G36*
X167075784Y-45249850D02*
X167311598Y-45321383D01*
X167528926Y-45437548D01*
X167719416Y-45593878D01*
X167875746Y-45784368D01*
X167991911Y-46001696D01*
X168063444Y-46237510D01*
X168087598Y-46482749D01*
X168063444Y-46727988D01*
X167991911Y-46963802D01*
X167875746Y-47181130D01*
X167719416Y-47371620D01*
X167528926Y-47527950D01*
X167311598Y-47644115D01*
X167075784Y-47715648D01*
X166892002Y-47733749D01*
X166769088Y-47733749D01*
X166585306Y-47715648D01*
X166349492Y-47644115D01*
X166132164Y-47527950D01*
X165941674Y-47371620D01*
X165785344Y-47181130D01*
X165669179Y-46963802D01*
X165597646Y-46727988D01*
X165573492Y-46482749D01*
X165597646Y-46237510D01*
X165669179Y-46001696D01*
X165785344Y-45784368D01*
X165941674Y-45593878D01*
X166132164Y-45437548D01*
X166349492Y-45321383D01*
X166585306Y-45249850D01*
X166769088Y-45231749D01*
X166892002Y-45231749D01*
X167075784Y-45249850D01*
X167075784Y-45249850D01*
G37*
G36*
X179714180Y-45243768D02*
X179895448Y-45279824D01*
X180123116Y-45374127D01*
X180218033Y-45437549D01*
X180328014Y-45511036D01*
X180502258Y-45685280D01*
X180502260Y-45685283D01*
X180639167Y-45890178D01*
X180733470Y-46117846D01*
X180781545Y-46359536D01*
X180781545Y-46605962D01*
X180733470Y-46847652D01*
X180639167Y-47075320D01*
X180568466Y-47181131D01*
X180502258Y-47280218D01*
X180328014Y-47454462D01*
X180328011Y-47454464D01*
X180123116Y-47591371D01*
X179895448Y-47685674D01*
X179744758Y-47715648D01*
X179653759Y-47733749D01*
X179407331Y-47733749D01*
X179316332Y-47715648D01*
X179165642Y-47685674D01*
X178937974Y-47591371D01*
X178733079Y-47454464D01*
X178733076Y-47454462D01*
X178558832Y-47280218D01*
X178492624Y-47181131D01*
X178421923Y-47075320D01*
X178327620Y-46847652D01*
X178279545Y-46605962D01*
X178279545Y-46359536D01*
X178327620Y-46117846D01*
X178421923Y-45890178D01*
X178558830Y-45685283D01*
X178558832Y-45685280D01*
X178733076Y-45511036D01*
X178843057Y-45437549D01*
X178937974Y-45374127D01*
X179165642Y-45279824D01*
X179346910Y-45243768D01*
X179407331Y-45231749D01*
X179653759Y-45231749D01*
X179714180Y-45243768D01*
X179714180Y-45243768D01*
G37*
M02*
